<svg id="Слой_1" data-name="Слой 1" xmlns="http://www.w3.org/2000/svg" viewBox="0 0 270 190"><defs><style>.cls-1{fill:#c93669;}.cls-2{fill:#fff;}.cls-3{fill:#4a76a8;}</style></defs><title>Instagram</title><polygon class="cls-1" points="270 0 0 0 0 180 0 190 10 190 13 190 257 190 260 190 270 190 270 180 270 0"/><path class="cls-2" d="M186,95a51,51,0,1,1-51-51A51,51,0,0,1,186,95Z"/><path class="cls-1" d="M149.84,122.22H120.16a12.3,12.3,0,0,1-12.28-12.28V80.27A12.3,12.3,0,0,1,120.16,68h29.68a12.3,12.3,0,0,1,12.28,12.29v29.67A12.3,12.3,0,0,1,149.84,122.22ZM120.16,73.39a6.89,6.89,0,0,0-6.88,6.88v29.67a6.89,6.89,0,0,0,6.88,6.89h29.68a6.89,6.89,0,0,0,6.88-6.89V80.27a6.89,6.89,0,0,0-6.88-6.88ZM135,109.28a14,14,0,1,1,14-14A14,14,0,0,1,135,109.28Zm0-22.64a8.62,8.62,0,1,0,8.62,8.62A8.63,8.63,0,0,0,135,86.64Zm14.55-8.84a3.56,3.56,0,1,0,3.57,3.56A3.55,3.55,0,0,0,149.55,77.8Z"/><path class="cls-3" d="M135,95"/></svg>