<svg id="Слой_1" data-name="Слой 1" xmlns="http://www.w3.org/2000/svg" viewBox="0 0 270 190"><defs><style>.cls-1,.cls-3{fill:#4a76a8;}.cls-2{fill:#fff;}.cls-3{fill-rule:evenodd;}</style></defs><title>Vkontakte</title><polygon class="cls-1" points="270 0 0 0 0 180 0 190 10 190 13 190 257 190 260 190 270 190 270 180 270 0"/><path class="cls-2" d="M186,95a51,51,0,1,1-51-51A51,51,0,0,1,186,95Z"/><path class="cls-3" d="M134.28,114h4a3.36,3.36,0,0,0,1.83-.8,2.92,2.92,0,0,0,.55-1.76s-.08-5.38,2.42-6.16,5.62,5.19,8.95,7.49a6.31,6.31,0,0,0,4.46,1.35l8.94-.13s4.67-.29,2.45-4c-.18-.3-1.29-2.72-6.65-7.69-5.6-5.2-4.85-4.36,1.9-13.36,4.12-5.48,5.76-8.83,5.25-10.26s-3.51-1-3.51-1l-10.08.06a2.34,2.34,0,0,0-1.3.23A2.83,2.83,0,0,0,152.6,79a57.44,57.44,0,0,1-3.72,7.85c-4.48,7.61-6.27,8-7,7.54-1.71-1.1-1.28-4.43-1.28-6.79,0-7.38,1.12-10.46-2.18-11.25a16.72,16.72,0,0,0-4.7-.46c-3.6,0-6.64,0-8.36.85-1.14.56-2,1.81-1.49,1.88a4.49,4.49,0,0,1,3,1.5c1,1.4,1,4.55,1,4.55s.59,8.69-1.39,9.77c-1.34.74-3.22-.77-7.21-7.68a62.23,62.23,0,0,1-3.59-7.45,3.07,3.07,0,0,0-.83-1.12,4.18,4.18,0,0,0-1.55-.62l-9.57.06s-1.44,0-2,.66,0,1.71,0,1.71,7.49,17.52,16,26.36c7.78,8.1,16.61,7.57,16.61,7.57Z"/><path class="cls-1" d="M135,95"/></svg>