<svg id="Слой_1" data-name="Слой 1" xmlns="http://www.w3.org/2000/svg" viewBox="0 0 270 190"><defs><style>.cls-1{fill:#d42428;}.cls-2{fill:#fff;}.cls-3{fill:#dc2c28;}.cls-4{fill:#7d3daf;}</style></defs><title>YouTube_Viber</title><polygon class="cls-1" points="270 0 0 0 0 180 0 190 10 190 13 190 257 190 260 190 270 190 270 180 270 0"/><path id="lozenge" class="cls-2" d="M214.07,42.77s-.91-6.37-3.71-9.17c-3.55-3.68-7.52-3.7-9.35-3.92-13-.93-32.63-.93-32.63-.93h0s-19.59,0-32.64.93c-1.82.22-5.8.24-9.35,3.92-2.79,2.8-3.7,9.17-3.7,9.17a137.51,137.51,0,0,0-.94,15v7a137.51,137.51,0,0,0,.94,15s.91,6.37,3.7,9.17c3.55,3.68,8.21,3.57,10.29,3.95,7.46.71,31.72.93,31.72.93s19.6,0,32.65-1c1.83-.22,5.8-.24,9.35-3.92,2.8-2.8,3.71-9.17,3.71-9.17a139,139,0,0,0,.93-15v-7A139,139,0,0,0,214.07,42.77Z"/><path id="u" class="cls-2" d="M113.42,81.35h-5.94V77.93c-2.25,2.57-4.15,3.86-6.23,3.86a3.73,3.73,0,0,1-3.73-2.4,12.57,12.57,0,0,1-.66-4.57V50h5.94V75.44c.14.88.51,1.2,1.26,1.2,1.14,0,2.17-1,3.42-2.75V50h5.94Z"/><path id="o" class="cls-2" d="M92.49,60.21c0-3.35-.68-5.87-1.88-7.46a7.88,7.88,0,0,0-6.56-3,7.49,7.49,0,0,0-6.56,3c-1.21,1.59-1.87,4.13-1.87,7.49V71.4c0,3.34.58,5.65,1.8,7.22a8.25,8.25,0,0,0,6.63,3.27,8.38,8.38,0,0,0,6.69-3.27c1.2-1.57,1.75-3.88,1.75-7.22ZM86.55,72c.32,3.11-.65,4.66-2.5,4.66s-2.81-1.55-2.5-4.66V59.59c-.31-3.11.66-4.57,2.5-4.57s2.82,1.46,2.51,4.57Z"/><path id="y" class="cls-2" d="M69.06,64.25v17.1H62.81V64.25s-6.47-21-7.81-24.87h6.56l4.38,16.38,4.37-16.38h6.56Z"/><path id="e" class="cls-3" d="M207.19,66.74V60.38c0-3.32-.65-5.75-1.84-7.32a7.92,7.92,0,0,0-6.67-3.25,8.14,8.14,0,0,0-6.78,3.25c-1.2,1.57-1.9,4.14-1.9,7.46V71.4c0,3.3.77,5.62,2,7.17a8.13,8.13,0,0,0,6.85,3.18A7.85,7.85,0,0,0,207,75a35.27,35.27,0,0,0,.2-3.66v-.88h-5.93c0,2.26,0,3.6-.05,3.91a2.43,2.43,0,0,1-2.52,2.26c-1.94,0-2.76-1.45-2.74-4.32V66.74Zm-11.25-8.1c0-2.9.8-3.69,2.69-3.69s2.62.86,2.62,3.73v3.4h-5.31Z"/><path id="b" class="cls-3" d="M181,49.76c-2.08,0-4.14,1.28-6,3.51V39.69h-5.62V81.35H175V78.22c1.89,2.33,4,3.53,6,3.53a4.64,4.64,0,0,0,4.66-3.51,24.13,24.13,0,0,0,.62-6.22V59.59a21.52,21.52,0,0,0-.76-6.2C184.74,51.06,183.23,49.76,181,49.76Zm-.65,22.58c0,3.1-.74,4.3-2.37,4.3A4.36,4.36,0,0,1,175,75.22V56.36A4.41,4.41,0,0,1,178,55c1.63,0,2.37.91,2.37,4Z"/><path id="u-2" data-name="u" class="cls-3" d="M164.7,81.35h-5.94V77.93c-2.25,2.57-4.16,3.86-6.24,3.86a3.72,3.72,0,0,1-3.72-2.4,12.35,12.35,0,0,1-.66-4.57V50.26h5.93V75.44c.14.88.51,1.2,1.27,1.2,1.14,0,2.16-1,3.42-2.75V50.26h5.94Z"/><polygon id="T" class="cls-3" points="142.2 81.35 135.95 81.35 135.95 45.6 129.39 45.6 129.39 39.7 149.07 39.69 149.07 45.6 142.2 45.6 142.2 81.35"/><rect class="cls-2" x="109" y="109.25" width="52" height="52" rx="26"/><path class="cls-4" d="M151.45,126l0,0a11.86,11.86,0,0,0-8-7.71h0a44.56,44.56,0,0,0-16.76,0h0a11.89,11.89,0,0,0-8,7.71v0a33.05,33.05,0,0,0,0,14.14v0c.8,3.21,4.27,6.65,7.58,7.6v3.74a1.51,1.51,0,0,0,2.59,1.05l3.8-4c.82.05,1.65.07,2.47.07a44.7,44.7,0,0,0,8.38-.79h0a11.86,11.86,0,0,0,8-7.71l0,0a33.05,33.05,0,0,0,0-14.14Zm-3,13.46a9,9,0,0,1-5.66,5.41,40.51,40.51,0,0,1-8.91.72.24.24,0,0,0-.16.07l-2.77,2.84-3,3a.35.35,0,0,1-.6-.24v-6.21a.21.21,0,0,0-.17-.21h0a9,9,0,0,1-5.66-5.41,29.62,29.62,0,0,1,0-12.78,9,9,0,0,1,5.66-5.42,41.54,41.54,0,0,1,15.56,0,9,9,0,0,1,5.66,5.42,29.62,29.62,0,0,1,0,12.78Zm0,0"/><path class="cls-4" d="M139.91,142.33a9.35,9.35,0,0,1-1-.3,22.37,22.37,0,0,1-8.44-5.64,22.13,22.13,0,0,1-3.23-4.94c-.41-.84-.76-1.72-1.12-2.59a2.27,2.27,0,0,1,.66-2.21,5.07,5.07,0,0,1,1.74-1.3,1.1,1.1,0,0,1,1.39.33,17.85,17.85,0,0,1,2.16,3,1.44,1.44,0,0,1-.4,2c-.16.11-.31.24-.47.37a1.76,1.76,0,0,0-.35.37,1,1,0,0,0-.06.88,8,8,0,0,0,4.52,5,2.28,2.28,0,0,0,1.15.28c.71-.08.94-.86,1.44-1.26a1.35,1.35,0,0,1,1.63-.08c.52.33,1,.69,1.53,1.05a16.62,16.62,0,0,1,1.44,1.1,1.13,1.13,0,0,1,.34,1.41,4.78,4.78,0,0,1-2.06,2.27,4.64,4.64,0,0,1-.89.28c-.34-.1.31-.09,0,0Zm0,0"/><path class="cls-4" d="M135,124.25a8.46,8.46,0,0,1,8.32,7c.13.7.17,1.42.23,2.13a.5.5,0,0,1-.47.59c-.34,0-.49-.27-.51-.57,0-.6-.07-1.19-.15-1.78a7.46,7.46,0,0,0-6-6.22c-.46-.08-.94-.11-1.41-.16-.3,0-.69,0-.75-.42a.5.5,0,0,1,.5-.57H135c4.17.12-.08,0,0,0Zm0,0"/><path class="cls-4" d="M141.34,132.46a2.69,2.69,0,0,1,0,.29.47.47,0,0,1-.89.05,1.4,1.4,0,0,1,0-.41,5,5,0,0,0-.64-2.53,4.71,4.71,0,0,0-2-1.85,5.71,5.71,0,0,0-1.57-.48l-.72-.1a.46.46,0,0,1-.43-.51.45.45,0,0,1,.5-.44,6.47,6.47,0,0,1,2.73.71,5.52,5.52,0,0,1,3,4.29c0,.09,0,.17,0,.26s0,.43,0,.72c0,0,0-.29,0,0Zm0,0"/><path class="cls-4" d="M138.75,132.36a.52.52,0,0,1-.57-.51c0-.22-.05-.45-.1-.66a1.84,1.84,0,0,0-.69-1.09,1.93,1.93,0,0,0-.56-.27c-.26-.07-.53-.05-.78-.12a.47.47,0,0,1-.39-.55.5.5,0,0,1,.53-.4,2.87,2.87,0,0,1,2.94,2.85,1.4,1.4,0,0,1,0,.41.41.41,0,0,1-.37.34c-.35,0,.16,0,0,0Zm0,0"/></svg>