<svg id="Слой_1" data-name="Слой 1" xmlns="http://www.w3.org/2000/svg" viewBox="0 0 379.14 379.14"><defs><style>.cls-1{fill:#007f82;}.cls-2{fill:#026363;}.cls-3{fill:#ffcc91;}.cls-4{fill:#ffa564;}</style></defs><title>Google. Yandex map</title><path class="cls-1" d="M379.14,189.57c0,104.7-84.87,189.57-189.57,189.57S0,294.27,0,189.57,84.87,0,189.57,0,379.14,84.88,379.14,189.57Zm0,0" transform="translate(0 0)"/><path class="cls-2" d="M140.08,195.7,107,279.33l99.1,99.09A189.69,189.69,0,0,0,373.89,234L197.47,57.6,82.22,111.25,254.08,283.12l-6.56,20Zm0,0" transform="translate(0 0)"/><path class="cls-3" d="M158.9,50.56a24.53,24.53,0,0,1-18.07-.26c-9.3-4.06-28.4.41-36,7.3S79.61,70.84,79.61,70.84s-16,19.9-10.84,27.31S78.47,113,87,111.27s26.3-4,26.3-4L123,118.63s0,31.14,5.13,32.43,34.62,27.43,45.45,29.14,50,17.21,50,17.21l14.64,32.52v73.59l13.13,7.42H265l9.13-23.44L269,279.33l8-6.61,9.7-21.68L265.58,230.5l9.7-21.68,22.25,1.71,16,12.56,13.69-10.28-16-26.09-31.38-22.39,5.71-8.56-19.39-4.71s-24.54.72-37.65-10.69l-7.42-24L202.26,97.58l-23.95-5.7-5.71-21h20l4.92-13.24-28.3-13.24Zm0,0" transform="translate(0 0)"/><path class="cls-4" d="M192.56,70.84l4.91-13.24-8.2-3.83V70.84Zm0,0" transform="translate(0 0)"/><path class="cls-4" d="M311.22,186.72l-31.38-22.39,5.71-8.56-19.4-4.71s-24.53.72-37.65-10.69l-7.41-24L202.26,97.58l-13-3.09v90.23c15.21,5.14,34.28,12.69,34.28,12.69l14.64,32.52v73.59l13.13,7.42H265l9.13-23.44L269,279.33l8-6.61,9.7-21.68L265.58,230.5l9.7-21.68,22.25,1.71,16,12.56,13.69-10.28Zm0,0" transform="translate(0 0)"/><path class="cls-3" d="M210.74,299.15l-26.11-1.86-26.25,2.57-6.84,17.39,28.52,12,25.67,22.25,30.76-16.34-4.09-42.37Zm0,0" transform="translate(0 0)"/><path class="cls-4" d="M236.49,335.14l-4.09-42.37-21.66,6.38-21.47-1.53v39.59l16.46,14.27Zm0,0" transform="translate(0 0)"/><path class="cls-3" d="M140.08,195.7l-37.75,12.39-6.75,35L107,279.33l20,5.36,20.54-20-4.39-34.76Zm0,0" transform="translate(0 0)"/></svg>