<svg id="Слой_1" data-name="Слой 1" xmlns="http://www.w3.org/2000/svg" viewBox="0 0 379.14 379.14"><defs><style>.cls-1{fill:#c33878;}.cls-2{fill:#fff;}</style></defs><title>Instagram</title><path class="cls-1" d="M379.14,189.58c0,104.69-84.87,189.57-189.57,189.57S0,294.27,0,189.58,84.87,0,189.57,0,379.14,84.88,379.14,189.58Zm0,0" transform="translate(0 0)"/><path class="cls-2" d="M286.71,164H231.58c21.51,35.45-3.12,82.08-47.59,77.74-27.16-2.64-52-31.83-41-65a52.72,52.72,0,0,1,3.3-6.6c1.07-2.1,2.87-4.56,2.35-6.13H94V255a37.33,37.33,0,0,0,33.92,33.45H253.25c18.13-1.87,31.65-17,33.45-33,0,0,0-75.62,0-91.41Zm0,0" transform="translate(0 0)"/><path class="cls-2" d="M185.41,155.09c-7.41.89-11.38,2.49-15.08,4.72a37,37,0,0,0-17.91,27.32c-2.88,25.69,16,43.35,37.7,43.35,17.31,0,38.38-12.37,38.16-38.16-.2-23.49-18.93-40.1-42.87-37.23Zm32.51,44.76c-3.16,13-17.59,22.83-32.51,20.73-14.27-2-29.6-19.74-21.21-39.57,3.09-7.3,10.07-15.49,24.5-16.49,17.73-1.24,34.24,14.61,29.22,35.33Zm0,0" transform="translate(0 0)"/><path class="cls-2" d="M275.87,105.62a39,39,0,0,0-23.09-10.83H145.37v49h-8v-49h-5v49h-8V95.25a37.22,37.22,0,0,0-5.18,1.38v47.16h-8V100.44a36.91,36.91,0,0,0-6.64,5.18c-10.65,10.66-11.51,29-10.83,52.3h59.83c2.43-.56,5.35-3.56,7.54-5.18a50.09,50.09,0,0,1,29-9.29h.3a50,50,0,0,1,28.95,9.29c2.2,1.62,5.12,4.62,7.54,5.18H286.7c.27-23.55-.17-41.64-10.83-52.3Zm-8.22,31.79a5,5,0,0,1-5,5H242a5,5,0,0,1-5-5v-20.7a5,5,0,0,1,5-5h20.71a5,5,0,0,1,5,5Zm0,0" transform="translate(0 0)"/></svg>