<svg id="Слой_1" data-name="Слой 1" xmlns="http://www.w3.org/2000/svg" viewBox="0 0 379.14 379.15"><defs><style>.cls-1{fill:#f17421;}.cls-1,.cls-2{fill-rule:evenodd;}.cls-2{fill:#fff;}</style></defs><title>Ok</title><path class="cls-1" d="M189.58,0C84.87,0,0,84.89,0,189.59S84.87,379.15,189.58,379.15s189.56-84.87,189.56-189.56S294.28,0,189.58,0Z"/><path class="cls-2" d="M238.5,190.84a22.75,22.75,0,0,0-8.07,4.17c-24.61,16.56-58.32,16.11-82.83-.75a27.86,27.86,0,0,0-3.79-2.23c-6.8-3.21-13.34-1.72-17.24,3.87-4.56,6.53-4,12.86,1.78,18.41,1.49,1.41,3.18,2.66,4.8,3.94,13.17,10.29,28.55,14.49,45.6,16.26-1.2,1.3-2,2.18-2.81,3q-18.76,18.79-37.53,37.59c-2.59,2.59-4.45,5.47-4.64,9.25-.27,5.59,3.2,11.13,8.64,13.76,5.12,2.5,10.37,1.71,14.79-2.65,9.82-9.68,19.59-19.43,29.2-29.33,2.4-2.46,3.71-3,6.44-.16,9.37,9.79,19.11,19.25,28.66,28.86,2.49,2.51,5.3,4.3,8.9,4.55,5.68.39,11.48-3.25,14.07-8.78,2.37-5.05,1.47-10.45-2.83-14.79-12.61-12.78-25.34-25.44-38-38.16-.88-.89-1.55-1.64-2.95-3.17,9.33-1.12,18.75-2.8,27.34-6.13a67,67,0,0,0,24.11-15.58c4.44-4.55,4.48-10.28.87-16.15A12.65,12.65,0,0,0,238.5,190.84Z"/><path class="cls-2" d="M189.13,190.93c30.73.1,55.84-24.54,56-54.94.15-31.12-24.54-56.3-55.32-56.38A55.74,55.74,0,0,0,134,135.15C133.77,165.6,158.71,190.83,189.13,190.93Z"/><path class="cls-1" d="M189.75,162.52a27.24,27.24,0,1,0-27.41-27,27.05,27.05,0,0,0,27.41,27Zm0,0"/></svg>