<svg id="Слой_1" data-name="Слой 1" xmlns="http://www.w3.org/2000/svg" viewBox="0 0 379.14 379.14"><defs><style>.cls-1{fill:#039be5;}.cls-2{fill:#fff;}</style></defs><title>Telegram</title><path class="cls-1" d="M379.14,189.57c0,104.7-84.87,189.57-189.57,189.57S0,294.27,0,189.57,84.87,0,189.57,0,379.14,84.88,379.14,189.57Zm0,0" transform="translate(0 0)"/><path class="cls-2" d="M77.86,177.81l182.78-70.47c8.48-3.06,15.89,2.07,13.14,14.9l0,0L242.68,268.84c-2.31,10.39-8.49,12.92-17.13,8l-47.39-34.92L155.3,264c-2.53,2.53-4.66,4.66-9.56,4.66l3.37-48.23L236.94,141c3.82-3.37-.85-5.26-5.89-1.91L122.5,207.47l-46.79-14.6c-10.16-3.22-10.38-10.16,2.15-15.06Zm0,0" transform="translate(0 0)"/></svg>