<svg id="Слой_1" data-name="Слой 1" xmlns="http://www.w3.org/2000/svg" viewBox="0 0 379.14 379.14"><defs><style>.cls-1{fill:#010101;}.cls-2{fill:#fefefe;}.cls-3{fill:#ed1d52;}.cls-4{fill:#69c8cf;}.cls-5{fill:#ed1d51;}.cls-6{fill:#68c8cf;}.cls-7{fill:#ec0008;}.cls-8{fill:#ec0038;}</style></defs><title>Tik Tok</title><circle class="cls-1" cx="189.57" cy="189.57" r="189.57"/><path class="cls-2" d="M255.12,114.45l1.91,1.66c4.35,3.25,8.33,7,13.11,9.67a61.81,61.81,0,0,0,13,5.3,5.15,5.15,0,0,1,2.73,1.34l.21.17a5,5,0,0,1,.64,3.26c0,8.28,0,16.56,0,24.85,0,3.71-.56,4.36-4.25,4.27a94.22,94.22,0,0,1-48-14.54c-1-.63-1.88-1.61-3.21-1.6-.87,1-.45,2.19-.45,3.27q0,38.42,0,76.83c0,1.5.05,3-.09,4.51-.86,4.61-1.27,9.28-2.43,13.86-7.43,29.49-33.41,52.41-63.63,56a77.6,77.6,0,0,1-42.79-7.2c-2.33-1.09-4.14-2.9-6.35-4.13l-3.08-2.68c-11.88-11.59-18-25.92-20-42.18a70.09,70.09,0,0,1,5.15-37.56c11.78-26.74,32.34-42,61.26-46,2.12-.29,4.42-1.14,6.61,0l.18.2a2.67,2.67,0,0,1,.7,2.07c-.05,9.74.27,19.49-.15,29.22-.7,1.75-2.1,1.25-3.35,1a32,32,0,0,0-19.65,1.41c-12.13,5.13-19.5,14.13-20.93,27.4s3.89,23.39,14.42,31.09c.91.67,1.66,1.53,2.59,2.17l1,1c2.15,1.39,3.86,3.31,5.87,4.85,10.06,7.67,21.17,9.69,33,5,11.48-4.52,18.33-13.14,20.55-25.33a48.93,48.93,0,0,0,.69-8.72q0-76.17,0-152.35c0-6.28,0-6.32,6.25-6.32,6.51,0,13,0,19.51,0,1.39,0,2.85-.19,4.06.78a4,4,0,0,1,1.52,2.61c3.11,13.13,10.15,23.74,20.6,32.18C253.21,112.66,254.18,113.54,255.12,114.45Z" transform="translate(0 0)"/><path class="cls-3" d="M231,147.36c9.82,6.37,20.24,11.39,31.68,14.1a95,95,0,0,0,20.62,2.74c2.05,0,2.7-.37,2.68-2.56-.09-9.68,0-19.36.07-29,3.45.36,6.89.78,10.35,1,1.19.08,1.35.62,1.35,1.6,0,12.43,0,24.86,0,37.29,0,2.3-1.53,1.72-2.7,1.67-14.92-.67-29.14-4.06-42.36-11.17-3.6-1.94-7.09-4.1-10.68-6.18a5.74,5.74,0,0,0-.32,3.11q0,38.7,0,77.41c0,37.73-26.41,69.09-63.68,74.67-23.58,3.53-44.41-3.26-62.1-19.36a3.41,3.41,0,0,1-.5-.68c4.18,1.59,7.94,4.06,12.11,5.74,41.94,16.89,89.79-7.82,100.14-51.73.93-3.93,1.2-7.95,2.14-11.86.81-.78.37-1.77.37-2.65q0-40.4.05-80.78C230.27,149.58,229.65,148.21,231,147.36Z" transform="translate(0 0)"/><path class="cls-4" d="M230.37,77.57c-4.4-.7-8.83-.21-13.24-.3s-9,.07-13.57-.06c-2-.06-2.54.64-2.53,2.58.08,12,0,23.93,0,35.9q0,61.19,0,122.38a34.16,34.16,0,0,1-60.51,21.78,4.1,4.1,0,0,1-.41-.74,40.59,40.59,0,0,0,19,3c14.66-1.38,28-14.22,29.62-28.84a69.1,69.1,0,0,0,.42-7.88q0-77,0-154c0-3.94,0-3.94,4.07-3.94,11.4,0,22.79,0,34.19,0,1.94,0,2.68.46,2.53,2.48a19.07,19.07,0,0,0,.62,7.28C230.69,77.38,230.64,77.52,230.37,77.57Z" transform="translate(0 0)"/><path class="cls-4" d="M165.39,163.58c-11.33.91-22.34,3-32.47,8.5C110.75,184,97.18,202.43,93.39,227.26c-3.48,22.81,2.88,43.18,18.07,60.68a11.7,11.7,0,0,1,.92,1.37A68,68,0,0,1,90.18,265a74.55,74.55,0,0,1,45.09-108.39,77.87,77.87,0,0,1,27.94-2.31c1.66.14,2.52.63,2.34,2.54C165.33,159.06,165.43,161.33,165.39,163.58Z" transform="translate(0 0)"/><path class="cls-3" d="M139.2,258.11c-7.6-3.43-12.52-9.43-15.57-16.93a34,34,0,0,1,25.92-46.41,36.49,36.49,0,0,1,15.88,1c.69-.83.35-1.81.35-2.72,0-8.85,0-17.7,0-26.55,0-.92-.27-1.89.29-2.75,3.3-.44,6.55.28,9.83.42,1.86.08,1.39,1.44,1.39,2.46,0,9.22,0,18.43,0,27.65,0,3-.11,6,0,9,.1,2-.54,2.31-2.41,1.89-12.39-2.76-23.26.21-32.3,9.16a33.89,33.89,0,0,0-4.89,41.27C138.27,256.47,138.73,257.3,139.2,258.11Z" transform="translate(0 0)"/><path class="cls-5" d="M230.37,77.57a3.79,3.79,0,0,1,.18-.42c3.1,0,6.2.07,9.3,0,1.23,0,1.93.23,1.91,1.69-.19,13.39,4.8,24.86,13.12,35.07a2.17,2.17,0,0,1,.24.51c-9.54-5.76-16.08-14.1-20.71-24.08A65.2,65.2,0,0,1,230.37,77.57Z" transform="translate(0 0)"/><path class="cls-6" d="M285.88,132.42c-11.29-2.48-21.08-7.61-28.85-16.31,6.55,3.28,13.23,6.18,20.59,7.06,2.14.25,4.29.44,6.44.52,1.38,0,2.06.45,2,2C285.88,127.91,285.92,130.17,285.88,132.42Z" transform="translate(0 0)"/><path class="cls-7" d="M166.1,163.79c0,9.72,0,19.45,0,29.18,0,1,.45,2.09-.62,2.84q.07-16,.14-32A.53.53,0,0,1,166.1,163.79Z" transform="translate(0 0)"/><path class="cls-8" d="M231,147.36c-.75,1.11-.52,2.36-.52,3.57q0,40.27,0,80.55c0,.92-.11,1.83-.17,2.74,0,0-.17.07-.24.06a.89.89,0,0,1-.25-.14q0-42.7.09-85.41C229.94,148.39,228.74,146.19,231,147.36Z" transform="translate(0 0)"/></svg>