<svg id="Слой_1" data-name="Слой 1" xmlns="http://www.w3.org/2000/svg" viewBox="0 0 379.2 379.2"><defs><style>.cls-1{fill:#4a76a8;}.cls-2{fill:#4169e1;}.cls-3{fill:#fff;}</style></defs><title>Twitter</title><path class="cls-1" d="M0,189.57" transform="translate(0 0.03)"/><path class="cls-2" d="M379.2,189.57c0,104.72-84.88,189.61-189.6,189.61S0,294.29,0,189.57,84.89,0,189.6,0s189.6,84.89,189.6,189.6Zm0,0" transform="translate(0 0.03)"/><path class="cls-3" d="M284.05,182.62c13.36-1.09,22.42-7.17,25.91-15.41-4.82,3-19.78,6.19-28,3.11-.41-1.94-.86-3.78-1.3-5.44-6.3-23.12-27.85-41.74-50.43-39.5,1.82-.73,3.68-1.42,5.53-2,2.48-.89,17.07-3.26,14.77-8.41-1.93-4.52-19.75,3.42-23.11,4.46,4.43-1.66,11.75-4.53,12.53-9.62a35.29,35.29,0,0,0-18.58,8.81,12.87,12.87,0,0,0,3.56-7.07c-18.1,11.57-28.67,34.87-37.23,57.49-6.71-6.51-12.67-11.64-18-14.49-15-8-32.9-16.42-61-26.86-.86,9.3,4.6,21.68,20.35,29.91-3.41-.46-9.65.56-14.64,1.75C116.36,170,123,178.76,141,183c-8.21.54-12.45,2.41-16.3,6.44,3.73,7.42,12.86,16.14,29.28,14.35-18.25,7.87-7.44,22.44,7.41,20.26-25.33,26.17-65.28,24.26-88.22,2.37C133,308,263.23,274.68,282.62,196.07c14.54.12,23.08-5,28.38-10.72-8.38,1.42-20.51,0-26.95-2.73Zm0,0" transform="translate(0 0.03)"/></svg>