<svg id="Слой_1" data-name="Слой 1" xmlns="http://www.w3.org/2000/svg" viewBox="0 0 379.14 379.15"><defs><style>.cls-1{fill:#4a76a8;}.cls-2{fill:#fff;fill-rule:evenodd;}</style></defs><title>Vkontakte</title><path class="cls-1" d="M379.14,189.57c0,104.7-84.88,189.58-189.57,189.58S0,294.27,0,189.57,84.88,0,189.57,0,379.14,84.88,379.14,189.57Zm0,0" transform="translate(0 0)"/><path class="cls-2" d="M182.41,266.38h14.88s4.49-.49,6.78-3c2.11-2.27,2.05-6.53,2.05-6.53s-.29-20,9-22.9S236,253.26,248.4,261.8c9.4,6.46,16.55,5,16.55,5l33.23-.46s17.39-1.07,9.14-14.75c-.68-1.12-4.81-10.11-24.72-28.59-20.84-19.34-18.05-16.22,7.06-49.69,15.3-20.37,21.4-32.81,19.5-38.14-1.83-5.09-13.06-3.73-13.06-3.73l-37.44.23a8.56,8.56,0,0,0-4.84.84,10.41,10.41,0,0,0-3.3,4,215.1,215.1,0,0,1-13.83,29.18c-16.66,28.31-23.32,29.8-26.05,28.05-6.34-4.11-4.75-16.47-4.75-25.25,0-27.42,4.16-38.86-8.1-41.81-4.06-1-7.07-1.63-17.46-1.73-13.37-.15-24.67,0-31.07,3.17-4.26,2.07-7.54,6.73-5.55,7,2.48.33,8.09,1.52,11.06,5.56,3.83,5.22,3.7,16.93,3.7,16.93s2.21,32.29-5.15,36.3c-5,2.76-12-2.87-26.83-28.54a239.9,239.9,0,0,1-13.35-27.69,11.14,11.14,0,0,0-3.08-4.16,15.45,15.45,0,0,0-5.76-2.32l-35.56.23s-5.35.14-7.31,2.47c-1.73,2.06-.13,6.34-.13,6.34s27.83,65.14,59.36,98c28.91,30.11,61.75,28.13,61.75,28.13Zm0,0" transform="translate(0 0)"/></svg>