<svg id="Слой_1" data-name="Слой 1" xmlns="http://www.w3.org/2000/svg" viewBox="0 0 379.14 379.14"><defs><style>.cls-1{fill:#d42428;}.cls-2{fill:#fff;}</style></defs><title>YouTube</title><path class="cls-1" d="M379.14,189.58c0,104.69-84.87,189.57-189.57,189.57S0,294.27,0,189.58,84.87,0,189.57,0,379.14,84.88,379.14,189.58Zm0,0" transform="translate(0 0)"/><path class="cls-2" d="M288.78,153A28.77,28.77,0,0,0,260,124.22H125.1A28.77,28.77,0,0,0,96.34,153v77.16a28.77,28.77,0,0,0,28.76,28.77H260a28.76,28.76,0,0,0,28.76-28.77V153ZM173.31,224.12V151.65l55,36.24Zm0,0" transform="translate(0 0)"/></svg>