<svg xmlns="http://www.w3.org/2000/svg" xmlns:xlink="http://www.w3.org/1999/xlink" viewBox="0 0 86 65"><defs><style>.cls-1{fill:none;}.cls-2{fill:url(#linear-gradient);}.cls-3{isolation:isolate;}.cls-4{fill:#473849;}.cls-5{fill:#2e282f;}.cls-6{fill:#695c70;}.cls-7{fill:url(#linear-gradient-2);}.cls-8{fill:#3d303e;}.cls-9{fill:url(#linear-gradient-3);}.cls-10,.cls-51{fill:#fff;}.cls-11{fill:url(#radial-gradient);}.cls-12{fill:#3d3442;}.cls-13{fill:#4c4151;}.cls-14{fill:url(#radial-gradient-2);}.cls-15{fill:url(#radial-gradient-3);}.cls-16{fill:url(#radial-gradient-4);}.cls-17{fill:#c62610;}.cls-18{clip-path:url(#clip-path);}.cls-19{fill:url(#radial-gradient-5);}.cls-20{fill:#c6cbdb;}.cls-21{fill:#f7b288;}.cls-22{fill:#dc765d;}.cls-23{fill:#a05732;}.cls-24{fill:#82322e;}.cls-25{fill:url(#radial-gradient-6);}.cls-26{fill:url(#radial-gradient-7);}.cls-27{fill:#874d39;}.cls-28{fill:url(#radial-gradient-8);}.cls-29{fill:url(#radial-gradient-9);}.cls-30{fill:#ffdc04;}.cls-31{fill:#99b63b;}.cls-32{fill:#723731;}.cls-33{fill:url(#radial-gradient-10);}.cls-34{fill:#4f2525;}.cls-35{fill:url(#radial-gradient-11);}.cls-36{fill:url(#radial-gradient-12);}.cls-37{fill:url(#radial-gradient-13);}.cls-38{fill:#ffb78f;}.cls-39{fill:#362e3a;}.cls-40{fill:#924a44;}.cls-41{fill:url(#radial-gradient-14);}.cls-42{fill:#ed6b0d;}.cls-43{fill:url(#radial-gradient-15);}.cls-44{fill:url(#linear-gradient-4);}.cls-45{fill:#ec6c6c;}.cls-46{fill:#9c9aaf;}.cls-47{fill:#ebf9ff;}.cls-48{clip-path:url(#clip-path-2);}.cls-49{fill:#b26746;}.cls-50{fill:url(#radial-gradient-16);}.cls-51{opacity:0.43;mix-blend-mode:overlay;}.cls-52{fill:#ffb592;}.cls-53{fill:url(#radial-gradient-17);}.cls-54{fill:#f47a68;}.cls-55{fill:url(#radial-gradient-18);}.cls-56{clip-path:url(#clip-path-3);}.cls-57{fill:#f55;}.cls-58{fill:#b7603a;}.cls-59{mix-blend-mode:multiply;fill:url(#radial-gradient-19);}.cls-60{fill:#9b241b;}.cls-61{fill:url(#radial-gradient-20);}.cls-62{fill:url(#radial-gradient-21);}.cls-63{fill:#f06357;}.cls-64{fill:url(#radial-gradient-22);}.cls-65{fill:url(#radial-gradient-23);}.cls-66{fill:url(#radial-gradient-24);}.cls-67{fill:url(#radial-gradient-25);}.cls-68{fill:url(#linear-gradient-6);}.cls-69{fill:#cbc8db;}.cls-70{fill:#fe3b3b;}.cls-71{fill:url(#radial-gradient-26);}.cls-72{fill:#ed1818;}.cls-73{fill:#207dc1;opacity:0.5;}.cls-74{fill:url(#radial-gradient-27);}</style><linearGradient id="linear-gradient" x1="-178.75" y1="159" x2="-178.39" y2="159.77" gradientTransform="matrix(1, -0.06, 0.06, 1, 232.7, -122.08)" gradientUnits="userSpaceOnUse"><stop offset="0" stop-color="#7a324a"/><stop offset="0.95" stop-color="#ac4044"/></linearGradient><linearGradient id="linear-gradient-2" x1="43" y1="65.5" x2="43" y2="57.38" gradientUnits="userSpaceOnUse"><stop offset="0" stop-color="#695c70"/><stop offset="0.52" stop-color="#504353"/><stop offset="0.86" stop-color="#3d303e"/></linearGradient><linearGradient id="linear-gradient-3" x1="43.17" y1="64.4" x2="43.17" y2="52.4" xlink:href="#linear-gradient-2"/><radialGradient id="radial-gradient" cx="66.29" cy="12.22" r="24.74" gradientTransform="translate(0 0.09)" gradientUnits="userSpaceOnUse"><stop offset="0.13" stop-color="#ff7f57"/><stop offset="0.63" stop-color="#e3421e"/></radialGradient><radialGradient id="radial-gradient-2" cx="64.93" cy="12.09" r="6.57" gradientTransform="translate(0 0.09)" gradientUnits="userSpaceOnUse"><stop offset="0.03" stop-color="#9bd446"/><stop offset="0.17" stop-color="#95cf43"/><stop offset="0.36" stop-color="#84c03b"/><stop offset="0.57" stop-color="#69a82d"/><stop offset="0.8" stop-color="#43871a"/><stop offset="0.92" stop-color="#2c730e"/></radialGradient><radialGradient id="radial-gradient-3" cx="66.87" cy="9.78" r="9.38" gradientTransform="translate(0 0.09)" gradientUnits="userSpaceOnUse"><stop offset="0" stop-color="#f976ff"/><stop offset="1" stop-color="#1f85ff"/></radialGradient><radialGradient id="radial-gradient-4" cx="64.06" cy="25.45" r="14.01" xlink:href="#radial-gradient-3"/><clipPath id="clip-path" transform="translate(0)"><rect class="cls-1" x="60.45" y="19.7" width="12.32" height="7.59" rx="0.29"/></clipPath><radialGradient id="radial-gradient-5" cx="5731.86" cy="12542.4" r="29.06" gradientTransform="matrix(0.25, 0, 0, 0.25, -1423.62, -3134.23)" gradientUnits="userSpaceOnUse"><stop offset="0.62" stop-color="#f2fbff"/><stop offset="0.74" stop-color="#dbe7f1"/><stop offset="1" stop-color="#a2b5cf"/></radialGradient><radialGradient id="radial-gradient-6" cx="6007.65" cy="13397.11" r="9.23" gradientTransform="matrix(0.25, 0, 0, 0.24, -1455.34, -3205.63)" gradientUnits="userSpaceOnUse"><stop offset="0.41" stop-color="#ffac8b"/><stop offset="0.51" stop-color="#fea687"/><stop offset="0.61" stop-color="#fa987c"/><stop offset="0.73" stop-color="#f47f68"/><stop offset="0.96" stop-color="#e6463c"/></radialGradient><radialGradient id="radial-gradient-7" cx="5728.43" cy="12534.72" r="18.78" gradientTransform="matrix(0.25, 0, 0, 0.25, -1423.62, -3134.23)" gradientUnits="userSpaceOnUse"><stop offset="0.29" stop-color="#ffac8b"/><stop offset="0.46" stop-color="#ffa98a"/><stop offset="0.57" stop-color="#fea086"/><stop offset="0.67" stop-color="#fc917f"/><stop offset="0.76" stop-color="#fa7c76"/><stop offset="0.84" stop-color="#f7606a"/><stop offset="0.92" stop-color="#f43e5b"/><stop offset="0.96" stop-color="#f12550"/></radialGradient><radialGradient id="radial-gradient-8" cx="5724.27" cy="12542.59" r="3.84" gradientTransform="matrix(0.25, 0, 0, 0.25, -1423.62, -3134.23)" gradientUnits="userSpaceOnUse"><stop offset="0.11" stop-color="#a4142c"/><stop offset="0.49" stop-color="#7d1c29"/><stop offset="0.85" stop-color="#532525"/></radialGradient><radialGradient id="radial-gradient-9" cx="5726.55" cy="12539.22" r="4.56" gradientTransform="matrix(0.25, 0, 0, 0.25, -1423.62, -3134.23)" gradientUnits="userSpaceOnUse"><stop offset="0.4" stop-color="#f5657e"/><stop offset="0.49" stop-color="#f26277"/><stop offset="0.63" stop-color="#ea5863"/><stop offset="0.79" stop-color="#dc4842"/><stop offset="0.88" stop-color="#d43f2e"/></radialGradient><radialGradient id="radial-gradient-10" cx="-2682.9" cy="14000.16" r="36.58" gradientTransform="translate(841.8 -4006.82) scale(0.29 0.29)" gradientUnits="userSpaceOnUse"><stop offset="0.11" stop-color="#aa564e"/><stop offset="0.22" stop-color="#984d46"/><stop offset="0.5" stop-color="#6c3633"/><stop offset="0.72" stop-color="#512827"/><stop offset="0.85" stop-color="#472323"/></radialGradient><radialGradient id="radial-gradient-11" cx="-2686.31" cy="14021.76" r="7.6" gradientTransform="translate(841.8 -4006.82) scale(0.29 0.29)" gradientUnits="userSpaceOnUse"><stop offset="0.37" stop-color="#ffb592"/><stop offset="0.57" stop-color="#ffb290"/><stop offset="0.65" stop-color="#feae8d"/><stop offset="0.73" stop-color="#fb9e81"/><stop offset="0.9" stop-color="#f37363"/><stop offset="1" stop-color="#ed564e"/></radialGradient><radialGradient id="radial-gradient-12" cx="-2698.69" cy="11849.79" r="21.62" gradientTransform="translate(941.74 -3810.07) scale(0.33 0.32)" gradientUnits="userSpaceOnUse"><stop offset="0.15" stop-color="#ffbc9b"/><stop offset="0.29" stop-color="#feb999"/><stop offset="0.4" stop-color="#fdaf91"/><stop offset="0.51" stop-color="#fa9e85"/><stop offset="0.61" stop-color="#f68574"/><stop offset="0.71" stop-color="#f0675e"/><stop offset="0.71" stop-color="#f0645c"/></radialGradient><radialGradient id="radial-gradient-13" cx="-2698.87" cy="11849.79" r="21.62" xlink:href="#radial-gradient-12"/><radialGradient id="radial-gradient-14" cx="-2686.27" cy="14019.23" r="14.3" gradientTransform="translate(841.8 -4006.82) scale(0.29 0.29)" gradientUnits="userSpaceOnUse"><stop offset="0" stop-color="#ff5136"/><stop offset="0.1" stop-color="#f54b31"/><stop offset="0.26" stop-color="#db3b24"/><stop offset="0.47" stop-color="#b2200f"/><stop offset="0.6" stop-color="#940e00"/></radialGradient><radialGradient id="radial-gradient-15" cx="-2689.91" cy="14013.86" r="15.22" xlink:href="#radial-gradient-11"/><linearGradient id="linear-gradient-4" x1="-8944.5" y1="-1879.13" x2="-8944.5" y2="-1878.89" gradientTransform="matrix(-1.63, 0.05, 0.14, 1.64, -14286.57, 3595.1)" xlink:href="#linear-gradient"/><clipPath id="clip-path-2" transform="translate(0)"><rect class="cls-1" x="60.33" y="41.44" width="12.63" height="6.88"/></clipPath><radialGradient id="radial-gradient-16" cx="3538.3" cy="9090" r="9.02" gradientTransform="matrix(0.31, -0.02, 0.02, 0.31, -1206.39, -2707.05)" gradientUnits="userSpaceOnUse"><stop offset="0.11" stop-color="#be522f"/><stop offset="0.47" stop-color="#964529"/><stop offset="0.85" stop-color="#683521"/></radialGradient><radialGradient id="radial-gradient-17" cx="3540.65" cy="9105.07" r="4.47" gradientTransform="matrix(0.31, -0.02, 0.02, 0.31, -1206.39, -2707.05)" gradientUnits="userSpaceOnUse"><stop offset="0.3" stop-color="#ffb592"/><stop offset="0.4" stop-color="#feb08f"/><stop offset="0.52" stop-color="#fca385"/><stop offset="0.64" stop-color="#f78c75"/><stop offset="0.76" stop-color="#f16c5e"/><stop offset="0.84" stop-color="#ed564e"/></radialGradient><radialGradient id="radial-gradient-18" cx="3541.42" cy="9096.12" r="10.08" gradientTransform="matrix(0.31, -0.02, 0.02, 0.31, -1206.39, -2707.05)" gradientUnits="userSpaceOnUse"><stop offset="0.13" stop-color="#ffb592"/><stop offset="0.3" stop-color="#feb290"/><stop offset="0.44" stop-color="#fca888"/><stop offset="0.57" stop-color="#f9977c"/><stop offset="0.69" stop-color="#f57e6b"/><stop offset="0.8" stop-color="#ef6055"/><stop offset="0.84" stop-color="#ed564e"/></radialGradient><clipPath id="clip-path-3" transform="translate(0)"><path class="cls-2" d="M63.37,47.52a.55.55,0,0,0,.53.43.53.53,0,0,0,.51-.49A2.93,2.93,0,0,1,63.37,47.52Z"/></clipPath><radialGradient id="radial-gradient-19" cx="3560.79" cy="9105.99" r="6.7" gradientTransform="matrix(0.31, -0.02, 0.02, 0.31, -1206.39, -2707.05)" gradientUnits="userSpaceOnUse"><stop offset="0" stop-color="#fff"/><stop offset="0.09" stop-color="#f9fafa"/><stop offset="0.21" stop-color="#e8ebed"/><stop offset="0.35" stop-color="#ccd3d7"/><stop offset="0.5" stop-color="#a5b2b9"/><stop offset="0.65" stop-color="#738892"/><stop offset="0.75" stop-color="#506a77"/></radialGradient><radialGradient id="radial-gradient-20" cx="68.77" cy="47.64" r="6.17" gradientTransform="translate(0 0.09)" gradientUnits="userSpaceOnUse"><stop offset="0.13" stop-color="#ff3b3b"/><stop offset="0.28" stop-color="#f6373a"/><stop offset="0.52" stop-color="#de2d35"/><stop offset="0.83" stop-color="#b61c2f"/><stop offset="0.95" stop-color="#a4142c"/></radialGradient><radialGradient id="radial-gradient-21" cx="3560.74" cy="9104.99" r="8.83" gradientTransform="matrix(0.31, -0.02, 0.02, 0.31, -1206.39, -2707.05)" gradientUnits="userSpaceOnUse"><stop offset="0.55" stop-color="#ffb592"/><stop offset="0.63" stop-color="#feb290"/><stop offset="0.69" stop-color="#fca888"/><stop offset="0.74" stop-color="#f9977c"/><stop offset="0.79" stop-color="#f57e6b"/><stop offset="0.84" stop-color="#ef6055"/><stop offset="0.86" stop-color="#ed564e"/></radialGradient><radialGradient id="radial-gradient-22" cx="3556.16" cy="9088.73" r="5.61" gradientTransform="matrix(0.31, -0.02, 0.02, 0.31, -1206.39, -2707.05)" gradientUnits="userSpaceOnUse"><stop offset="0.03" stop-color="#c25b55"/><stop offset="0.11" stop-color="#ad524c"/><stop offset="0.25" stop-color="#87403c"/><stop offset="0.34" stop-color="#743734"/><stop offset="0.49" stop-color="#5b2b2a"/><stop offset="0.62" stop-color="#4b2423"/><stop offset="0.73" stop-color="#462121"/></radialGradient><radialGradient id="radial-gradient-23" cx="3562.48" cy="9081.36" r="19.11" xlink:href="#radial-gradient-22"/><radialGradient id="radial-gradient-24" cx="3559" cy="9093.5" r="16.27" gradientTransform="matrix(0.31, -0.02, 0.02, 0.31, -1206.39, -2707.05)" gradientUnits="userSpaceOnUse"><stop offset="0.13" stop-color="#ffb592"/><stop offset="0.25" stop-color="#feb290"/><stop offset="0.35" stop-color="#fca888"/><stop offset="0.44" stop-color="#f9977c"/><stop offset="0.53" stop-color="#f57e6b"/><stop offset="0.61" stop-color="#ef6055"/><stop offset="0.63" stop-color="#ed564e"/></radialGradient><radialGradient id="radial-gradient-25" cx="3562.5" cy="9081.49" r="18.05" xlink:href="#radial-gradient-22"/><linearGradient id="linear-gradient-6" x1="-9976.92" y1="-3775.65" x2="-9976.92" y2="-3775.49" gradientTransform="matrix(-3.06, 0.03, 0.19, 3.07, -29768.09, 11880.54)" xlink:href="#linear-gradient"/><radialGradient id="radial-gradient-26" cx="-9.4" cy="40.14" r="100.81" gradientTransform="translate(0 0.09)" gradientUnits="userSpaceOnUse"><stop offset="0.13" stop-color="#ffb157"/><stop offset="0.53" stop-color="#eb602d"/><stop offset="0.68" stop-color="#e3421e"/></radialGradient><radialGradient id="radial-gradient-27" cx="1.65" cy="45.31" r="14.24" gradientTransform="translate(0 0.09)" gradientUnits="userSpaceOnUse"><stop offset="0" stop-color="#4d8ecb"/><stop offset="1" stop-color="#5d2a7c"/></radialGradient></defs><title>View</title><g class="cls-3"><g id="_Layer_" data-name="&lt;Layer&gt;"><path class="cls-4" d="M62.75,59.71l-2.29,0c-3.74-.93-10.17-1.54-17.46-1.54a82.91,82.91,0,0,0-17.16,1.47,16.85,16.85,0,0,0-2.67.16,2.7,2.7,0,0,0-1.08,1.8C22.09,63.46,31.45,65,43,65s20.9-1.54,20.9-3.43A2.53,2.53,0,0,0,62.75,59.71Z" transform="translate(0)"/><path class="cls-5" d="M63.92,61.59a2.53,2.53,0,0,0-1.15-1.87l-2.3,0c-.74-.19-1.59-.36-2.52-.51L56.52,61l1,3C61.46,63.43,63.92,62.56,63.92,61.59Z" transform="translate(0)"/><path class="cls-5" d="M25.22,61.28l-.72-1.63a5.91,5.91,0,0,0-1.33.12,2.7,2.7,0,0,0-1.08,1.8c0,.56.82,1.09,2.28,1.56Z" transform="translate(0)"/><path class="cls-6" d="M32.55,64.54c1.79.17,3.75.3,5.83.38l.27-2.16L33,62.15Z" transform="translate(0)"/><ellipse class="cls-7" cx="43" cy="60.35" rx="20.22" ry="2.94"/><path class="cls-8" d="M50,57.7c-1.31-.12-2.73-.2-4.22-.25l2.14,1.85Z" transform="translate(0)"/><path class="cls-8" d="M38.11,59.3l2.44-1.85h-.36c-.92,0-1.8.07-2.66.13Z" transform="translate(0)"/><path class="cls-5" d="M50.67,49.17v8.72h-15V49.17h4.49a3.39,3.39,0,0,0-.16,1,3.22,3.22,0,1,0,6.44,0,3.39,3.39,0,0,0-.16-1Z" transform="translate(0)"/><path class="cls-9" d="M50.67,50.58V60h-15V50.58h4.49a3.39,3.39,0,0,0-.16,1,3.22,3.22,0,0,0,6.44,0,3.39,3.39,0,0,0-.16-1Z" transform="translate(0)"/><rect class="cls-5" width="86" height="51.13"/><polygon class="cls-10" points="85.03 6.3 85.03 48.32 1.16 48.32 1.16 6.3 1.62 1.36 84.83 1.5 85.03 6.3"/><rect class="cls-11" x="60.45" y="8.6" width="12.32" height="7.59" rx="3.8"/><path class="cls-12" d="M61.68,11.38l.15,0,1.52,0a.2.2,0,0,1,.19.19L63.63,15c0,.07.12.11.07.14a1.09,1.09,0,0,1-.26.05H61.77a.19.19,0,0,1-.19-.19l-.08-3.45C61.5,11.47,61.58,11.42,61.68,11.38Z" transform="translate(0)"/><path class="cls-13" d="M61.88,11.34h1.67a.19.19,0,0,1,.19.18L63.82,15a.18.18,0,0,1-.18.18H62a.19.19,0,0,1-.19-.18l-.08-3.46A.17.17,0,0,1,61.88,11.34Z" transform="translate(0)"/><path class="cls-14" d="M62,11.49h1.39a.16.16,0,0,1,.16.15l.07,3.16a.15.15,0,0,1-.15.15H62.1a.17.17,0,0,1-.16-.15l-.06-3.16A.15.15,0,0,1,62,11.49Z" transform="translate(0)"/><path class="cls-12" d="M63.82,15a.18.18,0,0,1-.18.18H62.15l-.09-3.82h1.49a.19.19,0,0,1,.19.18Z" transform="translate(0)"/><path class="cls-12" d="M62.36,9.77l.19,0,1.94,0a.23.23,0,0,1,.24.23l.11,4.41c0,.08.16.13.09.17a1.75,1.75,0,0,1-.33.06H62.48a.24.24,0,0,1-.25-.23L62.13,10C62.12,9.87,62.23,9.81,62.36,9.77Z" transform="translate(0)"/><path class="cls-6" d="M62.61,9.71h2.13a.24.24,0,0,1,.24.23l.11,4.41a.23.23,0,0,1-.23.23H62.73a.25.25,0,0,1-.25-.23l-.1-4.41A.23.23,0,0,1,62.61,9.71Z" transform="translate(0)"/><path class="cls-15" d="M62.8,9.9h1.78a.2.2,0,0,1,.2.19l.09,4a.19.19,0,0,1-.2.19H62.9a.21.21,0,0,1-.21-.19l-.08-4A.19.19,0,0,1,62.8,9.9Z" transform="translate(0)"/><rect class="cls-16" x="60.45" y="19.7" width="12.32" height="7.59" rx="0.29"/><path class="cls-6" d="M78.83,22.36H75.1a.55.55,0,0,1-.55-.55h0a.55.55,0,0,1,.55-.55h3.73a.54.54,0,0,1,.55.55h0A.55.55,0,0,1,78.83,22.36Z" transform="translate(0)"/><rect class="cls-17" x="74.55" y="26.19" width="3.19" height="1.1" rx="0.55"/><g class="cls-18"><path class="cls-19" d="M60.42,27.76c.22-1.19.32-1.92,1.41-2.37a7.14,7.14,0,0,1,1-.29c0,.16.56.13,1.14.13h.51a3.14,3.14,0,0,1,1.06.4c.61.32.72,1.28.91,1.76C65.15,28.5,62.21,27.92,60.42,27.76Z" transform="translate(0)"/><path class="cls-20" d="M62,27.94a8.34,8.34,0,0,0,.12-1.35,12.31,12.31,0,0,1,.2,1.58C62.28,28.31,62,27.94,62,27.94Z" transform="translate(0)"/><path class="cls-20" d="M66,27.54c-.15-.41-.36-1.18-.36-1.18l.55,1.06Z" transform="translate(0)"/><path class="cls-21" d="M65.44,27.73a3.25,3.25,0,0,1-.32-1.37c0-.07-.18-.1-.2,0a.84.84,0,0,0,0,.2,2.78,2.78,0,0,0-.09-.72.44.44,0,0,0-.2-.05s0-.21-.15-.18a.35.35,0,0,0-.17.11s0,2.47,0,2.46S65.44,27.73,65.44,27.73Z" transform="translate(0)"/><path class="cls-22" d="M64.46,28.12l.46-.18v-.09a9.68,9.68,0,0,0,0-1.29v-.14s-.09-.12-.17-.09,0-.52,0-.54H64.6s0-.21-.15-.18a.35.35,0,0,0-.17.11s0,.42,0,.92Z" transform="translate(0)"/><path class="cls-21" d="M64.61,28.12a9.79,9.79,0,0,0,.23-1.51c0-.15-.18-.31-.25,0,0,0,.11-.67,0-.73a.21.21,0,0,0-.19,0s0-.21-.13-.22-.2,0-.2.19a1.33,1.33,0,0,1,0,.17.24.24,0,0,0-.18.1,5.75,5.75,0,0,0-.2.94c-.06.26-.31,1.12-.31,1.12Z" transform="translate(0)"/><path class="cls-22" d="M64.6,26.55a7.75,7.75,0,0,1-.19.94s.15-1.08.22-1.29Z" transform="translate(0)"/><path class="cls-22" d="M64.39,25.85a8.93,8.93,0,0,0-.29,1.51,13.28,13.28,0,0,1,.26-1.69S64.41,25.8,64.39,25.85Z" transform="translate(0)"/><path class="cls-22" d="M64.05,26a9.45,9.45,0,0,1-.18,1.24L64,26Z" transform="translate(0)"/><path class="cls-23" d="M64.85,20.29c-1.44-.36-2.65.16-2.72,1.42a34.89,34.89,0,0,1-.3,3.68l.87-.31c.37-.46,2.18-.39,2.27-1.14a4.42,4.42,0,0,1,.79-2C66.21,21.25,65.88,20.1,64.85,20.29Z" transform="translate(0)"/><path class="cls-24" d="M64.86,20.74s1.16.08.94,1.14Z" transform="translate(0)"/><path class="cls-24" d="M62.63,22.81c-.56.2-.79,2.48-.8,2.58a5.65,5.65,0,0,1,2.68-.16l.37.09c.47-.31.62-1.61.6-1.66A25.75,25.75,0,0,1,62.82,23C62.71,22.82,62.63,22.81,62.63,22.81Z" transform="translate(0)"/><path class="cls-25" d="M63.07,25.23l.18-1.51,1.21.76-.12.82c0,.18,0,.33-.25.35C63.71,25.69,63.08,25.47,63.07,25.23Z" transform="translate(0)"/><path class="cls-26" d="M62.43,22.8a.23.23,0,0,1,.31-.2c.11,0,0,.25.19.32.1-.21,0-.36,0-.79,0-.63,1.31-.53,1.89-1.39a1.34,1.34,0,0,1,1,1.22c0,.84,0,.68,0,1.1,0,.82-.41,1.73-1.3,1.74a1.57,1.57,0,0,1-1.59-1.31.22.22,0,0,1-.3-.06A1,1,0,0,1,62.43,22.8Z" transform="translate(0)"/><path class="cls-27" d="M63.68,22.27a.07.07,0,0,1-.06,0,.08.08,0,0,1,0-.1.72.72,0,0,1,.66-.1.07.07,0,0,1,0,.08.08.08,0,0,1-.09.05.59.59,0,0,0-.54.09Z" transform="translate(0)"/><path class="cls-27" d="M65.67,22.27a.09.09,0,0,1-.06,0,.38.38,0,0,0-.44-.07.07.07,0,0,1-.09,0,.08.08,0,0,1,0-.09.51.51,0,0,1,.6.11.07.07,0,0,1,0,.1Z" transform="translate(0)"/><path class="cls-8" d="M64.11,22.7c0-.1-.06-.19-.14-.19s-.14.09-.14.2.07.19.14.19S64.11,22.81,64.11,22.7Z" transform="translate(0)"/><path class="cls-8" d="M65.47,22.69a.17.17,0,0,0-.15-.19c-.07,0-.13.08-.13.19s.06.19.14.19S65.47,22.79,65.47,22.69Z" transform="translate(0)"/><path class="cls-22" d="M64.53,23.56a.08.08,0,0,1-.07-.07.07.07,0,0,1,.07-.07.88.88,0,0,0,.39-.14.08.08,0,0,1,.1,0,.08.08,0,0,1,0,.1,1.07,1.07,0,0,1-.48.17Z" transform="translate(0)"/><path class="cls-28" d="M65.12,23.78a.53.53,0,0,1-.3.35.51.51,0,0,1-.52,0,.79.79,0,0,1-.24-.29A8.45,8.45,0,0,0,65.12,23.78Z" transform="translate(0)"/><path class="cls-29" d="M64.82,24.13a.51.51,0,0,1-.52,0A.61.61,0,0,1,64.82,24.13Z" transform="translate(0)"/><path class="cls-20" d="M63.07,25.23l.32-.06s.28.46.65.48a1.77,1.77,0,0,1-1-.19C62.7,25.22,63.07,25.23,63.07,25.23Z" transform="translate(0)"/><path class="cls-10" d="M63.14,24.65c.11.25.2.41.24.49a.11.11,0,0,1,0,.11l-.42.57a1.22,1.22,0,0,1-.25-.42.44.44,0,0,1,.1-.41Z" transform="translate(0)"/><path class="cls-20" d="M64.36,25.38c.09-.28.45-.25.45-.25l.19.51Z" transform="translate(0)"/><path class="cls-10" d="M64.4,24.91l-.06.39h0c0,.24-.1.29-.21.35.25,0,.5-.34.68-.52A3.23,3.23,0,0,0,64.4,24.91Z" transform="translate(0)"/><path class="cls-13" d="M71.58,21.17l-.28-.07-2.91.07a.4.4,0,0,0-.39.35l-.52,6.61c0,.13-.25.2-.15.26a2.54,2.54,0,0,0,.48.09H71a.39.39,0,0,0,.39-.35l.52-6.61C71.92,21.33,71.77,21.23,71.58,21.17Z" transform="translate(0)"/><path class="cls-6" d="M71.21,21.09H68a.39.39,0,0,0-.39.35L67.11,28a.33.33,0,0,0,.33.36h3.19A.4.4,0,0,0,71,28l.52-6.6A.33.33,0,0,0,71.21,21.09Z" transform="translate(0)"/><path class="cls-30" d="M70.9,21.37H68.24a.32.32,0,0,0-.32.29l-.46,6a.27.27,0,0,0,.28.29H70.4a.32.32,0,0,0,.32-.29l.46-6A.27.27,0,0,0,70.9,21.37Z" transform="translate(0)"/><path class="cls-13" d="M67,23.36h3.25a.35.35,0,0,0,.35-.35h0a.35.35,0,0,0-.35-.35H67a.34.34,0,0,0-.35.35h0A.35.35,0,0,0,67,23.36Z" transform="translate(0)"/><path class="cls-13" d="M67,24.58h1.6a.35.35,0,0,0,.35-.35h0a.35.35,0,0,0-.35-.35H67a.35.35,0,0,0-.35.35h0A.35.35,0,0,0,67,24.58Z" transform="translate(0)"/></g><rect class="cls-31" x="60.45" y="30.81" width="12.32" height="7.59" rx="3.8"/><path class="cls-32" d="M63.74,34c-.37.8-.33,1.94.26,2.2.41.18,1.93.06,1.68-.17-.49-.44-.49-.71-.28-1.65Z" transform="translate(0)"/><path class="cls-32" d="M65.55,33.13a.35.35,0,0,1,.31.27,1.14,1.14,0,0,0-.37-.12C65.4,33.29,65.55,33.13,65.55,33.13Z" transform="translate(0)"/><path class="cls-32" d="M63.23,33.17c-.13.07-.18.23-.21.63.14-.35.23-.44.33-.48Z" transform="translate(0)"/><path class="cls-33" d="M66.34,35.66c-.34-.24.42-.61.22-1s-.48-.43-.7-1.45-.52-1.67-1.73-1.54a1.6,1.6,0,0,0-1.25,1.63,2.46,2.46,0,0,1-.59,1.66c-.32.51,0,.68.07,1.08s-.67.17-.16,1c-.36.27-.22.88.63,1.06a14.06,14.06,0,0,0,3.33-.2c.91-.08.47-1.06.47-1.06C67,36.29,66.68,35.9,66.34,35.66Z" transform="translate(0)"/><path class="cls-34" d="M63.14,34a5.32,5.32,0,0,1,.16,2.42c-.28,1.1,1.49.44,1.78-.48a4.52,4.52,0,0,0,.3-2.15C65.27,33.22,63.14,34,63.14,34Z" transform="translate(0)"/><path class="cls-35" d="M66.57,38.4H63.34a2.66,2.66,0,0,1,0-.3,6.07,6.07,0,0,1,.07-2.2h0l.21-.08h0l.18-.06h0l.07,0h0c.06,0,.09-.32.11-.5a1,1,0,0,1,0-.15l.87.05v.08a1.07,1.07,0,0,0,0,.53s.33.08.58.17C66.13,36.12,66.5,37.63,66.57,38.4Z" transform="translate(0)"/><path class="cls-36" d="M63.35,33.71c-.22-.25-.29-.14-.29.06s.12.57.29.53S63.35,33.71,63.35,33.71Z" transform="translate(0)"/><path class="cls-37" d="M65.43,33.71c.22-.25.29-.14.29.06s-.16.6-.29.53S65.43,33.71,65.43,33.71Z" transform="translate(0)"/><path class="cls-38" d="M65.42,33.12a.22.22,0,0,1,.13.19c0,1.19-.3,2-1.12,2s-1.16-.78-1.2-1.93a.2.2,0,0,1,.2-.21,1.44,1.44,0,0,0,1.35-.8A1.47,1.47,0,0,0,65.42,33.12Z" transform="translate(0)"/><path class="cls-39" d="M64.85,33.72c0-.08,0-.14.1-.14s.1.06.1.14,0,.15-.1.15S64.85,33.8,64.85,33.72Z" transform="translate(0)"/><path class="cls-39" d="M63.79,33.72a.13.13,0,0,1,.11-.14c.05,0,.1.06.1.14s0,.15-.1.15S63.79,33.8,63.79,33.72Z" transform="translate(0)"/><path class="cls-40" d="M65.15,33.4h0a.48.48,0,0,0-.39-.09s-.06,0-.06,0a0,0,0,0,1,0-.06.56.56,0,0,1,.49.11,0,0,0,0,1,0,.07Z" transform="translate(0)"/><path class="cls-40" d="M63.62,33.4h0a0,0,0,0,1,0-.07.55.55,0,0,1,.51-.12.05.05,0,0,1,0,.07.06.06,0,0,1-.07,0,.45.45,0,0,0-.4.09Z" transform="translate(0)"/><path class="cls-22" d="M64.43,34.34a.55.55,0,0,1-.23-.07.06.06,0,0,1,0-.07.07.07,0,0,1,.07,0,.3.3,0,0,0,.34,0,.06.06,0,0,1,.07,0,0,0,0,0,1,0,.07A.44.44,0,0,1,64.43,34.34Z" transform="translate(0)"/><path class="cls-41" d="M65.84,38.4H63.35a1.89,1.89,0,0,0,.06-.18l0-.12A4,4,0,0,0,63.57,37a3.62,3.62,0,0,0-.18-1.06l.21-.08h0l.18-.06h0l.29.51.26.48A11.11,11.11,0,0,1,64.93,38l.06.18.09-.2a3.48,3.48,0,0,0,.06-1.69,3.27,3.27,0,0,0-.07-.34c0-.1,0-.17,0-.18h0l.09,0,.16,0h0l.2.06s0,.12.07.33.17.8.33,1.34a1.81,1.81,0,0,1,.05.31A1.16,1.16,0,0,1,65.84,38.4Z" transform="translate(0)"/><path class="cls-42" d="M64.57,36.31a1,1,0,0,1-.75-.6.05.05,0,0,1,0-.07,0,0,0,0,1,.06,0c.22.43.54.6.74.54s.26-.23.24-.52a0,0,0,0,1,.1,0c0,.33-.09.56-.31.62Z" transform="translate(0)"/><path class="cls-43" d="M63.53,38.4h-1a5.6,5.6,0,0,1,.27-2,1.23,1.23,0,0,1,.58-.54h0A6.1,6.1,0,0,1,63.53,38.4Z" transform="translate(0)"/><path class="cls-10" d="M64,34.54a.5.5,0,0,0,.31.31h0a.44.44,0,0,0,.3,0c.19-.07.33-.34.26-.33a2.56,2.56,0,0,1-.43,0C64,34.53,64,34.5,64,34.54Z" transform="translate(0)"/><path class="cls-44" d="M64,34.54a.51.51,0,0,0,.16.23.28.28,0,0,0,.15.08h0a.45.45,0,0,0,.3,0,.41.41,0,0,0,.13-.08c.12-.11.18-.26.13-.25h0a.72.72,0,0,1-.81,0h0S64,34.53,64,34.54Z" transform="translate(0)"/><path class="cls-45" d="M64.15,34.77a.28.28,0,0,0,.15.08h0a.45.45,0,0,0,.3,0,.41.41,0,0,0,.13-.08A.82.82,0,0,0,64.15,34.77Z" transform="translate(0)"/><path class="cls-46" d="M77.46,34.05H75.1a.55.55,0,0,1-.55-.55h0A.55.55,0,0,1,75.1,33h2.36a.55.55,0,0,1,.55.55h0A.55.55,0,0,1,77.46,34.05Z" transform="translate(0)"/><path class="cls-6" d="M77.72,8.6H75.09a.52.52,0,0,0-.53.46.52.52,0,0,0,.51.57h2.65a.52.52,0,0,0,.52-.52h0A.51.51,0,0,0,77.72,8.6Z" transform="translate(0)"/><path class="cls-6" d="M82.71,8.6H79.54a.52.52,0,0,0-.52.51h0a.52.52,0,0,0,.52.52h3.19a.52.52,0,0,0,.52-.57A.54.54,0,0,0,82.71,8.6Z" transform="translate(0)"/><rect class="cls-6" x="77.23" y="10.15" width="1.9" height="1.1" rx="0.52"/><path class="cls-6" d="M76.45,10.67a.52.52,0,0,0-.52-.52H75.1a.55.55,0,0,0-.55.55h0a.55.55,0,0,0,.55.55h.83a.52.52,0,0,0,.52-.52Z" transform="translate(0)"/><path class="cls-6" d="M81.54,10.15H80.43a.52.52,0,0,0-.52.52v.06a.52.52,0,0,0,.52.52h1.11a.56.56,0,0,0,.56-.55h0A.56.56,0,0,0,81.54,10.15Z" transform="translate(0)"/><path class="cls-46" d="M77.42,13H75.09a.52.52,0,1,0,0,1h2.35a.51.51,0,0,0,.51-.52h0A.51.51,0,0,0,77.42,13Z" transform="translate(0)"/><path class="cls-46" d="M80.67,13H79.23a.52.52,0,0,0-.52.51h0a.52.52,0,0,0,.52.52h1.46a.52.52,0,0,0,.52-.57A.53.53,0,0,0,80.67,13Z" transform="translate(0)"/><rect class="cls-46" x="78.14" y="15.09" width="1.71" height="1.1" rx="0.52"/><path class="cls-46" d="M76.84,15.09H75.13a.56.56,0,0,0-.57.49.54.54,0,0,0,.54.61h1.74a.52.52,0,0,0,.52-.52v-.06A.52.52,0,0,0,76.84,15.09Z" transform="translate(0)"/><path class="cls-46" d="M82.68,15.09H81.15a.52.52,0,0,0-.52.52v.06a.52.52,0,0,0,.52.52H82.7a.56.56,0,0,0,.55-.61A.57.57,0,0,0,82.68,15.09Z" transform="translate(0)"/><path class="cls-6" d="M78.76,19.7H75.09a.52.52,0,0,0-.53.47.52.52,0,0,0,.51.57h3.69a.52.52,0,0,0,.52-.52h0A.52.52,0,0,0,78.76,19.7Z" transform="translate(0)"/><path class="cls-6" d="M82.19,19.7H80.58a.52.52,0,0,0-.52.52h0a.52.52,0,0,0,.52.52h1.63a.52.52,0,0,0,.52-.57A.54.54,0,0,0,82.19,19.7Z" transform="translate(0)"/><path class="cls-46" d="M76.75,24.05H75.09a.52.52,0,0,0-.53.47.52.52,0,0,0,.51.57h1.68a.52.52,0,0,0,.52-.52h0A.52.52,0,0,0,76.75,24.05Z" transform="translate(0)"/><path class="cls-46" d="M81.56,24.05h-3a.52.52,0,0,0-.52.52h0a.52.52,0,0,0,.52.52h3a.52.52,0,0,0,.52-.57A.53.53,0,0,0,81.56,24.05Z" transform="translate(0)"/><path class="cls-6" d="M77.14,30.81h-2a.52.52,0,0,0-.53.47.51.51,0,0,0,.51.56h2.07a.51.51,0,0,0,.52-.51h0A.52.52,0,0,0,77.14,30.81Z" transform="translate(0)"/><path class="cls-6" d="M82.71,30.81H79a.52.52,0,0,0-.52.52h0a.51.51,0,0,0,.52.51h3.77a.51.51,0,0,0,.52-.56A.54.54,0,0,0,82.71,30.81Z" transform="translate(0)"/><path class="cls-46" d="M76.36,35.16H75.09a.52.52,0,0,0-.53.47.51.51,0,0,0,.51.56h1.29a.51.51,0,0,0,.52-.51h0A.52.52,0,0,0,76.36,35.16Z" transform="translate(0)"/><path class="cls-46" d="M81.56,35.16H78.18a.52.52,0,0,0-.52.52h0a.51.51,0,0,0,.52.51h3.4a.51.51,0,0,0,.52-.56A.53.53,0,0,0,81.56,35.16Z" transform="translate(0)"/><path class="cls-6" d="M77.46,41.92H75.09a.52.52,0,1,0,0,1h2.39a.51.51,0,0,0,.51-.52h0A.51.51,0,0,0,77.46,41.92Z" transform="translate(0)"/><path class="cls-6" d="M82.32,41.92h-3a.52.52,0,0,0-.52.51h0a.52.52,0,0,0,.52.52h3.07a.52.52,0,1,0,0-1Z" transform="translate(0)"/><path class="cls-6" d="M77.19,44a.51.51,0,0,0-.51-.52H75.1a.55.55,0,0,0-.55.55h0a.55.55,0,0,0,.55.55h1.58a.51.51,0,0,0,.51-.52Z" transform="translate(0)"/><path class="cls-6" d="M78.93,43.47h-.44A.52.52,0,0,0,78,44v.06a.52.52,0,0,0,.52.52h.44a.55.55,0,0,0,.55-.55h0A.55.55,0,0,0,78.93,43.47Z" transform="translate(0)"/><path class="cls-46" d="M77.46,46.26H75.09a.52.52,0,0,0-.53.47.52.52,0,0,0,.51.57h2.39a.51.51,0,0,0,.51-.52h0A.52.52,0,0,0,77.46,46.26Z" transform="translate(0)"/><path class="cls-46" d="M80.67,46.26h-1.4a.53.53,0,0,0-.52.52h0a.52.52,0,0,0,.52.52h1.42a.52.52,0,0,0,.52-.57A.54.54,0,0,0,80.67,46.26Z" transform="translate(0)"/><path class="cls-47" d="M71.32,11.76l-6.91-.71a.29.29,0,0,1-.25-.31h0a.28.28,0,0,1,.31-.26l6.91.71a.28.28,0,0,1,.26.31h0A.3.3,0,0,1,71.32,11.76Z" transform="translate(0)"/><path class="cls-47" d="M70.24,12.91,65,12.37a.28.28,0,0,1-.26-.31h0a.28.28,0,0,1,.32-.25l5.21.53a.28.28,0,0,1,.25.31h0A.29.29,0,0,1,70.24,12.91Z" transform="translate(0)"/><path class="cls-47" d="M66.7,32.51h4.92a.26.26,0,0,0,.26-.26h0a.26.26,0,0,0-.26-.25H66.7a.26.26,0,0,0-.26.25h0A.26.26,0,0,0,66.7,32.51Z" transform="translate(0)"/><path class="cls-47" d="M66.7,34.82h4.67a.26.26,0,0,0,.25-.26h0a.25.25,0,0,0-.25-.25H66.7a.25.25,0,0,0-.25.25h0A.26.26,0,0,0,66.7,34.82Z" transform="translate(0)"/><path class="cls-47" d="M66.72,33.61H70.4a.26.26,0,0,0,.26-.26h0a.25.25,0,0,0-.26-.25H66.72a.26.26,0,0,0-.26.25h0A.26.26,0,0,0,66.72,33.61Z" transform="translate(0)"/><rect class="cls-13" x="69.12" y="13.75" width="3.05" height="1.8"/><rect class="cls-13" x="69.12" y="24.89" width="3.05" height="1.8"/><rect class="cls-13" x="69.12" y="35.99" width="3.05" height="1.8"/><g class="cls-48"><rect class="cls-49" x="60.45" y="41.92" width="12.32" height="7.59" rx="3.8"/><path class="cls-50" d="M65,47.33a2.91,2.91,0,0,1,.14,1.91c-.08.15-.33.16-.33.16l-3.13.11s0-.22,0-.33a18.9,18.9,0,0,1,.06-3.68v-.06l.06-.15,0-.08,0,0v0l0,0,0,0L62,45v0a1.85,1.85,0,0,1,1.53-.63c1.35-.42,1.73.64,1.5,1.52a1.66,1.66,0,0,1-.12.31c-.17.38.25.73,0,.93C65,47.18,65,47.26,65,47.33Z" transform="translate(0)"/><path class="cls-51" d="M63.75,45.16s-.58-.39-1.33.3a.52.52,0,0,1-.66,0,1,1,0,0,1,.07-.21A2.14,2.14,0,0,1,62,45c.22.24.9-.3,1.42-.09C64.1,45.17,63.75,45.16,63.75,45.16Z" transform="translate(0)"/><path class="cls-52" d="M65.42,49.51H61.75a.88.88,0,0,1,.35-.24L63,49l1.12,0,.94.28A.78.78,0,0,1,65.42,49.51Z" transform="translate(0)"/><path class="cls-53" d="M63.18,47.4,63,49l.62.2.5-.23s0,0,0-.11v-.94Z" transform="translate(0)"/><path class="cls-54" d="M64.1,48.36v.5c-.58-.18-.94-.6-.95-.85Z" transform="translate(0)"/><path class="cls-55" d="M61.84,46.57a.24.24,0,0,1,.32-.18.66.66,0,0,1,.27.38c.11-.08.13-.34.12-.57a.58.58,0,0,1,.28-.52,1.36,1.36,0,0,0,.67-.91A1.2,1.2,0,0,1,65,45.87c0,.77,0,.62,0,1,0,.75-.33,1.58-1.15,1.61a1.62,1.62,0,0,1-1.57-1.17.22.22,0,0,1-.33,0A.81.81,0,0,1,61.84,46.57Z" transform="translate(0)"/><path class="cls-2" d="M63.37,47.52a.55.55,0,0,0,.53.43.53.53,0,0,0,.51-.49A2.93,2.93,0,0,1,63.37,47.52Z" transform="translate(0)"/><g class="cls-56"><path class="cls-57" d="M64.26,48c0-.18-.23-.31-.51-.3s-.48.18-.48.36.23.32.5.31S64.26,48.23,64.26,48Z" transform="translate(0)"/><path class="cls-10" d="M63.37,47.47a.61.61,0,0,0,.58.17c.27,0,.44-.13.41-.23A5.06,5.06,0,0,1,63.37,47.47Z" transform="translate(0)"/></g><path class="cls-58" d="M63,46.05a.05.05,0,0,1,0,0,.07.07,0,0,1,0-.09.79.79,0,0,1,.66-.11.06.06,0,1,1,0,.12A.65.65,0,0,0,63,46Z" transform="translate(0)"/><path class="cls-58" d="M64.92,46l0,0a.44.44,0,0,0-.46,0,.06.06,0,0,1-.08,0,.06.06,0,0,1,0-.08.55.55,0,0,1,.61.09S65,46,65,46Z" transform="translate(0)"/><path class="cls-8" d="M63.43,46.53c0-.1-.06-.18-.13-.18a.18.18,0,0,0-.13.18c0,.1.07.18.14.18A.17.17,0,0,0,63.43,46.53Z" transform="translate(0)"/><path class="cls-8" d="M64.67,46.49c0-.1-.06-.18-.14-.18a.17.17,0,0,0-.12.18c0,.1.06.18.13.18A.17.17,0,0,0,64.67,46.49Z" transform="translate(0)"/><path class="cls-22" d="M63.79,47.27a.06.06,0,0,1-.06-.06.07.07,0,0,1,.06-.07.47.47,0,0,0,.29-.08s.06,0,.09,0a.06.06,0,0,1,0,.09.64.64,0,0,1-.36.11Z" transform="translate(0)"/><path class="cls-59" d="M69.2,47.63a1.06,1.06,0,0,0,.12.93l.52-.21.6.18a1.69,1.69,0,0,0,.42-1l-1,0Z" transform="translate(0)"/><path class="cls-60" d="M70.86,47.55Z" transform="translate(0)"/><path class="cls-61" d="M72,48.69c-.11-.71-.61-1-1.3-1.19l-1.34.13a3.43,3.43,0,0,0-.74.28c-.53.43-.68.34-.67,1.6l4.11,0A2.68,2.68,0,0,0,72,48.69Z" transform="translate(0)"/><path class="cls-10" d="M69.77,46.72l-.11,2.46a.11.11,0,0,0,.11.12h0a.12.12,0,0,0,.13-.11L70,46.7Z" transform="translate(0)"/><path class="cls-62" d="M70.51,47.17l0-1.19-1.11.77c0,.12,0,.38,0,.57h0l0,.37a.74.74,0,0,1,.18,0l.32.77.21-.65a.33.33,0,0,1,.23-.21l.38-.08Z" transform="translate(0)"/><path class="cls-63" d="M69.38,47.24a1,1,0,0,0,1-.75l-1,.46Z" transform="translate(0)"/><path class="cls-64" d="M68.31,44.17c-.26-.34-.17-1.07.26-1,.23,0,.64.53.29.75A3.1,3.1,0,0,1,68.31,44.17Z" transform="translate(0)"/><path class="cls-65" d="M70.92,45.44c-.22-.19-.1-.52-.15-1s.11-.47-.75-.35-1.11-.15-1.37-.48c-.42-.57,0-1.05,1.12-1.18a1.36,1.36,0,0,1,1.53.84c.86.6.22,2,.22,2a1.52,1.52,0,0,1-.63,1Z" transform="translate(0)"/><path class="cls-66" d="M71.58,45a.21.21,0,0,0-.29-.16.62.62,0,0,0-.24.4c-.19-.11-.14-.42-.13-.82a.77.77,0,0,0-.45-.71c-.32-.13-1.15.38-1.82-.1-.12,0-.39.14-.37.91s0,.61,0,1c0,.75.44,1.56,1.25,1.54a1.6,1.6,0,0,0,1.49-1.27s.11.19.36-.09A.71.71,0,0,0,71.58,45Z" transform="translate(0)"/><path class="cls-32" d="M70.37,44.58h0a.69.69,0,0,0-.55-.06.08.08,0,0,1-.09,0,.07.07,0,0,1,0-.08.83.83,0,0,1,.67.07.08.08,0,0,1,0,.09Z" transform="translate(0)"/><path class="cls-32" d="M68.58,44.65h0a.07.07,0,0,1,0-.09.5.5,0,0,1,.55-.13.07.07,0,0,1,0,.08.07.07,0,0,1-.09,0,.34.34,0,0,0-.39.08A.07.07,0,0,1,68.58,44.65Z" transform="translate(0)"/><path class="cls-8" d="M70,45.09c0-.1,0-.18.12-.18s.13.07.14.17-.06.18-.13.18S70,45.18,70,45.09Z" transform="translate(0)"/><path class="cls-8" d="M68.71,45.13c0-.1.05-.18.12-.18s.13.07.14.17,0,.18-.12.18A.17.17,0,0,1,68.71,45.13Z" transform="translate(0)"/><path class="cls-22" d="M69.51,45.81a.63.63,0,0,1-.35-.12.06.06,0,1,1,.07-.1.58.58,0,0,0,.29.09.06.06,0,1,1,0,.12Z" transform="translate(0)"/><path class="cls-67" d="M68.65,43.6a1.34,1.34,0,0,1-.37-1s.89-.13,1.49-.16S68.65,43.6,68.65,43.6Z" transform="translate(0)"/><path class="cls-10" d="M69,46.06a.67.67,0,0,0,.37.39h0a.59.59,0,0,0,.37,0c.24-.09.42-.41.32-.4a4,4,0,0,1-.52,0C69,46.05,68.93,46,69,46.06Z" transform="translate(0)"/><path class="cls-68" d="M69,46.06a.66.66,0,0,0,.2.28.45.45,0,0,0,.17.11h0a.67.67,0,0,0,.37,0,.59.59,0,0,0,.17-.1c.14-.13.23-.31.15-.3h0a.86.86,0,0,1-1,0H69Z" transform="translate(0)"/><path class="cls-57" d="M69.15,46.34a.45.45,0,0,0,.17.11h0a.67.67,0,0,0,.37,0,.59.59,0,0,0,.17-.1A1,1,0,0,0,69.15,46.34Z" transform="translate(0)"/><polygon class="cls-69" points="70.08 47.66 70.34 47.55 70.52 47.93 69.84 48.42 70.08 47.66"/><path class="cls-10" d="M70.87,47.61a1.53,1.53,0,0,1-.37.66s-.31-.52-.39-.6h0a1.17,1.17,0,0,0,.43-.49l0,0a1.24,1.24,0,0,1,.18.14l.13.18A.22.22,0,0,1,70.87,47.61Z" transform="translate(0)"/><path class="cls-69" d="M69.84,48.42s-.5-.52-.5-.74.25,0,.25,0Z" transform="translate(0)"/><path class="cls-10" d="M69.39,47.32a2.69,2.69,0,0,0,.2.39h0a.07.07,0,0,0-.1,0l-.37.52a.73.73,0,0,1,0-.61C69.25,47.5,69.39,47.32,69.39,47.32Z" transform="translate(0)"/><rect class="cls-13" x="69.12" y="47" width="3.05" height="1.8"/></g><rect class="cls-13" x="1.22" y="1.18" width="83.87" height="5.1"/><rect class="cls-6" x="20.54" y="2.65" width="43.56" height="2" rx="1"/><rect class="cls-70" x="3.42" y="2.38" width="6.63" height="2.42" rx="1.21"/><circle class="cls-69" cx="82.01" cy="3.59" r="1.21"/><circle class="cls-69" cx="78.05" cy="3.59" r="1.21"/><circle class="cls-69" cx="74.1" cy="3.59" r="1.21"/><circle class="cls-6" cx="70.15" cy="3.59" r="1.21"/><rect class="cls-71" x="3.42" y="8.6" width="54.41" height="28.42"/><rect class="cls-10" x="3.42" y="33.79" width="54.41" height="0.91"/><rect class="cls-72" x="3.42" y="33.79" width="11.28" height="0.91"/><polygon class="cls-10" points="8.43 35.85 7.59 35.23 7.59 36.46 8.43 35.85"/><rect class="cls-10" x="8.43" y="35.24" width="0.2" height="1.3"/><rect class="cls-10" x="4.92" y="35.24" width="0.33" height="1.3"/><rect class="cls-10" x="5.49" y="35.24" width="0.33" height="1.3"/><path class="cls-10" d="M10.66,35.58h-.37a.11.11,0,0,0-.11.11v.36a.11.11,0,0,0,.11.1h.37l.35.26a.06.06,0,0,0,.1,0v-1a.06.06,0,0,0-.1-.05Z" transform="translate(0)"/><path class="cls-10" d="M11.37,36.37l-.06,0a.1.1,0,0,1,0-.14.54.54,0,0,0,.12-.34.5.5,0,0,0-.12-.34.1.1,0,0,1,0-.14.1.1,0,0,1,.14,0,.73.73,0,0,1,.17.47.71.71,0,0,1-.17.46A.09.09,0,0,1,11.37,36.37Z" transform="translate(0)"/><polygon class="cls-10" points="16.48 36.41 16.65 36.48 17.14 35.36 16.96 35.29 16.48 36.41"/><rect class="cls-73" x="49.38" y="33.79" width="8.45" height="0.91"/><ellipse class="cls-74" cx="5.65" cy="43.04" rx="2.24" ry="2.23"/><path class="cls-6" d="M15.78,40H3.94a.52.52,0,0,1-.52-.52h0A.52.52,0,0,1,3.94,39H15.78a.52.52,0,0,1,.52.52h0A.52.52,0,0,1,15.78,40Z" transform="translate(0)"/><path class="cls-6" d="M16.4,42.12H9.77a.42.42,0,0,1-.41-.41h0a.41.41,0,0,1,.41-.41H16.4a.41.41,0,0,1,.41.41h0A.42.42,0,0,1,16.4,42.12Z" transform="translate(0)"/><path class="cls-10" d="M18.48,36.26h-.55a.41.41,0,0,1-.41-.41h0a.41.41,0,0,1,.41-.41h.55a.41.41,0,0,1,.41.41h0A.41.41,0,0,1,18.48,36.26Z" transform="translate(0)"/><path class="cls-10" d="M20.3,36.26h-.55a.41.41,0,0,1-.42-.41h0a.41.41,0,0,1,.42-.41h.55a.41.41,0,0,1,.41.41h0A.41.41,0,0,1,20.3,36.26Z" transform="translate(0)"/><path class="cls-10" d="M15.63,36.26h-.54a.41.41,0,0,1-.42-.41h0a.41.41,0,0,1,.42-.41h.54a.41.41,0,0,1,.42.41h0A.41.41,0,0,1,15.63,36.26Z" transform="translate(0)"/><path class="cls-46" d="M16.4,43.53H9.77a.42.42,0,0,1-.41-.41h0a.41.41,0,0,1,.41-.41H16.4a.41.41,0,0,1,.41.41h0A.42.42,0,0,1,16.4,43.53Z" transform="translate(0)"/><path class="cls-46" d="M57.42,39.88H54.89a.41.41,0,0,1-.41-.41h0a.41.41,0,0,1,.41-.41h2.53a.41.41,0,0,1,.41.41h0A.41.41,0,0,1,57.42,39.88Z" transform="translate(0)"/><path class="cls-46" d="M52.67,39.88H51.35a.41.41,0,0,1-.41-.41h0a.41.41,0,0,1,.41-.41h1.32a.41.41,0,0,1,.41.41h0A.41.41,0,0,1,52.67,39.88Z" transform="translate(0)"/><path class="cls-46" d="M49.72,39.88H46.21a.41.41,0,0,1-.41-.41h0a.41.41,0,0,1,.41-.41h3.51a.41.41,0,0,1,.41.41h0A.41.41,0,0,1,49.72,39.88Z" transform="translate(0)"/><rect class="cls-17" x="48.6" y="41.33" width="9.24" height="2.25" rx="1.13"/><path class="cls-10" d="M53.1,42.87H49.94a.41.41,0,0,1-.41-.41h0a.41.41,0,0,1,.41-.41H53.1a.41.41,0,0,1,.41.41h0A.41.41,0,0,1,53.1,42.87Z" transform="translate(0)"/><path class="cls-10" d="M56.34,42.87H54.53a.41.41,0,0,1-.42-.41h0a.41.41,0,0,1,.42-.41h1.81a.41.41,0,0,1,.41.41h0A.41.41,0,0,1,56.34,42.87Z" transform="translate(0)"/><rect class="cls-69" x="3.42" y="47.05" width="17.65" height="1.27"/><rect class="cls-69" x="22.98" y="47.05" width="17.65" height="1.27"/><path class="cls-10" d="M14.4,21.26v-.38a6.23,6.23,0,0,1,.41-.71,30.39,30.39,0,0,1,3.5-3.76,23.35,23.35,0,0,1,7.44-4.76,13.68,13.68,0,0,1,5.8-.91,15.8,15.8,0,0,1,6.8,2.19,29,29,0,0,1,8.12,7.12,7.67,7.67,0,0,1,.51.83v.38a6.17,6.17,0,0,1-.42.7,29.65,29.65,0,0,1-3.49,3.77,23.64,23.64,0,0,1-7.45,4.76,13.6,13.6,0,0,1-5.79.9A15.62,15.62,0,0,1,23,29.2,28.87,28.87,0,0,1,14.85,22,7.09,7.09,0,0,1,14.4,21.26ZM16.83,21a4.49,4.49,0,0,0,.29.35c1,1,1.94,2.08,3,3A19.63,19.63,0,0,0,27,28.64a11,11,0,0,0,4.82.57,14.4,14.4,0,0,0,5.84-2.09,26.74,26.74,0,0,0,6.18-5.24c.24-.26.47-.54.72-.83-.62-.68-1.21-1.35-1.84-2a23.05,23.05,0,0,0-7.18-5.14,12.19,12.19,0,0,0-4.33-1.06,12.65,12.65,0,0,0-6.46,1.58,24,24,0,0,0-6,4.54C18.08,19.65,17.47,20.35,16.83,21Z" transform="translate(0)"/><path class="cls-10" d="M24.25,21a6.44,6.44,0,1,1,6.39,6.45A6.42,6.42,0,0,1,24.25,21Zm10.73,0a4.3,4.3,0,1,0-4.28,4.28A4.3,4.3,0,0,0,35,21.07Z" transform="translate(0)"/></g></g></svg>