<svg xmlns="http://www.w3.org/2000/svg" viewBox="0 0 183.63 109.77"><defs><style>.cls-1{isolation:isolate;}.cls-2{fill:#e51a25;}.cls-3{fill:#5da327;opacity:0.1;}.cls-3,.cls-6{mix-blend-mode:multiply;}.cls-4{fill:#cf9f34;}.cls-5{fill:#edb93c;}.cls-6{fill:#527574;opacity:0.2;}.cls-7{fill:#e17575;}.cls-8{fill:#ceedf2;}</style></defs><title>Векторный смарт-объект</title><g class="cls-1"><g id="OBJECTS"><rect class="cls-2" x="0.01" width="183.63" height="109.76" rx="6.78"/><path class="cls-3" d="M272.46,181H102.4a6.77,6.77,0,0,0-6.78,6.78v71.75c18.4,11.3,51.9,23.16,95.44,1.21,42.28-21.33,71.82-19.16,88.18-15.37V187.77A6.77,6.77,0,0,0,272.46,181Z" transform="translate(-95.61 -180.99)"/><path class="cls-3" d="M272.46,181H102.4a6.77,6.77,0,0,0-6.78,6.78v57.44c18.4,11.29,51.9,27.36,95.44,5.41,42.28-21.33,71.82-15.48,88.18-11.69V187.77A6.77,6.77,0,0,0,272.46,181Z" transform="translate(-95.61 -180.99)"/><path class="cls-3" d="M272.46,181H102.4a6.77,6.77,0,0,0-6.78,6.78v41.58c18.4,11.29,51.9,33.17,95.44,11.22,42.28-21.33,71.82-12,88.18-8.18V187.77A6.77,6.77,0,0,0,272.46,181Z" transform="translate(-95.61 -180.99)"/><path class="cls-4" d="M137.68,255h-21a3.31,3.31,0,0,0-3.32,3.32v20.95a3.32,3.32,0,0,0,3.32,3.32h21a3.32,3.32,0,0,0,3.32-3.32V258.36A3.32,3.32,0,0,0,137.68,255Z" transform="translate(-95.61 -180.99)"/><rect class="cls-5" x="19.83" y="76.09" width="23.52" height="23.52" rx="2.83"/><rect class="cls-4" x="19.83" y="83.17" width="23.52" height="0.68"/><rect class="cls-4" x="19.83" y="91.85" width="23.52" height="0.68"/><rect class="cls-4" x="126.87" y="268.5" width="9.36" height="0.68" transform="translate(304.77 -43.7) rotate(90)"/><rect class="cls-4" x="118.18" y="268.5" width="9.36" height="0.68" transform="translate(296.09 -35.02) rotate(90)"/><rect class="cls-4" x="123.55" y="260.39" width="7.3" height="0.68" transform="translate(292.32 -47.47) rotate(90)"/><rect class="cls-4" x="123.55" y="276.6" width="7.3" height="0.68" transform="translate(308.54 -31.25) rotate(90)"/><path class="cls-6" d="M269.76,267.47c-81.6,0-150.44-35.78-171.94-84.69a6.74,6.74,0,0,0-2.21,5h0V284a6.78,6.78,0,0,0,6.78,6.78H272.46a6.78,6.78,0,0,0,6.78-6.78V267.31Q274.53,267.48,269.76,267.47Z" transform="translate(-95.61 -180.99)"/><circle class="cls-7" cx="149.26" cy="94.28" r="8.24"/><circle class="cls-8" cx="138.4" cy="94.28" r="8.24"/><path class="cls-8" d="M242.57,270.1h-6.46a.51.51,0,0,1-.51-.51h0a.51.51,0,0,1,.51-.52h6.46a.52.52,0,0,1,.52.52h0A.51.51,0,0,1,242.57,270.1Z" transform="translate(-95.61 -180.99)"/><path class="cls-7" d="M242.57,271.12h-6.46a.51.51,0,0,1-.51-.51h0a.51.51,0,0,1,.51-.51h6.46a.51.51,0,0,1,.52.51h0A.51.51,0,0,1,242.57,271.12Z" transform="translate(-95.61 -180.99)"/><path class="cls-8" d="M242.57,272.15h-6.46a.51.51,0,0,1-.51-.51h0a.51.51,0,0,1,.51-.52h6.46a.52.52,0,0,1,.52.52h0A.51.51,0,0,1,242.57,272.15Z" transform="translate(-95.61 -180.99)"/><path class="cls-7" d="M242.57,273.17h-6.46a.51.51,0,0,1-.51-.51h0a.51.51,0,0,1,.51-.51h6.46a.51.51,0,0,1,.52.51h0A.51.51,0,0,1,242.57,273.17Z" transform="translate(-95.61 -180.99)"/><path class="cls-8" d="M242.57,274.2h-6.46a.51.51,0,0,1-.51-.51h0a.51.51,0,0,1,.51-.52h6.46a.52.52,0,0,1,.52.52h0A.51.51,0,0,1,242.57,274.2Z" transform="translate(-95.61 -180.99)"/><path class="cls-7" d="M242.57,275.23h-6.46a.51.51,0,0,1-.51-.52h0a.51.51,0,0,1,.51-.51h6.46a.51.51,0,0,1,.52.51h0A.52.52,0,0,1,242.57,275.23Z" transform="translate(-95.61 -180.99)"/><path class="cls-8" d="M242.57,276.25h-6.46a.51.51,0,0,1-.51-.51h0a.51.51,0,0,1,.51-.51h6.46a.51.51,0,0,1,.52.51h0A.51.51,0,0,1,242.57,276.25Z" transform="translate(-95.61 -180.99)"/><path class="cls-7" d="M242.57,277.28h-6.46a.51.51,0,0,1-.51-.52h0a.51.51,0,0,1,.51-.51h6.46a.51.51,0,0,1,.52.51h0A.52.52,0,0,1,242.57,277.28Z" transform="translate(-95.61 -180.99)"/><path class="cls-8" d="M242.57,278.3h-6.46a.51.51,0,0,1-.51-.51h0a.51.51,0,0,1,.51-.51h6.46a.51.51,0,0,1,.52.51h0A.51.51,0,0,1,242.57,278.3Z" transform="translate(-95.61 -180.99)"/><path class="cls-7" d="M242.57,279.33h-6.46a.51.51,0,0,1-.51-.51h0a.51.51,0,0,1,.51-.52h6.46a.52.52,0,0,1,.52.52h0A.51.51,0,0,1,242.57,279.33Z" transform="translate(-95.61 -180.99)"/><path class="cls-8" d="M242.57,280.35h-6.46a.51.51,0,0,1-.51-.51h0a.51.51,0,0,1,.51-.51h6.46a.51.51,0,0,1,.52.51h0A.51.51,0,0,1,242.57,280.35Z" transform="translate(-95.61 -180.99)"/><path class="cls-7" d="M242.57,281.38h-6.46a.51.51,0,0,1-.51-.51h0a.51.51,0,0,1,.51-.52h6.46a.52.52,0,0,1,.52.52h0A.51.51,0,0,1,242.57,281.38Z" transform="translate(-95.61 -180.99)"/></g></g></svg>