<svg id="Layer_1" data-name="Layer 1" xmlns="http://www.w3.org/2000/svg" viewBox="0 0 32 32"><defs><style>.cls-1{fill:#fd8469;}.cls-2{fill:#324a5e;}.cls-3{fill:#e6e9ee;}.cls-4{fill:#ffd05b;}.cls-5{fill:#f9b54c;}.cls-6{fill:#fff;}.cls-7{fill:#f1543f;}.cls-8{fill:#ff7058;}</style></defs><title>Author</title><circle class="cls-1" cx="16" cy="16" r="16"/><path class="cls-2" d="M21.64,11.29a6.16,6.16,0,1,0-11.31,0Z"/><path class="cls-3" d="M28.65,25.8h0a16,16,0,0,1-25.27.05h0s0,0,0-.05C4.61,22.27,7,22,7,22a18.48,18.48,0,0,0,5.65-4.16h6.8A18.24,18.24,0,0,0,25.05,22S27.39,22.27,28.65,25.8Z"/><path class="cls-4" d="M19.17,15.5H12.83l-.08.9h0l-.08,1a1.46,1.46,0,0,1-.1.45h0a2.87,2.87,0,0,0,2.8,2.34h1.21a2.84,2.84,0,0,0,2.8-2.34h0a2.42,2.42,0,0,1-.1-.45Z"/><path class="cls-5" d="M19.17,15.5H12.83l-.06.55c1.74,4.51,6.63,1.84,6.63,1.84a3.63,3.63,0,0,1-.1-.45Z"/><path class="cls-2" d="M16,14c-1-.5-1.39,1-2.92.15,0,0,.63,1.69,2.92.68,2.32,1,2.92-.68,2.92-.68C17.39,15,17,13.51,16,14Z"/><path class="cls-2" d="M24.44,29.61h0a16.1,16.1,0,0,1-16.88,0h0C8.59,26.63,7,22,7,22H7a20.11,20.11,0,0,0,3.91-2.49L16,28.37s5.14-8.72,5.14-8.84A19.51,19.51,0,0,0,25.05,22S23.41,26.61,24.44,29.61Z"/><path class="cls-3" d="M4.89,23.21A5,5,0,0,0,4,24.39,5.65,5.65,0,0,1,4.89,23.21Z"/><path class="cls-6" d="M19.35,17.66s-.23,1.31-3.3,2.65c0,0,2.27,1.38,2.7,2.54,0,0,1.84-2.06,1.91-3.75A9.68,9.68,0,0,1,19.35,17.66Z"/><path class="cls-6" d="M12.65,17.66S12.88,19,16,20.31c0,0-2.27,1.38-2.7,2.54,0,0-1.84-2.06-1.91-3.75A9.68,9.68,0,0,0,12.65,17.66Z"/><path class="cls-7" d="M18.65,20.79c0,.6-.08,1.11-.68,1.11s-2-.51-2-1.11,1.44-1.11,2-1.11S18.65,20.18,18.65,20.79Z"/><path class="cls-7" d="M13.23,20.79c0,.6.07,1.11.68,1.11s2-.51,2-1.11-1.44-1.11-2-1.11S13.23,20.18,13.23,20.79Z"/><circle class="cls-8" cx="15.92" cy="20.79" r="0.66"/><path class="cls-2" d="M21.49,9.88a.88.88,0,0,0-.15,0A.3.3,0,0,1,21.49,9.88Z"/><path class="cls-2" d="M21.52,9.85l.15,0Z"/><path class="cls-2" d="M21.14,10.05a.81.81,0,0,1,.18-.1.33.33,0,0,0-.18.1Z"/><path class="cls-2" d="M21.85,9.85a.44.44,0,0,0-.16,0A.44.44,0,0,0,21.85,9.85Z"/><path class="cls-2" d="M10.15,9.85a.44.44,0,0,1,.16,0A.44.44,0,0,1,10.15,9.85Z"/><path class="cls-2" d="M10.33,9.83a.39.39,0,0,1,.15,0Z"/><path class="cls-4" d="M22.05,10h0c-.36-.5-.91.05-.91.05a2.55,2.55,0,0,0-.18,1,2.06,2.06,0,0,1-.07-1.21,2.93,2.93,0,0,1-1-3.66h0A12,12,0,0,1,11.16,10a2.22,2.22,0,0,1-.12,1,2.49,2.49,0,0,0-.18-1h0c-.6-.51-.91,0-.91,0h0a1.85,1.85,0,0,0,0,1.82c.36.83,1,1.31,1.46,1.08.84,2.55,2.57,4.76,4.59,4.76s3.75-2.21,4.61-4.76c.43.23,1.08-.25,1.46-1.08A1.85,1.85,0,0,0,22.05,10Z"/></svg>