<svg id="Capa_1" data-name="Capa 1" xmlns="http://www.w3.org/2000/svg" viewBox="0 0 52 52"><defs><style>.cls-1{fill:#ececf1;}.cls-2{fill:#32ddf9;}.cls-3{fill:#00c0f1;}.cls-4{fill:#575f64;}.cls-5{fill:#32393f;}.cls-6{fill:#009ae4;}.cls-7{fill:#d8d8fc;}.cls-8{fill:#f2f2fc;}</style></defs><title>Cart</title><path class="cls-1" d="M52,26A26,26,0,1,1,26,0,26,26,0,0,1,52,26Zm0,0" transform="translate(0 0)"/><rect class="cls-2" x="16.28" y="17.58" width="23.21" height="14.98"/><rect class="cls-3" x="27.42" y="17.58" width="12.07" height="14.98"/><path class="cls-4" d="M34.84,36.27v1.86H15.35V12H11.51V10.15H17.2V36.27Zm0,0" transform="translate(0 0)"/><rect class="cls-5" x="27.42" y="36.28" width="7.43" height="1.86"/><rect class="cls-3" x="20.92" y="21.3" width="1.86" height="7.55"/><rect class="cls-3" x="26.49" y="21.3" width="1.86" height="7.55"/><rect class="cls-6" x="32.06" y="22.66" width="1.86" height="6.18"/><rect class="cls-6" x="27.42" y="21.3" width="0.93" height="7.55"/><path class="cls-5" d="M34.84,41.84a2.79,2.79,0,1,1,2.79-2.78,2.79,2.79,0,0,1-2.79,2.78Zm0,0" transform="translate(0 0)"/><path class="cls-4" d="M21.84,41.84a2.79,2.79,0,1,1,2.79-2.78,2.79,2.79,0,0,1-2.79,2.78Zm0,0" transform="translate(0 0)"/><path class="cls-7" d="M34.84,38.13a.93.93,0,1,0,.93.93.93.93,0,0,0-.93-.93Zm0,0" transform="translate(0 0)"/><path class="cls-8" d="M21.84,38.13a.93.93,0,1,0,.93.93.92.92,0,0,0-.93-.93Zm0,0" transform="translate(0 0)"/></svg>