<svg id="Layer_1" data-name="Layer 1" xmlns="http://www.w3.org/2000/svg" viewBox="0 0 32 32"><defs><style>.cls-1{fill:#fd8469;}.cls-2{fill:#fff;}.cls-3{fill:#4cdbc4;}.cls-4{fill:#324a5e;}.cls-5{fill:#ced5e0;}.cls-6{fill:#ff7058;}</style></defs><title>data</title><circle class="cls-1" cx="16" cy="16" r="16"/><path class="cls-2" d="M24.31,8.29H7.69A1.08,1.08,0,0,0,6.6,9.37V22.83a1.08,1.08,0,0,0,1.09,1.08H24.31a1.08,1.08,0,0,0,1.09-1.08V9.37A1.12,1.12,0,0,0,24.31,8.29Z"/><path class="cls-3" d="M25.37,12.45V9.37a1.08,1.08,0,0,0-1.08-1.08H7.69A1.08,1.08,0,0,0,6.6,9.37v3.08Z"/><path class="cls-4" d="M10.83,10.38h0a.68.68,0,0,1-.68-.68V6.85a.69.69,0,0,1,.68-.68h0a.68.68,0,0,1,.68.68V9.7A.67.67,0,0,1,10.83,10.38Z"/><path class="cls-4" d="M21.17,10.38h0a.67.67,0,0,1-.68-.68V6.85a.68.68,0,0,1,.68-.68h0a.69.69,0,0,1,.68.68V9.7A.69.69,0,0,1,21.17,10.38Z"/><rect class="cls-5" x="13.03" y="13.93" width="1.89" height="1.89"/><rect class="cls-5" x="17.08" y="13.93" width="1.89" height="1.89"/><rect class="cls-5" x="21.17" y="13.93" width="1.89" height="1.89"/><rect class="cls-5" x="8.94" y="17.11" width="1.89" height="1.89"/><rect class="cls-5" x="13.03" y="17.11" width="1.89" height="1.89"/><rect class="cls-5" x="17.08" y="17.11" width="1.89" height="1.89"/><rect class="cls-6" x="21.17" y="17.11" width="1.89" height="1.89"/><rect class="cls-5" x="8.94" y="20.28" width="1.89" height="1.89"/><rect class="cls-5" x="13.03" y="20.28" width="1.89" height="1.89"/><rect class="cls-5" x="17.08" y="20.28" width="1.89" height="1.89"/></svg>