<svg id="Layer_1" data-name="Layer 1" xmlns="http://www.w3.org/2000/svg" viewBox="0 0 32 32"><defs><style>.cls-1{fill:#fd8469;}.cls-2{fill:#324a5e;}.cls-3{fill:#edf2f2;}.cls-4{fill:#fff;}.cls-5{fill:#e6e9ee;}.cls-6{fill:#2b3b4e;}</style></defs><title>Email</title><circle class="cls-1" cx="16" cy="16" r="16"/><path class="cls-2" d="M25.74,13.2,16,19.28,6.27,13.2V24.58a.79.79,0,0,0,.79.79l17.88,0a.79.79,0,0,0,.79-.79Z"/><path class="cls-3" d="M16.61,6.84a1.19,1.19,0,0,0-1.37,0l-9,6.36L16,19.28l9.72-6.08h0Z"/><path class="cls-3" d="M25.74,13.2l-2.69,1.68-7,4.4L9,14.88,6.27,13.2,9,11.3l2.92-2.07,3.38-2.39a1.17,1.17,0,0,1,1.36,0l3.44,2.39,3,2.1Z"/><polygon class="cls-4" points="23.05 9.23 23.05 14.88 16.01 19.29 8.95 14.88 8.95 9.23 23.05 9.23"/><rect class="cls-5" x="10.53" y="11.38" width="10.95" height="0.75"/><rect class="cls-5" x="10.53" y="13.34" width="9.93" height="0.75"/><path class="cls-6" d="M25.45,25.18a.76.76,0,0,1-.51.18H7.07a.78.78,0,0,1-.51-.18L16,19.29Z"/></svg>