<svg id="Layer_1" data-name="Layer 1" xmlns="http://www.w3.org/2000/svg" viewBox="0 0 32 32"><defs><style>.cls-1{fill:#324a5e;}.cls-2{fill:#fff;}.cls-3{fill:#4cdbc4;}.cls-4{fill:#84dbff;}.cls-5{fill:#e6e9ee;}.cls-6{fill:#ffd05b;}.cls-7{fill:#ff7058;}</style></defs><title>Addres</title><circle class="cls-1" cx="16" cy="16" r="16"/><path class="cls-2" d="M24.67,6.15H7.33A1.18,1.18,0,0,0,6.15,7.33V24.64a1.18,1.18,0,0,0,1.18,1.19H24.64a1.19,1.19,0,0,0,1.19-1.19V7.33A1.15,1.15,0,0,0,24.67,6.15Z"/><path class="cls-3" d="M25.52,6.53l-4.1,7.33-8-4.74,1.66-3h9.65a.3.3,0,0,1,.13,0h.05a1.24,1.24,0,0,1,.65.36Z"/><path class="cls-4" d="M14.79,6.15,9.3,16.55,6.15,14.11V7.33A1.18,1.18,0,0,1,7.33,6.15Z"/><path class="cls-5" d="M25.85,7.91l-5.11,8.92,5.11,3V22l-6.07-3.48-4.23,7.36h-2.2L20,14.29l-6.3-3.63L6.15,23.79V20L14.09,6.15h2.19L14.64,9l6.3,3.62,3.73-6.47h0a.25.25,0,0,1,.12,0h.05a1.19,1.19,0,0,1,.61.33l.07.08a.21.21,0,0,1,.08.1.11.11,0,0,1,.05.1.72.72,0,0,1,.1.22s0,.08,0,.11,0,.07,0,.12v.68Z"/><polygon class="cls-6" points="22.93 25.85 19.15 25.85 6.15 15.29 6.15 12.22 22.93 25.85"/><path class="cls-7" d="M20,11.44c0,2-3.63,7.61-3.63,7.61s-3.61-5.62-3.61-7.61A3.64,3.64,0,0,1,16.4,7.81,3.59,3.59,0,0,1,20,11.44Z"/><circle class="cls-2" cx="16.38" cy="11.44" r="1.94"/></svg>