<?xml version="1.0" encoding="utf-8"?>
<!-- Generator: Adobe Illustrator 23.0.3, SVG Export Plug-In . SVG Version: 6.00 Build 0)  -->
<svg version="1.1" id="Слой_1" xmlns="http://www.w3.org/2000/svg" xmlns:xlink="http://www.w3.org/1999/xlink" x="0px" y="0px"
	 viewBox="0 0 729.74 196.73" style="enable-background:new 0 0 729.74 196.73;" xml:space="preserve">
<style type="text/css">
	.st0{fill:#202127;stroke:#202127;stroke-miterlimit:10;}
	.st1{fill:#C80A14;}
	.st2{fill:#E30506;}
	.st3{fill:#B9464C;}
	.st4{fill:#76B727;}
	.st5{fill:#A20810;}
	.st6{fill:#D7DCE2;}
	.st7{fill:#D6474F;}
	.st8{fill:#F07B7C;}
	.st9{fill:#578D00;}
	.st10{fill:#313131;}
	.st11{fill:#E27E83;}
</style>
<g>
	<g>
		<path class="st0" d="M257.61,107.27h4.71v0.25c0,3.56,1.35,6.42,4.05,8.58c2.7,2.15,6.3,3.23,10.79,3.23
			c4.45,0,7.98-0.87,10.6-2.61c2.62-1.74,3.92-4.08,3.92-7.01c0-2.24-0.75-3.93-2.26-5.08c-1.51-1.15-4.65-2.16-9.41-3.02
			l-9.97-1.74c-3.71-0.63-6.49-1.92-8.32-3.86c-1.84-1.94-2.75-4.55-2.75-7.82c0-4.11,1.6-7.4,4.81-9.86
			c3.21-2.46,7.54-3.69,13-3.69c5.65,0,10.1,1.27,13.34,3.81c3.24,2.54,4.93,6.07,5.08,10.58h-4.68c-0.3-3.29-1.6-5.79-3.91-7.51
			c-2.31-1.72-5.54-2.58-9.7-2.58c-4.05,0-7.26,0.81-9.62,2.42c-2.36,1.61-3.54,3.8-3.54,6.57c0,2.19,0.82,3.88,2.47,5.05
			c1.65,1.17,4.71,2.15,9.21,2.93l8.89,1.55c4.26,0.76,7.38,2.1,9.35,4.02c1.97,1.92,2.96,4.6,2.96,8.04
			c0,4.51-1.67,8.04-5.02,10.58c-3.34,2.54-8,3.81-13.97,3.81c-6.22,0-11.12-1.42-14.68-4.27c-3.56-2.85-5.35-6.74-5.35-11.68
			V107.27z"/>
		<path class="st0" d="M309.26,122.68v-46.8h7.47l19.74,42.46l20.03-42.46h6.87v46.8h-4.59l0.19-42.78l-19.84,42.78h-5.38
			L313.4,79.9l0.47,42.78H309.26z"/>
		<path class="st0" d="M377.74,122.68v-46.8h7.47l19.74,42.46l20.03-42.46h6.87v46.8h-4.59l0.19-42.78l-19.84,42.78h-5.38
			L381.89,79.9l0.47,42.78H377.74z"/>
		<path class="st0" d="M470.42,122.68v-46.8h22.75c4.83,0,8.49,1,10.98,2.99c2.49,1.99,3.73,4.93,3.73,8.81
			c0,2.49-0.61,4.59-1.82,6.3s-3.05,3.05-5.52,4.02c2.95,0.57,5.21,1.8,6.76,3.7c1.55,1.9,2.33,4.36,2.33,7.37
			c0,4.64-1.34,8.07-4.03,10.28s-6.85,3.32-12.48,3.32H470.42z M475.16,95.97h16.58c4.11,0,7.03-0.61,8.75-1.83s2.58-3.25,2.58-6.08
			c0-2.78-0.84-4.79-2.53-6.03c-1.69-1.23-4.47-1.85-8.35-1.85h-17.02V95.97z M475.16,118.03h17.5c4.26,0,7.35-0.67,9.25-2.03
			c1.91-1.35,2.86-3.51,2.86-6.49c0-3.25-0.89-5.62-2.66-7.1c-1.77-1.49-4.59-2.23-8.45-2.23h-18.51V118.03z"/>
		<path class="st0" d="M516.69,122.68l21.58-46.8h5.38l21.33,46.8h-4.71l-6.55-14.46h-25.6l-6.61,14.46H516.69z M530.17,103.69
			h21.45l-10.69-23.92L530.17,103.69z"/>
		<path class="st0" d="M574.32,122.68v-46.8h5.95l32.75,41.99V75.88h4.52v46.8h-6.23l-32.46-41.99v41.99H574.32z"/>
		<path class="st0" d="M648.92,75.88c5.32,0,9.36,0.33,12.12,0.98c2.76,0.65,5.16,1.76,7.18,3.32c2.49,1.94,4.34,4.48,5.55,7.63
			s1.82,6.97,1.82,11.49c0,4.51-0.61,8.34-1.83,11.49c-1.22,3.14-3.11,5.71-5.66,7.69c-1.96,1.52-4.32,2.6-7.07,3.24
			s-6.79,0.96-12.1,0.96h-17.05v-46.8H648.92z M647.87,80.09h-11.33v38.13h12.37c4.09,0,7.27-0.23,9.54-0.7s4.2-1.23,5.81-2.31
			c2.24-1.48,3.89-3.53,4.95-6.15c1.06-2.63,1.6-6,1.6-10.11c0-3.9-0.54-7.16-1.61-9.78c-1.08-2.62-2.72-4.66-4.94-6.14
			c-1.6-1.05-3.57-1.81-5.89-2.26C656.06,80.32,652.55,80.09,647.87,80.09z"/>
		<path class="st0" d="M681.46,122.68l21.58-46.8h5.38l21.33,46.8h-4.71l-6.55-14.46h-25.6l-6.61,14.46H681.46z M694.94,103.69
			h21.45l-10.69-23.92L694.94,103.69z"/>
	</g>
</g>
<g>
	<path class="st1" d="M112.37,0.11c1.52-0.22,3.05-0.08,4.57-0.09c4.54-0.01,9.09-0.16,13.61,0.35c7.96,0.89,15.6,2.99,22.89,6.33
		c2.56,1.17,5.09,2.38,7.46,3.91c-0.09,0.48-0.48,0.74-0.79,1.05c-14.48,14.49-28.96,28.97-43.45,43.46
		c-0.34,0.34-0.69,0.68-1.16,0.86c-6.35,0.19-12.52,1.27-18.35,3.9c-8.42,3.81-14.53,10.03-18.86,18.1
		c-3.36,6.26-5.36,12.95-6.46,19.95c-0.12,0.79-0.02,1.63-0.39,2.39c-9.04,9.09-18.12,18.13-27.18,27.2
		c-0.24,0.24-0.45,0.5-0.79,0.61c-0.11,0.01-0.21-0.02-0.31-0.08c-1.15-1.9-2.21-3.86-3.25-5.82c-3.38-6.53-6.23-13.29-8.47-20.3
		c-0.41-1.33-0.87-2.64-1.31-3.95c-0.04-0.11-0.08-0.22-0.1-0.33c-1-3.41-1.96-6.83-2.83-10.28c-0.15-0.6-0.41-1.2-0.26-1.85
		c0.15-0.49,0.55-0.79,0.89-1.13C55.6,56.6,83.37,28.83,111.14,1.06C111.51,0.69,111.89,0.34,112.37,0.11z"/>
	<path class="st2" d="M112.37,0.11c-0.27,0.3-0.53,0.62-0.81,0.91C83.74,28.84,55.93,56.65,28.11,84.46
		c-0.31,0.31-0.67,0.58-1.01,0.87c-0.65-0.25-0.62-0.89-0.74-1.4c-1.64-7-3-14.06-4.02-21.18c-0.65-4.57-1.32-9.14-1.72-13.74
		c-0.4-4.52-0.78-9.04-1.02-13.58c-0.25-4.64-0.56-9.28-0.61-13.93c-0.01-0.6-0.02-1.2,0.34-1.72c7.03-7.14,15.13-12.57,24.63-15.94
		C48.87,2.09,53.88,1.04,59,0.35c1.71-0.23,3.46-0.27,5.19-0.28c15.84-0.02,31.67-0.01,47.51-0.01
		C111.93,0.06,112.15,0.09,112.37,0.11z"/>
	<path class="st3" d="M43.28,128c0.07,0.01,0.13,0.01,0.2,0.02c0.45,0.14,0.57,0.56,0.77,0.91c5.27,8.97,11.31,17.41,17.46,25.78
		c4.69,6.39,9.4,12.76,13.93,19.27c0.19,0.28,0.37,0.56,0.68,0.72c0.98,1.26,1.29,2.82,1.94,4.24c2.73,5.97,6.11,11.49,10.83,16.12
		c0.37,0.36,0.8,0.68,0.99,1.19c0.02,0.11,0,0.22-0.06,0.32c-2.34,0.21-4.68-0.03-7.01-0.16c-6.01-0.34-11.96-1.19-17.8-2.64
		c-14.76-3.67-27.75-10.57-38.72-21.18c-4.57-4.42-8.55-9.31-12.04-14.61c-0.12-0.18-0.2-0.39-0.3-0.58
		c-0.15-0.65,0.41-0.91,0.76-1.26c9.1-9.12,18.21-18.23,27.33-27.34C42.54,128.49,42.8,128.1,43.28,128z"/>
	<path class="st4" d="M90.02,196.57c-0.04-0.12-0.09-0.24-0.13-0.37c0.05-0.11,0.11-0.21,0.16-0.32c2.52-4.13,6.19-6.98,10.4-9.22
		c5.38-2.87,11.2-4.43,17.11-5.69c6.89-1.47,13.88-2.26,20.86-3.13c9.41-1.18,18.88-2.04,28.1-4.4c4.75-1.22,9.34-2.85,13.26-5.94
		c2.63-2.07,4.44-4.68,5.24-7.96c9.41-6.9,14.28-16.61,17.01-27.62c0.69-2.78,1.13-5.6,1.52-8.44c0.35,2.16,0.28,4.33,0.29,6.49
		c0.02,5.78,0.12,11.56-0.05,17.33c-0.25,8.09-1.11,16.11-3.82,23.82c-4.38,12.46-13.16,20.05-25.82,23.35
		c-5.8,1.51-11.72,2.08-17.7,2.09c-20.43,0.02-40.85,0.01-61.28,0.01C93.45,196.57,91.73,196.57,90.02,196.57z"/>
	<path class="st5" d="M115.51,55.97c0.25-0.28,0.49-0.56,0.75-0.83c14.6-14.6,29.2-29.21,43.81-43.81c0.26-0.26,0.56-0.49,0.84-0.73
		c3.25,1.73,6.26,3.84,9.17,6.08c9.24,7.1,17.06,15.49,22.93,25.61c1.96,3.37,3.59,6.89,4.45,10.73c0.67,2.99,0.7,2.98-2.36,2.99
		c-26.16,0-52.31,0-78.47,0C116.25,56.01,115.88,55.99,115.51,55.97z"/>
	<path class="st6" d="M89.89,196.2c-3.85-3.43-6.74-7.6-9.3-12.03c-1.74-3.02-3.05-6.25-4.39-9.46c-0.45-0.38-0.63-0.92-0.81-1.44
		c-2.45-7.04-4-14.26-4.56-21.7c-0.2-2.61-0.17-5.21-0.17-7.82c-0.02-12.15-0.01-24.3,0-36.45c0-0.66-0.27-1.44,0.51-1.91
		c0.02,1.23,0.16,2.47,0.04,3.68c-0.34,3.42,0.65,6.53,1.93,9.61c2.7,6.5,6.38,12.36,11.1,17.6c5.46,6.06,11.89,10.8,19.05,14.64
		c8.91,4.78,18.46,7.72,28.31,9.68c4.31,0.86,8.67,1.48,13.06,1.88c3.47,0.31,6.95,0.51,10.42,0.71c5.25,0.31,10.49,0.16,15.74,0.12
		c2.66-0.02,5.33-0.26,8-0.37c-0.07,0.56-0.55,0.67-0.95,0.83c-3.65,1.46-7.44,2.39-11.35,2.84c-2.3,0.27-4.61,0.23-6.92,0.23
		c-17.36,0-34.71-0.01-52.07,0.01c-3.51,0-6.8,0.77-9.57,3.11c-1.98,1.67-3.37,3.77-4.4,6.11c-1.9,4.28-2.61,8.83-3.03,13.45
		c-0.16,1.78-0.22,3.56-0.21,5.35c0,0.49-0.06,0.97-0.35,1.38l-0.02-0.07L89.89,196.2z"/>
	<path class="st7" d="M43.28,128c-0.29,0.33-0.57,0.68-0.88,1c-9.12,9.13-18.25,18.26-27.38,27.39c-0.31,0.31-0.58,0.67-0.87,1
		c-3.44-5.14-6.13-10.67-8.35-16.43c-2.64-6.84-4.36-13.92-5.22-21.2c-0.17-1.47-0.2-2.97-0.29-4.45c-0.15-0.32-0.08-0.66-0.08-0.99
		c0-11.54,0-23.09,0-34.63c0-0.36-0.12-0.74,0.16-1.1c0.72,0.27,0.89,0.97,1.17,1.54c3.21,6.67,7.23,12.84,11.74,18.69
		c3.27,4.27,6.96,8.14,10.94,11.76c2.79,2.53,5.75,4.85,8.84,7.01c1.71,1.2,3.49,2.29,5.3,3.33c0.64,0.37,1.32,0.7,1.8,1.3
		C41.23,124.13,42.41,125.98,43.28,128z"/>
	<path class="st8" d="M13.28,99.19c-1.81-1.93-3.23-4.14-4.71-6.31C5.73,88.73,3.2,84.4,1.04,79.87c-0.17-0.36-0.37-0.7-0.71-1.35
		c0,0.68,0,1.03,0,1.38c0,11.54,0,23.09,0,34.63c0,0.26-0.03,0.52-0.05,0.78c-0.27-0.71-0.2-1.46-0.2-2.2c0-7.53,0-15.06,0.03-22.58
		C0.16,81.55,0.15,72.57,0.3,63.6c0.16-8.99,2.49-17.48,6.33-25.57c3.22-6.78,7.43-12.88,12.69-18.24
		c-0.04,5.1,0.29,10.18,0.59,15.27c0.2,3.34,0.42,6.67,0.71,10.01c0.42,4.89,0.94,9.76,1.6,14.62c0.87,6.47,1.99,12.91,3.34,19.3
		c0.45,2.13,0.8,4.29,1.54,6.36c0.34,2.57,1.24,5,1.83,7.5c0.4,1.68,1.1,3.28,1.35,5c-0.64-0.09-0.61-0.68-0.75-1.09
		c-0.94-2.94-1.78-5.91-2.54-8.89c-0.1-0.39-0.16-0.8-0.37-1.21c-0.51,0.04-0.74,0.46-1.04,0.76c-3.69,3.67-7.36,7.36-11.05,11.02
		C14.19,98.76,13.92,99.3,13.28,99.19z"/>
	<path class="st9" d="M89.98,196.25c0.01-7.4,0.48-14.74,3.88-21.51c2.73-5.45,7.2-8.21,13.36-8.2c17.84,0.02,35.69,0,53.53,0.01
		c5.97,0,11.76-0.9,17.3-3.2c0.27-0.11,0.52-0.27,0.77-0.41c2.25-0.79,4.19-2.17,6.2-3.4c0.47,0.31,0.13,0.67,0.04,0.99
		c-1.16,3.74-3.62,6.44-6.85,8.48c-5.02,3.16-10.64,4.62-16.37,5.79c-2.72,0.55-5.46,1-8.2,1.43c-2.67,0.42-5.36,0.67-8.04,1
		c-2.57,0.31-5.14,0.6-7.71,0.93c-2.68,0.34-5.35,0.73-8.03,1.07c-6.47,0.84-12.88,1.94-19.16,3.73c-4.28,1.22-8.4,2.79-12.19,5.13
		c-3.02,1.86-5.72,4.12-7.69,7.14C90.58,195.6,90.46,196.08,89.98,196.25z"/>
	<path class="st5" d="M71.17,105.41c-0.24,0.42-0.12,0.87-0.12,1.31c0,13.12,0.08,26.24-0.01,39.35c-0.06,9.7,1.78,19.02,5,28.11
		c0.06,0.17,0.1,0.36,0.15,0.53c-0.36,0.36-0.41-0.04-0.53-0.22c-6.62-9.55-13.69-18.76-20.4-28.24
		c-3.98-5.61-7.78-11.33-11.28-17.24c-0.19-0.32-0.34-0.66-0.51-0.99c0.24-0.28,0.47-0.57,0.73-0.83
		c8.77-8.77,17.54-17.55,26.32-26.31c0.24-0.24,0.39-0.74,0.91-0.58C71.43,102.01,71.07,103.7,71.17,105.41z"/>
	<path class="st10" d="M146.85,111.32c-0.02,4.2-3.31,7.43-7.54,7.42c-4.17-0.01-7.48-3.36-7.45-7.54c0.03-4.17,3.37-7.46,7.57-7.44
		C143.61,103.79,146.87,107.11,146.85,111.32z"/>
	<path class="st10" d="M163.78,111.28c0-4.19,3.32-7.51,7.49-7.51c4.19,0,7.53,3.32,7.53,7.48c0,4.18-3.31,7.49-7.5,7.49
		C167.09,118.75,163.77,115.45,163.78,111.28z"/>
	<path class="st10" d="M114.94,111.3c-0.02,4.21-3.3,7.46-7.52,7.45c-4.21-0.01-7.48-3.31-7.45-7.51c0.02-4.21,3.32-7.48,7.52-7.46
		C111.67,103.79,114.95,107.11,114.94,111.3z"/>
	<path class="st11" d="M13.28,99.19c1.02-0.98,2.04-1.94,3.04-2.94c3.11-3.1,6.2-6.21,9.32-9.3c0.33-0.32,0.59-0.94,1.08-0.79
		c0.24,0.07,0.32,0.76,0.42,1.17c0.81,3.19,1.69,6.37,2.69,9.51c0.11,0.34,0.14,0.73,0.43,1c0,0,0.01,0.01,0.01,0.01
		c0.38,1.36,0.86,2.68,1.31,4.02c0.97,2.59,1.93,5.2,2.93,7.78c1.57,4.05,3.37,7.99,5.36,11.85c0.12,0.23,0.18,0.48,0.27,0.72
		c-4.39-2.27-8.42-5.1-12.29-8.15c-3.47-2.74-6.66-5.8-9.67-9.02C16.45,103.19,14.7,101.32,13.28,99.19z"/>
	<path class="st8" d="M31.59,101.86c-0.66-1.27-1.14-2.59-1.31-4.02C30.87,99.14,31.33,100.47,31.59,101.86z"/>
</g>
</svg>
