<svg id="Layer_1" data-name="Layer 1" xmlns="http://www.w3.org/2000/svg" xmlns:xlink="http://www.w3.org/1999/xlink" viewBox="0 0 200 110"><defs><style>.cls-1{fill:none;}.cls-2{fill:url(#linear-gradient);}.cls-3{fill:url(#linear-gradient-2);}.cls-4{fill:aqua;}.cls-5{fill:#e6e6e6;}.cls-6{fill:url(#linear-gradient-3);}.cls-7{fill:#f2f2f2;}.cls-8{fill:url(#linear-gradient-4);}.cls-9{fill:url(#linear-gradient-5);}.cls-10{fill:url(#linear-gradient-6);}.cls-11{fill:url(#linear-gradient-7);}.cls-12{fill:url(#linear-gradient-8);}.cls-13{fill:#f7a27a;}.cls-14{fill:#c15545;}.cls-15{fill:#fec5b2;}.cls-16{fill:#fff;}.cls-17{fill:#b3b3b3;}.cls-18{fill:#2851a6;}.cls-19{fill:#1c80ab;}.cls-20{fill:#284ce6;}.cls-21{fill:#0f4056;}.cls-22{fill:#a9b7f5;}.cls-23{fill:#4999bc;}.cls-24{fill:#77b3cd;}.cls-25{fill:url(#radial-gradient);}.cls-26{fill:url(#radial-gradient-2);}.cls-27{fill:url(#linear-gradient-9);}.cls-28{fill:url(#linear-gradient-10);}.cls-29{isolation:isolate;}.cls-30{clip-path:url(#clip-path);}.cls-31{fill:#e60000;}.cls-32{fill:#e20000;}.cls-33{fill:#df0000;}.cls-34{fill:#f40000;}.cls-35{clip-path:url(#clip-path-2);}.cls-36{fill:#f4f4f4;}.cls-37{fill:url(#radial-gradient-3);}.cls-38{fill:url(#radial-gradient-4);}.cls-39{fill:url(#linear-gradient-11);}.cls-40{fill:url(#linear-gradient-12);}.cls-41{clip-path:url(#clip-path-3);}.cls-42{clip-path:url(#clip-path-4);}</style><linearGradient id="linear-gradient" x1="9.82" y1="38.95" x2="192.22" y2="38.95" gradientUnits="userSpaceOnUse"><stop offset="0" stop-color="#00cdff"/><stop offset="1" stop-color="#76ffbe"/></linearGradient><linearGradient id="linear-gradient-2" x1="100.29" y1="103.58" x2="98.92" y2="6.24" xlink:href="#linear-gradient"/><linearGradient id="linear-gradient-3" x1="29.77" y1="91.37" x2="33.17" y2="72.72" gradientTransform="translate(29.82 7.96) rotate(0.56)" gradientUnits="userSpaceOnUse"><stop offset="0" stop-color="#1c80ab"/><stop offset="1" stop-color="aqua"/></linearGradient><linearGradient id="linear-gradient-4" x1="50.29" y1="89.78" x2="50.83" y2="75.79" xlink:href="#linear-gradient-3"/><linearGradient id="linear-gradient-5" x1="-630.32" y1="89.78" x2="-629.79" y2="75.79" gradientTransform="matrix(-1, -0.01, -0.01, 1, -487.02, 2.88)" xlink:href="#linear-gradient-3"/><linearGradient id="linear-gradient-6" x1="65.71" y1="88.72" x2="65" y2="78.23" xlink:href="#linear-gradient-3"/><linearGradient id="linear-gradient-7" x1="75.27" y1="88.07" x2="74.56" y2="77.58" xlink:href="#linear-gradient-3"/><linearGradient id="linear-gradient-8" x1="92.29" y1="86.91" x2="91.57" y2="76.43" xlink:href="#linear-gradient-3"/><radialGradient id="radial-gradient" cx="12071.19" cy="22909.79" r="388.52" gradientTransform="translate(-990.34 -2141.49) scale(0.1 0.1)" gradientUnits="userSpaceOnUse"><stop offset="0" stop-color="#cdeff9"/><stop offset="1" stop-color="#00baf0"/></radialGradient><radialGradient id="radial-gradient-2" cx="12136.39" cy="23014.45" r="482.84" gradientTransform="translate(-990.34 -2141.49) scale(0.1 0.1)" gradientUnits="userSpaceOnUse"><stop offset="0" stop-color="#00baf0"/><stop offset="1" stop-color="#034c66"/></radialGradient><linearGradient id="linear-gradient-9" x1="178.84" y1="83.94" x2="156.52" y2="101.94" gradientUnits="userSpaceOnUse"><stop offset="0" stop-color="#fff"/><stop offset="1" stop-color="#e6e6e6"/></linearGradient><linearGradient id="linear-gradient-10" x1="180.32" y1="85.8" x2="158.01" y2="103.78" xlink:href="#linear-gradient-9"/><clipPath id="clip-path"><path id="SVGID" class="cls-1" d="M165.42,84.3l0,1.18c0,.08,0,.16,0,.23-.34,3-4.87,5.07-10.12,4.74s-9-2.85-8.91-5.71l0-1.18c-.11,2.85,3.8,5.39,8.92,5.71s9.78-1.79,10.12-4.74C165.41,84.45,165.42,84.38,165.42,84.3Z"/></clipPath><clipPath id="clip-path-2"><path id="SVGID-2" data-name="SVGID" class="cls-1" d="M156.51,78.59c5.25.33,9.23,3,8.9,5.94s-4.87,5.07-10.12,4.74-9.24-3-8.9-5.94S151.26,78.26,156.51,78.59Z"/></clipPath><radialGradient id="radial-gradient-3" cx="10548.14" cy="22930.85" r="398.02" gradientTransform="translate(-990.34 -2141.49) scale(0.1 0.1)" gradientUnits="userSpaceOnUse"><stop offset="0" stop-color="#cdeff9"/><stop offset="1" stop-color="#81dcfc"/></radialGradient><radialGradient id="radial-gradient-4" cx="10614.93" cy="23038.06" r="494.64" gradientTransform="translate(-990.34 -2141.49) scale(0.1 0.1)" gradientUnits="userSpaceOnUse"><stop offset="0" stop-color="#81dcfc"/><stop offset="1" stop-color="#034c66"/></radialGradient><linearGradient id="linear-gradient-11" x1="31.09" y1="85.98" x2="8.22" y2="104.41" xlink:href="#linear-gradient-9"/><linearGradient id="linear-gradient-12" x1="32.6" y1="87.88" x2="9.75" y2="106.3" xlink:href="#linear-gradient-9"/><clipPath id="clip-path-3"><path id="SVGID-3" data-name="SVGID" class="cls-1" d="M54.27,84.26l-.05,1.39c0,.09,0,.17,0,.26-.4,3.46-5.7,5.94-11.84,5.55s-10.57-3.34-10.44-6.68l0-1.39c-.13,3.35,4.45,6.31,10.44,6.69,6.15.38,11.45-2.1,11.84-5.55A2.45,2.45,0,0,0,54.27,84.26Z"/></clipPath><clipPath id="clip-path-4"><path id="SVGID-4" data-name="SVGID" class="cls-1" d="M43.83,77.58c6.15.39,10.81,3.5,10.42,7s-5.69,5.93-11.84,5.55-10.81-3.5-10.42-7S37.69,77.19,43.83,77.58Z"/></clipPath></defs><title>Logo</title><path class="cls-2" d="M192.05,9.14h-16.5L156.67,40.91,137.28,9.14H114L95.16,40.91,75.77,9.14H59.27v2.95a40.06,40.06,0,0,0-8.76-3,55,55,0,0,0-12-1.32A39,39,0,0,0,23.3,10.41a20.79,20.79,0,0,0-9.4,7.25,17.66,17.66,0,0,0-3.15,10.22q0,6.48,3.41,10.26a19.53,19.53,0,0,0,8,5.46,89.08,89.08,0,0,0,11.48,3.11,51.29,51.29,0,0,1,7.7,2c1.56.63,2.34,1.56,2.34,2.81A2.61,2.61,0,0,1,41.88,54a15.62,15.62,0,0,1-6,.81,37.3,37.3,0,0,1-10.12-1.49,40.92,40.92,0,0,1-9.53-4L9.82,64a38.52,38.52,0,0,0,11.52,4.47,62.29,62.29,0,0,0,14.42,1.66,38.43,38.43,0,0,0,15.18-2.68,22.31,22.31,0,0,0,8.33-5.85v7.17H77.55V42.53L90.48,63.4h8.84l12.93-21.81.17,27.18h26.65V42.53L152,63.4h8.85l12.92-21.81.17,27.18h18.29ZM51.92,34.4a77.39,77.39,0,0,0-11.48-2.94,47.74,47.74,0,0,1-7.57-1.92c-1.53-.6-2.3-1.49-2.3-2.68q0-3.75,7.74-3.75t16.58,4.43L59.27,17V39A19.84,19.84,0,0,0,51.92,34.4Z"/><path d="M38.48,7.77a55,55,0,0,1,12,1.32,40.06,40.06,0,0,1,8.76,3V9.14h16.5L95.16,40.91,114,9.14h23.24l19.39,31.77L175.55,9.14h16.5l.17,59.63H173.93l-.17-27.18L160.84,63.4H152L139.07,42.53V68.77H112.42l-.17-27.18L99.32,63.4H90.48L77.55,42.53V68.77H59.27V61.6a22.31,22.31,0,0,1-8.33,5.85,38.43,38.43,0,0,1-15.18,2.68,62.29,62.29,0,0,1-14.42-1.66A38.52,38.52,0,0,1,9.82,64l6.46-14.65a40.92,40.92,0,0,0,9.53,4A37.3,37.3,0,0,0,35.93,54.8a15.62,15.62,0,0,0,6-.81,2.61,2.61,0,0,0,1.79-2.43c0-1.25-.78-2.18-2.34-2.81a51.29,51.29,0,0,0-7.7-2A89.08,89.08,0,0,1,22.15,43.6a19.53,19.53,0,0,1-8-5.46q-3.4-3.78-3.41-10.26A17.66,17.66,0,0,1,13.9,17.66a20.79,20.79,0,0,1,9.4-7.25A39,39,0,0,1,38.48,7.77M54.89,27.54q-8.76-4.42-16.58-4.43t-7.74,3.75c0,1.19.77,2.08,2.3,2.68a47.74,47.74,0,0,0,7.57,1.92A77.39,77.39,0,0,1,51.92,34.4,19.84,19.84,0,0,1,59.27,39V17L54.89,27.54M38.48,0a55.67,55.67,0,0,0-9.59.78,39.58,39.58,0,0,0-8.61,2.47,28.47,28.47,0,0,0-12.78,10A25.43,25.43,0,0,0,3,27.88a26.1,26.1,0,0,0,1.24,8.25,20.14,20.14,0,0,0,4.15,7.21q.69.77,1.41,1.47l-.61,1.4L2.72,60.86,0,67,5.72,70.6A46.43,46.43,0,0,0,19.56,76a70.43,70.43,0,0,0,16.2,1.87,56,56,0,0,0,9.61-.79,41.15,41.15,0,0,0,6.14-1.57v1h33.8V69.8l.85,1.38h17.58l.93-1.57,0,6.93h42.12V69.8l.85,1.38h17.57l.93-1.57,0,6.93H200l0-7.79-.17-59.64,0-7.75H171.14l-2.26,3.8-12.3,20.7L143.9,5.08l-2.27-3.72h-32l-2.26,3.8-12.3,20.7L82.39,5.08,80.12,1.36H51.54A63.42,63.42,0,0,0,38.48,0Z"/><path class="cls-3" d="M44.32,94.27l6.17-21.38,1.25-4.32h10c0-.35,0-.65-.06-.84a6.3,6.3,0,0,1,1.65-5.24,11,11,0,0,1,3.26-2.15,8.52,8.52,0,0,0,5-6.59,20.33,20.33,0,0,1,3-7.5l-.28-.37a12.21,12.21,0,0,1-.81-1.14,10.94,10.94,0,0,1-1.43-4.91,21.72,21.72,0,0,1,.47-5.77,43.49,43.49,0,0,1,4.69-12.15A42.79,42.79,0,0,1,86.87,10a26.28,26.28,0,0,1,6.3-4,18.38,18.38,0,0,1,7.24-1.56h0a18.71,18.71,0,0,1,9,2.54,33.65,33.65,0,0,1,7.94,6.19,45.7,45.7,0,0,1,8.45,12.2,31,31,0,0,1,3.28,13.77,10.58,10.58,0,0,1-1.92,5.41,9.87,9.87,0,0,0-.9,1.7c0,.06.09.11.13.16a9,9,0,0,1,1.37,1.89,15.84,15.84,0,0,1,1.38,4.68,12.71,12.71,0,0,0,.7,2.74,10.62,10.62,0,0,0,2.42,3.39,6.74,6.74,0,0,0,1.65.9,11,11,0,0,1,3.5,2.19,5.75,5.75,0,0,1,1.75,4.44c0,.29,0,.63-.05,1,0,0,0,.59,0,.85h10.58s7.37,26,8.93,31.77l2.38,8.8-9-1.31c-3.08-.44-4.59-.64-7.71-1l-1.93-.24-.7-.09-3.71-.39c-3.12-.32-4.64-.46-7.73-.7,0,0-10-.66-11.06-.71-3.91-.19-5.83-.25-9.78-.33l-1.6,0h-1.51c-1.45,0-2.44,0-3.4,0s-1.95,0-3.4,0l-2,0-2,0c-2.58.06-3.85.1-6.48.2l-.54,0-.78,0c-3.16.14-4.72.22-7.91.44l-1.73.12-1.92.15c-3.21.25-4.78.39-8,.72l-6.79.69c-.94.16-2,.32-3.26.48-3.58.47-5.33.73-8.9,1.3L39.79,110Z"/><path d="M155.8,101.1c-2-7.29-4.82-17.67-4.82-17.67l-3.46-12H136c.06-1.08.13-2.35.2-3.82,0-.4,0-.76,0-1.05a2.94,2.94,0,0,0-.92-2.27,8.16,8.16,0,0,0-2.63-1.6,8.53,8.53,0,0,1-2.42-1.4,13.23,13.23,0,0,1-3.1-4.33,14.44,14.44,0,0,1-.91-3.41,13.32,13.32,0,0,0-1.11-3.87,6.63,6.63,0,0,0-1-1.31,2.43,2.43,0,0,1-.83-2.56,9.78,9.78,0,0,1,1.29-2.69,8,8,0,0,0,1.51-4,28.18,28.18,0,0,0-3-12.47,42.68,42.68,0,0,0-7.91-11.42A31.21,31.21,0,0,0,108,9.57a15.89,15.89,0,0,0-7.6-2.19h0a15.38,15.38,0,0,0-6.11,1.33,23.11,23.11,0,0,0-5.61,3.53,40,40,0,0,0-8.92,11.08A40.26,40.26,0,0,0,75.4,34.63c-.76,3.74-.55,6.72.6,8.61a8.19,8.19,0,0,0,.63.88c.61.8,1.31,1.71,1.12,2.47a6,6,0,0,1-.54,1,17.82,17.82,0,0,0-2.7,6.65,11.35,11.35,0,0,1-6.61,8.72c-1.79.88-3.63,1.79-3.33,4.48.08.65.13,2,.18,3.35,0,.25,0,.5,0,.74-.57,0-1.19,0-1.85,0h-9l-.64,2.25c-2.53,8.76-4.08,14.11-6.17,21.38l-3.29,11.39,4.83-.77c3.6-.57,5.37-.83,9-1.31,2.32-.3,4-.59,5.3-.89l-.07.21,4.9-.5c3.25-.33,4.83-.47,8.06-.73l1.94-.15,1.74-.11c3.23-.22,4.8-.31,8-.45l.78,0,.54,0c2.65-.1,3.94-.14,6.54-.2l2,0,2,0c1.46,0,2.46,0,3.43,0s2,0,3.43,0h1.52l1.62,0c4,.08,5.91.14,9.86.33l8.73.52,2.41.19c3.13.26,4.66.4,7.8.72l3.76.39.73.1,1.91.23c3.14.38,4.66.58,7.77,1l4.68.68Z"/><path class="cls-4" d="M50.09,95.67,56.7,73.56l.13-.43,7.38.08a16.76,16.76,0,0,1,5,.6,4.27,4.27,0,0,1,2.62,2.41c.53,1.18.51,2.94,0,5.37a7.07,7.07,0,0,1-1.69,3.59,5.77,5.77,0,0,1-1.82,1.1,3.26,3.26,0,0,1,1.6,1.39,6.2,6.2,0,0,1,.13,4.21l-.55,2.46a11.38,11.38,0,0,1-1.7,4.28,6.53,6.53,0,0,1-3,2.21,33.84,33.84,0,0,1-6.76,1.25c-3.78.46-5.62.71-9.39,1.27l-.93.14Zm8.74.46a2.6,2.6,0,0,0,1.06-.41,3.6,3.6,0,0,0,.8-1.82l.67-2.56a5.7,5.7,0,0,0,.25-1.57,3.41,3.41,0,0,0-.91-.09h-.14Zm3.24-12a1.46,1.46,0,0,0,1-.36A8.82,8.82,0,0,0,64,81a3.83,3.83,0,0,0,.22-1.53.53.53,0,0,0-.07-.21,3.35,3.35,0,0,0-.78-.08Z"/><path class="cls-5" d="M57.27,73.74l6.94.06a17.22,17.22,0,0,1,4.85.57,3.71,3.71,0,0,1,2.26,2.09c.47,1,.45,2.7-.07,5a6.39,6.39,0,0,1-1.52,3.28,7.71,7.71,0,0,1-3.45,1.57c1.64.28,2.69.83,3.12,1.64a5.79,5.79,0,0,1,.08,3.8l-.55,2.46a10.93,10.93,0,0,1-1.6,4.06,5.91,5.91,0,0,1-2.71,2A34.47,34.47,0,0,1,58,101.49c-3.77.46-5.65.71-9.41,1.27Zm5.67,4.83c-.67,2.47-1,3.71-1.67,6.19L62,84.7a2,2,0,0,0,1.52-.58,9.9,9.9,0,0,0,1.07-3,4.74,4.74,0,0,0,.23-1.8.77.77,0,0,0-.45-.64A5,5,0,0,0,62.94,78.57ZM60.1,89.09c-.84,3.12-1.25,4.67-2.09,7.79a4.76,4.76,0,0,0,2.26-.7,4.26,4.26,0,0,0,1-2.13c.27-1,.4-1.54.66-2.56.31-1.18.36-1.89.16-2.12S61.23,89.05,60.1,89.09Z"/><path class="cls-6" d="M63.46,89.06a5.09,5.09,0,0,1-.2,2.77L62.6,94.4a5.28,5.28,0,0,1-1.46,2.85,5.79,5.79,0,0,1-3,1l-2,.28L58.71,89l-4.56,0c-.69,2.34-1.4,4.69-2.17,7.27l-1.46,4.86c2.51-.36,4.3-.59,7.31-1A33.5,33.5,0,0,0,64.13,99a4.44,4.44,0,0,0,2.09-1.53,9.64,9.64,0,0,0,1.37-3.54l.55-2.46a6.75,6.75,0,0,0,.2-2.33Z"/><path class="cls-7" d="M53.3,96.62c2.07-7,3.64-12.2,6-20.11h1.34l-3,11.31L54.55,99.14l-2.09.28Zm9,1.43a7.06,7.06,0,0,0,1.63-3.31l.66-2.56a6.74,6.74,0,0,0,.25-3.32l1,.16a4.64,4.64,0,0,1,1.16.33,5.7,5.7,0,0,1-.18,1.8l-.55,2.47a8.2,8.2,0,0,1-1.13,3,3.18,3.18,0,0,1-1.48,1.07A9.22,9.22,0,0,1,62.3,98.05Zm2.4-9.61a3,3,0,0,0-.54-.87,2.63,2.63,0,0,0-.42-.4,4.7,4.7,0,0,0,.9-.42Zm2.17-5.18c.13-.41.26-.88.4-1.43a6.8,6.8,0,0,0,.26-3,3.63,3.63,0,0,0-1.25-2.14,8.14,8.14,0,0,1,1.9.33,1,1,0,0,1,.64.61s.32.76-.25,3.27a4.12,4.12,0,0,1-.73,1.89A3,3,0,0,1,66.87,83.26Z"/><path class="cls-4" d="M68.06,100.14c4-10.91,5.85-16.09,9.29-26.39l.14-.41,11.06.11V74c.25,10.14.5,15,1.31,25l0,.62-.62,0c-3.34.11-5,.18-8.35.38l-.67,0,0-.67c.09-1.56.15-2.44.24-3.89l-1.75.09c-.45,1.65-.7,2.56-1.17,4.23l-.12.41-.42,0c-3.38.23-5,.36-8.43.68l-.94.08ZM81.34,84.73c-.65,2.09-1.15,3.79-1.52,5.12l1.3,0C81.16,88.27,81.23,86.57,81.34,84.73Z"/><path class="cls-5" d="M88,74c.25,10.09.51,15.08,1.32,25-3.35.11-5,.19-8.36.38.1-1.82.16-2.73.27-4.55L78.35,95c-.51,1.85-.77,2.78-1.29,4.64-3.38.23-5.07.37-8.44.68,4-10.73,5.83-16,9.3-26.41ZM81.7,90.38q.09-4.3.58-10.69c-1.54,4.9-2.65,8.51-3.25,10.79Z"/><path class="cls-8" d="M83.1,89.29l0,1.12,0,1.29-1.29,0-2.66.11-1.86.08.47-1.8.25-.91-3.8,0c-1,2.89-2.13,5.92-3.49,9.6,1.85-.16,3.29-.27,5.34-.41.35-1.25.6-2.15,1-3.71l.26-1,1-.06,2.86-.14,1.53-.08L82.57,95c-.08,1.25-.13,2.07-.19,3,2-.11,3.43-.17,5.41-.25-.25-3.17-.45-5.84-.6-8.38Z"/><path class="cls-7" d="M72.7,97.23c2.83-7.72,4.54-12.6,7.19-20.52l5.39.05c.21,7.6.45,12.26,1,19.64l-2.47.11c0-.42.06-.89.1-1.45l.12-2h.33l.06-2.59c.06-2.9.25-6.44.57-10.54l.1-1.22-5.09-1-.37,1.17c-1.58,5-2.69,8.63-3.28,10.93l-.94,3.6.52,0-.26.93c-.31,1.13-.53,1.91-.76,2.76Z"/><path class="cls-4" d="M153.83,101.88l-.94-.11c-3.39-.37-5-.54-8.42-.84l-.42,0-.1-.41c-.44-1.68-.67-2.61-1.09-4.26l-1.74-.12c.06,1.45.09,2.33.15,3.89l0,.67-.67,0c-3.36-.26-5-.37-8.33-.55l-.63,0,.06-.62c1-9.92,1.36-14.81,1.8-24.94l0-.58,11.06.11.13.41C148,84.78,149.7,90,153.52,101ZM140.67,90.39l1.29.07q-.51-2-1.41-5.15C140.62,87.16,140.66,88.85,140.67,90.39Z"/><path class="cls-5" d="M144.18,74.59c3.26,10.47,5,15.78,8.78,26.59-3.37-.38-5.06-.55-8.43-.84-.49-1.87-.73-2.81-1.2-4.67-1.13-.09-1.7-.13-2.84-.2.08,1.82.12,2.73.19,4.55-3.34-.26-5-.37-8.35-.55,1-9.9,1.36-14.89,1.8-25Zm-1.44,16.52c-.55-2.29-1.6-5.93-3-10.86.25,4.27.37,7.83.37,10.7Z"/><path class="cls-9" d="M138.69,89.84c0,.38,0,.75,0,1.11v1.3l1.3.07,2.65.16,1.86.12-.44-1.81c-.07-.28-.14-.59-.22-.91l3.8,0c1,2.9,2,6,3.29,9.66-1.84-.19-3.28-.33-5.33-.52l-1-3.72-.24-1-1-.08-2.85-.2-1.53-.1.07,1.54c0,1.25.09,2.07.12,3-2-.15-3.42-.24-5.4-.35.31-3.17.56-5.84.77-8.38Z"/><path class="cls-7" d="M148.94,98c-2.68-7.77-4.29-12.69-6.79-20.66l-5.39,0c-.36,7.59-.69,12.24-1.41,19.62l2.46.16c0-.43,0-.9-.06-1.46l-.09-2-.33,0V91c0-2.9-.13-6.45-.37-10.54l-.08-1.23L142,78.3l.34,1.18c1.49,5.07,2.52,8.68,3.08,11l.87,3.62-.52,0L146,95l.71,2.78Z"/><path class="cls-4" d="M90.07,98.94c.52-5.27.9-9.14,1.29-13.1.35-3.53.7-7.12,1.16-11.81l.06-.54,6.8.06.12.43c1,3.29,1.6,5.34,2.5,8,.08-2.56.14-4.61.23-7.82l0-.59,7,.07v.58c.06,4.92.1,8.61.15,12.29s.09,7.43.15,12.38v.61h-.62l-3.58,0-3.58,0h-.43l-.14-.4c-1.15-3.31-1.84-5.38-2.64-8-.15,2.56-.27,4.63-.45,7.85l0,.56h-.55c-2.73,0-4.07.06-6.83.14l-.68,0Z"/><path class="cls-5" d="M108.64,74.24l.3,24.66c-2.87-.05-4.3-.07-7.17-.07-1.56-4.48-2.29-6.72-3.61-11.21l-.65,11.24c-2.74,0-4.11.06-6.84.14l2.45-24.91,5.81.06c1.3,4.46,2,6.68,3.57,11.13.13-4.44.2-6.66.33-11.1Z"/><path class="cls-10" d="M92.19,97.58c1.44,0,2.55-.06,4-.08.18-3.07.3-5.12.46-8l-3.68,0C92.75,91.89,92.49,94.5,92.19,97.58Z"/><path class="cls-11" d="M100.15,89.49c.85,2.81,1.51,4.84,2.59,8h2.63l2.18,0c0-3-.07-5.52-.1-7.92Z"/><path class="cls-7" d="M93.71,96.17c.37-3.78.67-6.87,1-10,.28-2.87.57-5.78.92-9.29h1.26c.93,3.14,1.63,5.28,2.9,8.93l-4.29.5-.14,2.41c-.16,2.84-.28,4.82-.43,7.42Zm10-.09c-1.09-3.17-1.76-5.29-2.83-8.9l4.32-.67.28-9.55h.44c0,3.63.08,6.62.11,9.61s.08,5.93.12,9.52h-2.44Z"/><path class="cls-4" d="M125,100.12c-.7,0-1.51,0-2.47-.09-4.12-.24-6.14-.33-10.3-.45h-.56l0-.57c-.14-4.48-.26-8-.36-11.32-.14-4.06-.26-8-.44-13.39l0-.63,5.83.06a36.28,36.28,0,0,1,7,.52,6.93,6.93,0,0,1,3.16,1.63,6.24,6.24,0,0,1,1.65,2.51,33.89,33.89,0,0,1,1,5c.51,3.59.76,5.38,1.27,9a17,17,0,0,1,.26,4.78,3.14,3.14,0,0,1-1.39,2.1A5.86,5.86,0,0,1,127,100,15.94,15.94,0,0,1,125,100.12Zm-4.37-5.67c.85,0,1-.19,1-.2s.23-.46,0-2.67l-.27-2.88c-.22-2.26-.39-4.06-.67-6.87a10.09,10.09,0,0,0-.3-2.06.62.62,0,0,0-.32-.37,2,2,0,0,0-.69-.16Z"/><path class="cls-5" d="M111.43,74.27l5.2,0a35.23,35.23,0,0,1,6.86.5,6.37,6.37,0,0,1,2.9,1.48,5.54,5.54,0,0,1,1.49,2.27,35.39,35.39,0,0,1,.93,4.89c.51,3.58.76,5.38,1.27,9a16.4,16.4,0,0,1,.26,4.58,2.49,2.49,0,0,1-1.12,1.71,5.21,5.21,0,0,1-2.32.74,30,30,0,0,1-4.36,0c-4.12-.24-6.18-.33-10.31-.45Zm7.3,4.34c.53,6.57.8,9.86,1.33,16.43,1.15,0,1.84-.1,2.07-.47a6.54,6.54,0,0,0,.1-3c-.38-3.9-.57-5.85-.94-9.75a12.4,12.4,0,0,0-.33-2.19,1.28,1.28,0,0,0-.61-.72A4.09,4.09,0,0,0,118.73,78.61Z"/><path class="cls-12" d="M128.32,89.82l-4.88-.06.15,1.63c.24,2.47,0,3.35-.3,3.92-.64,1-2,1.12-2.91,1.11H120l-1.21,0-.54-6.66-5-.06c.08,2.43.16,5,.26,8,3.35.1,5.37.19,9.06.4.93.06,1.71.09,2.38.09a14.41,14.41,0,0,0,1.75-.06,4.07,4.07,0,0,0,1.72-.52,1.16,1.16,0,0,0,.53-.83,15.56,15.56,0,0,0-.28-4.11Z"/><path class="cls-7" d="M125,96.77l-1.14,0a3.66,3.66,0,0,0,.58-.7c.62-1,.75-2.27.51-4.79,0,0-.66-6.93-.94-9.75a12.62,12.62,0,0,0-.46-2.82,4.46,4.46,0,0,0-.62-1.16,3.67,3.67,0,0,1,1.56.78,2.85,2.85,0,0,1,.77,1.14,29.62,29.62,0,0,1,.82,4.4l1.27,9a16.44,16.44,0,0,1,.29,3.64,3.09,3.09,0,0,1-1.05.26A12.65,12.65,0,0,1,125,96.77Zm-7.59-.36-2.53-.1c-.1-3.18-.51-15.72-.62-19.26l1.58,0Z"/><path class="cls-13" d="M88.94,36.87c.43.31,1.92,1.44,3.45.7a33.81,33.81,0,0,0,3.84-2,7.73,7.73,0,0,1,6.4-.89,30.77,30.77,0,0,1,5.79,2.84c1.12.66,4-.1,4.25-2a27.07,27.07,0,0,1,.7-3.63,9,9,0,0,0,.39-3.06c-.06-2.39-3.17-3.32-3.37-3.37a8.57,8.57,0,0,0-4.79.08,12.12,12.12,0,0,0-4.28,2.64,1.35,1.35,0,0,1-1.66.13c-.7-.54-1.39-1.08-2.1-1.6-6.84-5.28-10.52.54-10.48,2.57a12.55,12.55,0,0,0,.44,2.72,12.67,12.67,0,0,1,.66,3.49A1.45,1.45,0,0,0,88.94,36.87Z"/><path class="cls-14" d="M113.76,28.88c-.06-2.39-3.17-3.32-3.37-3.37,0,0,3.6,5.18-2.7,11.62l.73.43c1.12.66,4-.1,4.25-2a27.07,27.07,0,0,1,.7-3.63A9,9,0,0,0,113.76,28.88Z"/><path class="cls-15" d="M90,35.56a12.61,12.61,0,0,1-1.83-4.82,7.8,7.8,0,0,1,1.05-5,5.28,5.28,0,0,0-2.1,3.64,12.55,12.55,0,0,0,.44,2.72,12.67,12.67,0,0,1,.66,3.49,1.45,1.45,0,0,0,.76,1.33c.43.31,1.92,1.44,3.45.7l.45-.22C91.18,37,90.67,36.63,90,35.56Z"/><path class="cls-13" d="M71.24,78.12c1.06.26,3.74.3,3.71-1.07a3.34,3.34,0,0,0,0-.94s-3.81.49-5.28.1C69.47,76.75,69.11,77.61,71.24,78.12Z"/><path class="cls-14" d="M74.9,76.11s-.76.1-1.73.17a3.48,3.48,0,0,1,.18,1.94c1,0,1.62-.48,1.6-1.17A3.34,3.34,0,0,0,74.9,76.11Z"/><path class="cls-13" d="M75.18,79.11a9.41,9.41,0,0,1-5.64,0C69.59,81.46,75.53,81.43,75.18,79.11Z"/><path class="cls-14" d="M75.18,79.11a8.49,8.49,0,0,1-1.76.36A1.17,1.17,0,0,1,73,80.83C74.28,80.71,75.33,80.13,75.18,79.11Z"/><path class="cls-13" d="M69.91,82.25c-.3,1,1.07,1.55,1.91,1.65s3.61.32,3.53-1.62A8.53,8.53,0,0,1,69.91,82.25Z"/><path class="cls-14" d="M75.35,82.28a11.4,11.4,0,0,1-2.15.4A1.26,1.26,0,0,1,73.07,84C74.15,83.93,75.4,83.61,75.35,82.28Z"/><path class="cls-16" d="M74.5,73.41c0-.65-.38-7.83-.54-7.83-1.26,0-3.42-.07-4.67,0s-2,.28-2,1.54c0,1.59.29,6.45.42,6.61A48.57,48.57,0,0,0,74.5,73.41Z"/><path class="cls-17" d="M74,65.58h-1c.19,1.59.48,6.82.46,7.37a56,56,0,0,1-5.74.41,2.14,2.14,0,0,0,.07.43,48.57,48.57,0,0,0,6.79-.37C74.52,72.76,74.12,65.58,74,65.58Z"/><path class="cls-18" d="M86.74,54.39c1.25,1,3.11,1.9,4.65,4.73a7.18,7.18,0,0,1,.81,2.59c0,.45.09,1.32.6,1.19.18,0,.38-1.23.5-1.6a1.9,1.9,0,0,1,1.28-1.43,9,9,0,0,1,3.46-.2c-2.55-2.12-5.15-4.16-7.64-6.34-5.49-4.82-5.87-10.92-5.78-14.53-.22,1.51-.47,3-.75,4.52-2.06-4.14-.53-13.33,1.06-16.18s5.75-7.8,15.13-1.57a.53.53,0,0,0,.73,0c3.28-2.58,13.5-5.89,16.51,5a27.29,27.29,0,0,1-.14,12.71c-.1-.1-.8-4.33-.83-4.55,0,0,.14,9.74-6.72,15.17-2.16,1.72-4.91,3.49-6.64,5.6a12.2,12.2,0,0,0,1.75,0c2.36.3,3,2.67,3.36,3.34.07.16.75-2.37,1.23-3.52.87-2.07,3-3.27,4.55-4.89,2.12-2.18,3.19-5.08,4.88-7.56,1.81-2.69,4.33-4.81,4.31-8.33-.06-7.25-5-18.71-16.32-24.27,1.44-.08,2.74.87,4.15,1.36-3.09-4.08-8.57-5.48-10-5.58-3.84-.28-9.48,3.45-10.79,5.69.08,0,3.79-1.47,4-1.51,0,.05-12.34,5.56-16.24,22.45a5.8,5.8,0,0,0,.2,3.72c.83,1.91,3.58,5.61,4.47,7.1C82.8,48,84.84,52.84,86.74,54.39Z"/><path class="cls-19" d="M86.74,54.39c1.25,1,3.11,1.9,4.65,4.73a7.18,7.18,0,0,1,.81,2.59c0,.45.09,1.32.6,1.19.18,0,.38-1.23.5-1.6a1.9,1.9,0,0,1,1.28-1.43,9,9,0,0,1,3.46-.2c-2.55-2.12-5.15-4.16-7.64-6.34-5.49-4.82-5.87-10.92-5.78-14.53-.22,1.51-.47,3-.75,4.52-2.06-4.14-.53-13.33,1.06-16.18s5.75-7.8,15.13-1.57a.53.53,0,0,0,.73,0c3.28-2.58,13.5-5.89,16.51,5a27.29,27.29,0,0,1-.14,12.71c-.1-.1-.8-4.33-.83-4.55,0,0,.14,9.74-6.72,15.17-2.16,1.72-4.91,3.49-6.64,5.6a12.2,12.2,0,0,0,1.75,0c2.36.3,3,2.67,3.36,3.34.07.16.75-2.37,1.23-3.52.87-2.07,3-3.27,4.55-4.89,2.12-2.18,3.19-5.08,4.88-7.56,1.81-2.69,4.33-4.81,4.31-8.33-.06-7.25-5-18.71-16.32-24.27,1.44-.08,2.74.87,4.15,1.36-3.09-4.08-8.57-5.48-10-5.58-3.84-.28-9.48,3.45-10.79,5.69.08,0,3.79-1.47,4-1.51,0,.05-12.34,5.56-16.24,22.45a5.8,5.8,0,0,0,.2,3.72c.83,1.91,3.58,5.61,4.47,7.1C82.8,48,84.84,52.84,86.74,54.39Z"/><path class="cls-20" d="M116.43,44.7c.17-.21,0-.34.08-.51a1.67,1.67,0,0,0-.13.9C116.43,45,116.34,44.79,116.43,44.7Z"/><path class="cls-21" d="M106.8,14.34c1.4.18,3.17,1.21,4.37,1.59a15.21,15.21,0,0,0-3-2.82,8.11,8.11,0,0,1,1,1.28,5.09,5.09,0,0,0-2.49-.06c.74.47,11.67,9,13,19.75a15.13,15.13,0,0,1-2.56,9.24c.34-.28-.58-5.35-.79-5.75-.43,1.28-3.37,8.94-3.45,10.29,0,.53-10.15,8.12-12,11.31-.05.07,6.59,2.58,7.16,3.52a18.83,18.83,0,0,0,1.22-3.31c.87-2.07,3-3.27,4.55-4.89,2.12-2.18,3.19-5.08,4.88-7.56s4-3.87,4.44-6.88c.33-2.1-.32-4.43-.85-6.49A30.27,30.27,0,0,0,106.8,14.34Z"/><path class="cls-22" d="M92.72,14.34v0Z"/><path class="cls-4" d="M92.73,14.32v0c.62-.77,6-4,6-4-3.37.81-6.77,2.2-9.31,6,.19-.19,4-1.78,4.63-2a31.23,31.23,0,0,0-8.45,6.82A34.15,34.15,0,0,0,81.2,27.6c-1.31,2.49-3.36,6.27-3.36,9.14a6.09,6.09,0,0,0-.08,3.82s0,1,.06,1,3.39,9.4,3.37,9.31c-.3-1,2.62-.95,2.07-1.81C72.08,31.75,93.82,14.92,94.14,14.3,93.9,14.07,92.88,14.22,92.73,14.32Z"/><path class="cls-13" d="M77,72.22c0,.3,0,.57,0,.84a2.25,2.25,0,0,1-.8,2,.39.39,0,0,0-.1.32c0,.6.27,2.93.68,3.11a1.35,1.35,0,0,0,1.29-.21C79.7,77.16,78.83,72.44,77,72.22Z"/><path class="cls-14" d="M76.3,76.83c.11.78.28,1.59.52,1.69a1.35,1.35,0,0,0,1.29-.21c.72-.52.94-1.79.79-3C78.79,76.94,77.42,77.14,76.3,76.83Z"/><path class="cls-19" d="M91.34,45a14.39,14.39,0,0,0,8.92,6.71.75.75,0,0,0,.39,0,14,14,0,0,0,9-6.63c-.2,0-3,1-3.19,1.08A15.2,15.2,0,0,0,112,38.75a4.41,4.41,0,0,1-4.4.42c-3.19-1.24-3.47-3-7.4-3.11-2.59.26-5.67,2.5-7,3.12a4,4,0,0,1-4-.23c1.23,4,5.14,6.94,5.25,7.06S92.35,45.36,91.34,45Z"/><path class="cls-4" d="M93.09,46.16c-.22-.39.94,0,1.37-.15-.39-.3-3.94-5.33-2.45-6.46a4.13,4.13,0,0,1-2.8-.6c1.23,4,5.14,6.94,5.25,7.06s-2.11-.65-3.12-1a14.59,14.59,0,0,0,7.33,6.25C98.39,51,93.6,47.15,93.09,46.16Z"/><path class="cls-21" d="M112,38.75a4.41,4.41,0,0,1-4.4.42l-.56-.31s2.25,3-1.83,7.19a6.44,6.44,0,0,0,1.41.45c-.25.52-2.09,3.56-7.46,4.9a9.15,9.15,0,0,0,1.09.29.75.75,0,0,0,.39,0,14,14,0,0,0,9-6.63c-.2,0-3,1-3.19,1.08A15.2,15.2,0,0,0,112,38.75Z"/><path class="cls-16" d="M128.47,65.54c-1,0-1.17-.19-1.44.8,0,.15-.42,5.35-.43,5.83,0,1,0,1,1,1.16s4.28.39,4.78.39c.22,0,.48,0,.52-.25.14-.65.46-5.86.49-7.15C133.39,65.49,129.25,65.54,128.47,65.54Z"/><path class="cls-17" d="M128.71,73c-1-.14-1-.16-1-1.16,0-.48.39-5.69.43-5.83s.11-.35.16-.47c-.88,0-1-.13-1.28.81,0,.15-.42,5.35-.43,5.83,0,1,0,1,1,1.16s4.28.39,4.78.39c.22,0,.47,0,.52-.25,0,0,0-.07,0-.12C131.8,73.29,129.58,73.11,128.71,73Z"/><path class="cls-13" d="M125.65,78.81c0,.38-.66,1.93,1.45,2.43a5.65,5.65,0,0,0,3.12-.23,1.66,1.66,0,0,0,1.07-1.93A5.59,5.59,0,0,1,125.65,78.81Z"/><path class="cls-14" d="M127.61,79.6a5.55,5.55,0,0,1-2-.79c0,.38-.66,1.93,1.45,2.43l.17,0A1.56,1.56,0,0,1,127.61,79.6Z"/><path class="cls-13" d="M126.67,77.88c1,.39,4.65.84,4.43-1.43l-5-.53A1.28,1.28,0,0,0,126.67,77.88Z"/><path class="cls-14" d="M127.89,76.11l-1.84-.19a1.28,1.28,0,0,0,.62,2,5.1,5.1,0,0,0,1,.24,1.35,1.35,0,0,1-.08-.3A3.14,3.14,0,0,1,127.89,76.11Z"/><path class="cls-13" d="M125.54,81.89s-.21,2,2.84,1.86c2.69-.15,2.52-1.47,2.49-1.5A6.45,6.45,0,0,1,125.54,81.89Z"/><path class="cls-14" d="M127.07,82.51a4.27,4.27,0,0,1-1.53-.62,1.64,1.64,0,0,0,1.38,1.74A2.4,2.4,0,0,1,127.07,82.51Z"/><path class="cls-19" d="M123.07,53.59c-.1.11-3.09,4-3.25,4.17s1.41-4.23,1.61-4.63c.73-1.5.57-2.34-.74-4-.08.12-2.17,3.75-3.26,5.45a9.1,9.1,0,0,1-2.86,2.93,5.18,5.18,0,0,0-2.2,2.56c-.29.7-.52,1.42-.81,2.12-.52,1.27-.89,2.49-2.08,3.17a2.84,2.84,0,0,1-3.15-.44,5.29,5.29,0,0,1-1-1.53,1.6,1.6,0,0,0-1-.9,35,35,0,0,0-7.92,0,1.25,1.25,0,0,0-.84.79,4.44,4.44,0,0,1-.41.85,2.77,2.77,0,0,1-3.75,1.11c-1.63-.72-2.21-4.26-2.51-5a6.32,6.32,0,0,0-2.27-2.57,9.81,9.81,0,0,1-3.25-3.22c-.75-1.11-2.82-4.71-3.25-5.39-.27.56-1.12,2.83-.89,3.46.57,1.55,1.81,5,1.88,5.17-.49-.12-2.33-2.8-3.05-3.82l-.25-.3H77.7A15.56,15.56,0,0,1,72.64,63c.18,0,3-.52,3.54,2,.32,1.43.44,4.36.56,5.22a3.1,3.1,0,0,1,3.47,2.07c3.16-4.94,2.84-11.91,2.94-12s1.82,7.84,1.92,9c0,.21,29,.4,30.4.3.25,0,2.06-9.22,2.22-9.29.06.15,2.88,11.81,2.92,11.88s-.07-1.45,3.39-2.36c0,0,.41-5,1.24-5.78a7,7,0,0,1,3-1C125.73,61.63,123.56,55.39,123.07,53.59Z"/><path class="cls-21" d="M77.55,70.2a3,3,0,0,1,2.66,2.06,19.24,19.24,0,0,0,2.94-6.91c.37-2.14,0-3.29,0-5C83.06,61,80.43,68.87,77.55,70.2Z"/><path class="cls-21" d="M117.69,60.29c.06.15,2.88,11.81,2.92,11.88s-.07-1.45,3.39-2.36h0C120.41,69.17,117.65,60.3,117.69,60.29Z"/><path class="cls-4" d="M123.07,53.59c-.1.11-3.09,4-3.25,4.17s1.41-4.23,1.61-4.63c.73-1.5.57-2.34-.74-4l-.78,1.33c0,.25,1.41,2.2-.09,7.31a22.37,22.37,0,0,1,2.55-.23,20.54,20.54,0,0,0,3.68,6,9.83,9.83,0,0,1,2.24-.54C125.73,61.63,123.56,55.39,123.07,53.59Z"/><path class="cls-4" d="M78.52,56.53a4.79,4.79,0,0,0,2.6,1.22c.08,0-1.65-4.09.07-6.85l-1.06-1.78c-.27.56-1.12,2.83-.89,3.46.57,1.55,1.81,5,1.88,5.17-.49-.12-2.33-2.8-3.05-3.82l-.25-.3H77.7A15.56,15.56,0,0,1,72.64,63a5.32,5.32,0,0,1,2.1.21C76.15,62.1,78.46,59,78.52,56.53Z"/><path class="cls-13" d="M123.8,73c0-.26,0-.52,0-.82-.39,0-1.81,0-1.58,4.69a1.83,1.83,0,0,0,2.09,1.64,25.7,25.7,0,0,0,.3-3.45A2.25,2.25,0,0,1,123.8,73Z"/><path class="cls-14" d="M122.2,76.39c0,.16,0,.33,0,.51a1.83,1.83,0,0,0,2.09,1.64,18.69,18.69,0,0,0,.23-2A2.27,2.27,0,0,1,122.2,76.39Z"/><path d="M130.09,61.55a13.61,13.61,0,0,1-3.18-4.44c-1.06-2.35-.84-5-2-7.26-.79-1.53-2.35-2-1.82-4.11.59-2.38,2.72-4,2.78-6.62.36-13.35-13.84-31.41-25.44-31.4-15.66,0-28.92,27.45-24.13,35.35.6,1,2.11,2.36,1.79,3.6-.19.75-2.58,3.5-3.23,7.58a12.55,12.55,0,0,1-4.75,7.8c-2.15,1.65-5.58,1.87-5.19,5.31.17,1.46.21,6.27.41,7.19.33,1.56,2.59,1.37,2.59,1.37-.37,2,.84,2.26.84,2.26-1.87,1-.22,3.24-.22,3.24-1.46,1.84.46,3.69,2.43,4.19,2.12.55,5.33.23,5.82-2.34a21.2,21.2,0,0,0,0-2.9,3.58,3.58,0,0,0,4.08-2.93c.06-.47,0-.94.13-1.4a17.8,17.8,0,0,1,1.64-2.71c2,1.13,5,.49,7.22.48l8.61,0L116,73.68c1.83,0,3.34.42,3.89,2.31a3,3,0,0,1,.06.9,3.73,3.73,0,0,0,1.29,2.76A5.8,5.8,0,0,0,124,81c0,.41-1.2,4,2.8,4.64,1.83.32,5.3-.12,5.88-1.58a2.74,2.74,0,0,0-.36-2.76,3.3,3.3,0,0,0,.5-3.23,1.67,1.67,0,0,0,0-1.62s1.9.47,2.41-.67c.24-.53.52-6.82.64-9.2a2.6,2.6,0,0,0-.82-2C133.72,63.13,131.63,63,130.09,61.55ZM78,40.46a5.8,5.8,0,0,1-.2-3.72c3.9-16.89,16.27-22.4,16.24-22.45-.19,0-3.9,1.48-4,1.51,1.31-2.24,7-6,10.79-5.69,1.42.1,6.9,1.5,10,5.58-1.41-.49-2.71-1.44-4.15-1.36C118,19.89,123,31.35,123.05,38.6c0,3.52-2.5,5.64-4.31,8.33-1.69,2.48-2.76,5.38-4.88,7.56-1.56,1.62-3.68,2.82-4.55,4.89-.48,1.15-1.16,3.68-1.23,3.52-.31-.67-1-3-3.36-3.34a12.2,12.2,0,0,1-1.75,0c1.73-2.11,4.48-3.88,6.64-5.6,6.86-5.43,6.68-15.17,6.72-15.17,0,.22.73,4.45.83,4.55a27.29,27.29,0,0,0,.14-12.71c-3-10.93-13.23-7.62-16.51-5a.53.53,0,0,1-.73,0c-9.38-6.23-13.46-1.41-15.13,1.57s-3.12,12-1.06,16.18c.28-1.51.53-3,.75-4.52-.09,3.61.29,9.71,5.78,14.53,2.49,2.18,5.09,4.22,7.64,6.34a9,9,0,0,0-3.46.2A1.9,1.9,0,0,0,93.3,61.3c-.12.37-.32,1.55-.5,1.6-.51.13-.55-.74-.6-1.19a7.18,7.18,0,0,0-.81-2.59c-1.54-2.83-3.4-3.71-4.65-4.73-1.9-1.55-3.94-6.35-4.23-6.83C81.62,46.07,78.87,42.37,78,40.46ZM89.21,39a4,4,0,0,0,4,.23c1.35-.62,4.43-2.86,7-3.12,3.93.11,4.21,1.87,7.4,3.11a4.41,4.41,0,0,0,4.4-.42,15.2,15.2,0,0,1-5.57,7.37c.2-.06,3-1,3.19-1.08a14,14,0,0,1-9,6.63.75.75,0,0,1-.39,0A14.39,14.39,0,0,1,91.34,45c1,.38,3.09,1.06,3.12,1S90.44,43,89.21,39Zm-1.69-6.9a12.55,12.55,0,0,1-.44-2.72c0-2,3.64-7.85,10.48-2.57.71.52,1.4,1.06,2.1,1.6a1.35,1.35,0,0,0,1.66-.13,12.12,12.12,0,0,1,4.28-2.64,8.57,8.57,0,0,1,4.79-.08c.2,0,3.31,1,3.37,3.37a9,9,0,0,1-.39,3.06,27.07,27.07,0,0,0-.7,3.63c-.26,1.89-3.13,2.65-4.25,2a30.77,30.77,0,0,0-5.79-2.84,7.73,7.73,0,0,0-6.4.89,33.81,33.81,0,0,1-3.84,2c-1.53.74-3-.39-3.45-.7a1.45,1.45,0,0,1-.76-1.33A12.67,12.67,0,0,0,87.52,32.05ZM67.71,73.78c-.13-.16-.38-5-.42-6.61,0-1.26.75-1.43,2-1.54s3.41-.06,4.67,0c.16,0,.56,7.18.54,7.83A48.57,48.57,0,0,1,67.71,73.78Zm1.91,2.43c1.47.39,5.28-.1,5.28-.1a3.34,3.34,0,0,1,0,.94c0,1.37-2.65,1.33-3.71,1.07C69.11,77.61,69.47,76.75,69.62,76.21Zm5.56,2.9c.35,2.32-5.59,2.35-5.64,0A9.41,9.41,0,0,0,75.18,79.11ZM71.82,83.9c-.84-.1-2.21-.65-1.91-1.65a8.53,8.53,0,0,0,5.44,0C75.43,84.22,72.71,84,71.82,83.9Zm6.29-5.59a1.35,1.35,0,0,1-1.29.21c-.41-.18-.63-2.51-.68-3.11a.39.39,0,0,1,.1-.32,2.25,2.25,0,0,0,.8-2c0-.27,0-.54,0-.84C78.83,72.44,79.7,77.16,78.11,78.31Zm46.2.23a1.83,1.83,0,0,1-2.09-1.64c-.23-4.7,1.19-4.65,1.58-4.69,0,.3,0,.56,0,.82a2.25,2.25,0,0,0,.81,2.06A25.7,25.7,0,0,1,124.31,78.54ZM124,69.81c-3.46.91-3.34,2.3-3.39,2.36s-2.86-11.73-2.92-11.88c-.16.07-2,9.27-2.22,9.29-1.36.1-30.38-.09-30.4-.3-.1-1.13-1.81-9-1.92-9s.22,7-2.94,12a3.1,3.1,0,0,0-3.47-2.07c-.12-.86-.24-3.79-.56-5.22-.55-2.49-3.36-1.92-3.54-2a15.56,15.56,0,0,0,5.06-9.37h.12l.25.3c.72,1,2.56,3.7,3.05,3.82-.07-.21-1.31-3.62-1.88-5.17-.23-.63.62-2.9.89-3.46.43.68,2.5,4.28,3.25,5.39a9.81,9.81,0,0,0,3.25,3.22A6.32,6.32,0,0,1,88.9,60.3c.3.71.88,4.25,2.51,5a2.77,2.77,0,0,0,3.75-1.11,4.44,4.44,0,0,0,.41-.85,1.25,1.25,0,0,1,.84-.79,35,35,0,0,1,7.92,0,1.6,1.6,0,0,1,1,.9,5.29,5.29,0,0,0,1,1.53,2.84,2.84,0,0,0,3.15.44c1.19-.68,1.56-1.9,2.08-3.17.29-.7.52-1.42.81-2.12a5.18,5.18,0,0,1,2.2-2.56,9.1,9.1,0,0,0,2.86-2.93c1.09-1.7,3.18-5.33,3.26-5.45,1.31,1.67,1.47,2.51.74,4-.2.4-1.64,4.6-1.61,4.63s3.15-4.06,3.25-4.17c.49,1.8,2.66,8,5.22,9.42a7,7,0,0,0-3,1C124.41,64.8,124,69.81,124,69.81Zm2,6.11,5,.53c.22,2.27-3.44,1.82-4.43,1.43A1.28,1.28,0,0,1,126.05,75.92Zm2.33,7.83c-3,.18-2.87-1.84-2.84-1.86a6.45,6.45,0,0,0,5.33.36S131.07,83.6,128.38,83.75ZM130.22,81a5.65,5.65,0,0,1-3.12.23c-2.11-.5-1.41-2-1.45-2.43a5.59,5.59,0,0,0,5.64.27A1.66,1.66,0,0,1,130.22,81Zm2.67-7.54c0,.22-.3.25-.52.25-.5,0-3.69-.24-4.78-.39s-1-.16-1-1.16c0-.48.39-5.68.43-5.83.27-1,.41-.8,1.44-.8.78,0,4.92-.05,4.91.78C133.35,67.61,133,72.82,132.89,73.47Z"/><path class="cls-4" d="M93.76,34.54c1.26-.34,1.85-3,1.52-3.65-.59-1.25-3.47-3.23-4.5-1.87C89.9,30.18,90.3,35.46,93.76,34.54Z"/><path class="cls-4" d="M107.15,34.54c3.46.92,3.85-4.36,3-5.52-1-1.36-3.92.62-4.51,1.87C105.3,31.58,105.89,34.2,107.15,34.54Z"/><path d="M89.22,28.16a10,10,0,0,0-.12,4.71c.57,2.6,2.73,3.92,4.84,3.3,2.75-.81,2.93-4.58,2.93-5.23.88.06,1.71-1.52,1.65-1.56s-1.44.66-2.12.17c-1-.69-1.88-1.44-2.87-2.09a5.3,5.3,0,0,0-3-1c-1,0-2.6,1-2,3.67A3.15,3.15,0,0,1,89.22,28.16Zm1.56.86c1-1.36,3.91.62,4.5,1.87.33.69-.26,3.31-1.52,3.65C90.3,35.46,89.9,30.18,90.78,29Z"/><path d="M104,30.94c0,.65.18,4.42,2.92,5.23,2.12.62,4.28-.7,4.84-3.3a10,10,0,0,0-.11-4.71,3.11,3.11,0,0,1,.67,2c.63-2.68-1-3.65-2-3.67a5.3,5.3,0,0,0-3,1c-1,.65-1.92,1.4-2.88,2.09-.67.49-2-.24-2.11-.17S103.15,31,104,30.94Zm1.58-.05c.59-1.25,3.48-3.23,4.51-1.87.87,1.16.48,6.44-3,5.52C105.89,34.2,105.3,31.58,105.62,30.89Z"/><path d="M130.2,66.52a2.07,2.07,0,0,0-1.85,2.12,1.88,1.88,0,0,0,1.86,1.9,1.92,1.92,0,0,0,1.88-2A2,2,0,0,0,130.2,66.52Z"/><path d="M130,71.05a1.12,1.12,0,0,0-1.1,1,1.08,1.08,0,0,0,1.09,1,1,1,0,0,0,1-1A1,1,0,0,0,130,71.05Z"/><path d="M70.62,66.52a2,2,0,0,0-1.87,2,1.92,1.92,0,0,0,1.87,2,1.88,1.88,0,0,0,1.87-1.92A2.07,2.07,0,0,0,70.62,66.52Z"/><path d="M70.8,71.05a1,1,0,0,0-1,1,1,1,0,0,0,1,1,1.08,1.08,0,0,0,1.09-1A1.12,1.12,0,0,0,70.8,71.05Z"/><path class="cls-23" d="M100.13,11c-1.76.15-3.66,1.32-5.49,2.95,0,0,1.13.24,1.13.24-1.67,1.54-4.45,2.5-6.76,8.16,0,0,4.8-2.63,10.55,1.8,2.29,1,4.83-4.75,13.47-1.15-1.08-2.92-6.19-8.53-7.71-8.79a9.41,9.41,0,0,1,2.71-.43S103.93,10.66,100.13,11Z"/><path class="cls-24" d="M100.34,11.31a8.13,8.13,0,0,0-4.54,2.17s1,.63,1,.63c-1.38,1.27-3.74,2.09-5.64,6.73,0,0,3.94-1.51,8.66,2.13,1.88.84,3.62-4.66,10.71-1.71-.88-2.4-5.1-6.73-6.35-6.94a6.37,6.37,0,0,1,2.41-.64S103.45,11.05,100.34,11.31Z"/><path class="cls-25" d="M187.57,90.93v.45s0,0,0,.07v.07c0,.13,0,.25,0,.38v0c0,.15,0,.29-.07.43s0,.05,0,.08,0,0,0,.05,0,.2-.07.31h0a.65.65,0,0,1,0,.13,2.8,2.8,0,0,1-.09.31s0,.07,0,.11h0c0,.14-.11.29-.17.43a.11.11,0,0,0,0,.05l-.17.37,0,0,0,.09-.16.29a1,1,0,0,1-.08.14l-.19.32,0,0,0,0-.28.4,0,0,0,0-.23.3-.11.13-.24.27-.08.09,0,0-.34.36a0,0,0,0,0,0,0l-.4.37-.12.11-.3.25-.14.12-.33.26-.06,0-.07,0-.46.34-.06,0,0,0-.41.26-.07,0-.09.06-.37.21-.17.1-.44.24-.11.06-.57.28-.15.07-.44.2-.21.09-.43.17-.1,0-.09,0-.64.23c-7.59,2.62-16.43.89-19.76-3.85l-.27-.42s-.05-.1-.08-.14l-.16-.29-.08-.16c0-.09-.08-.18-.13-.27a1.34,1.34,0,0,0-.07-.18l-.1-.27-.06-.17c0-.09-.06-.19-.08-.28a.94.94,0,0,1,0-.16c0-.12-.06-.24-.08-.36s0,0,0-.08c-.7-4.1,2.74-8.43,8.9-10.56,7.59-2.61,16.44-.89,19.76,3.86a6.66,6.66,0,0,1,1.23,3.22v.1C187.56,90.71,187.57,90.82,187.57,90.93Z"/><path class="cls-26" d="M187.75,92.59l0-.41-.18-1.71v0a.31.31,0,0,1,0,.1c0,.11,0,.22,0,.33v.59c0,.13,0,.25,0,.38v0c0,.15,0,.29-.07.43s0,.06,0,.08v.05c0,.1,0,.2-.07.31h0l0,.13c0,.11-.07.21-.1.31s0,.08,0,.11h0c0,.15-.11.29-.17.43l0,.05c-.06.12-.11.25-.17.37l0,0,0,.09-.16.29a1,1,0,0,1-.08.14l-.19.32,0,0,0,0c-.09.13-.18.27-.28.4l0,0,0,0-.23.3-.11.13-.24.27-.08.09,0,0-.34.36,0,0a4.59,4.59,0,0,1-.39.37l-.12.11-.3.25-.14.12-.33.26-.06,0-.06,0-.47.34-.06,0,0,0a3.62,3.62,0,0,1-.41.27l-.07,0-.1.06-.36.21-.17.1-.44.24-.11.06-.57.28-.15.07-.44.2-.2.09-.44.17-.1,0-.09,0-.64.23c-7.59,2.62-16.43.89-19.76-3.85l-.27-.42s-.05-.1-.08-.14l-.16-.29-.08-.16-.13-.27a1.34,1.34,0,0,0-.07-.18l-.1-.27-.06-.17c0-.09-.06-.19-.08-.28a1.24,1.24,0,0,1,0-.16c0-.12-.06-.24-.08-.36s0,0,0-.08,0-.28-.05-.42l.17,1.72A6.66,6.66,0,0,0,159,98.47c3.32,4.75,12.17,6.47,19.76,3.85l.72-.26.18-.07.67-.28h0l.66-.31.16-.08.59-.31,0,0,.6-.34.14-.1.52-.33a.1.1,0,0,0,0,0c.19-.12.36-.25.53-.38l.13-.1.45-.35,0,0,0,0,.12-.1.22-.2.14-.12c.06-.06.13-.12.19-.19a.8.8,0,0,0,.13-.13l.18-.18.13-.14.16-.18.13-.14.15-.19.12-.14.14-.19.11-.15.13-.18.1-.15a.43.43,0,0,1,0-.07l.07-.11.11-.18.1-.18.1-.17L187,96l.09-.18.08-.18.08-.18.07-.18.07-.18.06-.19.06-.18a1.8,1.8,0,0,1,.05-.19,1.21,1.21,0,0,1,0-.18,1.62,1.62,0,0,1,0-.19l0-.18a.13.13,0,0,0,0-.06s0-.06,0-.09l0-.26a1,1,0,0,0,0-.16,2.46,2.46,0,0,0,0-.26s0-.1,0-.16v-.41Z"/><path class="cls-27" d="M167.1,91.56A2.88,2.88,0,0,0,164,91c-1.2.42-1.75,1.36-1.22,2.11l2.55,3.65a2.85,2.85,0,0,0,3.12.6c1.2-.41,1.74-1.35,1.22-2.1Z"/><path class="cls-28" d="M182,91.65a1.66,1.66,0,0,0-1.79-.36l1.07-.37c.68-.24,1-.77.78-1.2a1.62,1.62,0,0,0-1.83-.41l.51-.18c.72-.25,1-.82.69-1.27a1.78,1.78,0,0,0-1.84-.31l-.76.27c.68-.25,1-.78.68-1.21v0a1.66,1.66,0,0,0-1.81-.35l-3.39,1.16a2.15,2.15,0,0,0-.44-1.92,2.41,2.41,0,0,0-2-.78c-.24.08-.39.31-.35.73.12,1.26-1.5,3.26-1.74,3.55-1,.45-1.41,1.3-.93,2l.16.23h0l1.11,1.59h0l1.11,1.59h0l.17.23a2.87,2.87,0,0,0,3.12.61l6.77-2.33c.69-.24,1-.79.71-1.23Z"/><g class="cls-29"><g class="cls-29"><g class="cls-30"><g class="cls-29"><path class="cls-31" d="M165.42,84.3l0,1.18c0,.08,0,.16,0,.23a3.45,3.45,0,0,1-.21.84l0-1.18a3.47,3.47,0,0,0,.22-.84c0-.08,0-.15,0-.23"/><path class="cls-32" d="M165.19,85.37l0,1.18a4.89,4.89,0,0,1-1.77,2.06l0-1.19a4.74,4.74,0,0,0,1.77-2"/><path class="cls-33" d="M163.42,87.42l0,1.19a13.28,13.28,0,0,1-8.14,1.84c-5.11-.32-9-2.85-8.91-5.71l0-1.18c-.11,2.85,3.8,5.39,8.92,5.71a13.23,13.23,0,0,0,8.13-1.85"/></g></g></g><path class="cls-34" d="M156.51,78.59c5.25.33,9.23,3,8.9,5.94s-4.87,5.07-10.12,4.74-9.24-3-8.9-5.94S151.26,78.26,156.51,78.59Z"/><g class="cls-29"><g class="cls-35"><path class="cls-36" d="M158.92,81.09a5.4,5.4,0,0,0-1,0,3.87,3.87,0,0,0-1.79.67,3.62,3.62,0,0,0-1.61-.89,4.92,4.92,0,0,0-1-.15c-1.86-.12-3.49.78-3.63,2-.25,2.23,4.73,3.92,5.63,4.15.93-.12,6.22-1.16,6.48-3.39.14-1.23-1.26-2.33-3.12-2.45"/></g></g></g><path class="cls-37" d="M40,93.14v.15c0,.1,0,.21,0,.31v.06a.25.25,0,0,0,0,.08c0,.13,0,.26,0,.39v.05c0,.15,0,.3-.07.44a.29.29,0,0,0,0,.09.06.06,0,0,0,0,0l-.08.32h0s0,.09,0,.14-.06.21-.1.32a.76.76,0,0,1,0,.11h0c0,.14-.11.29-.17.43a.14.14,0,0,0,0,.06l-.18.37s0,0,0,0l0,.09c0,.1-.1.2-.16.3l-.08.14c-.06.11-.13.22-.2.33l0,0s0,0,0,0-.19.27-.29.41l0,0,0,0a3.24,3.24,0,0,1-.24.31l-.11.13-.24.28-.08.09,0,0-.35.36,0,0c-.13.13-.26.26-.4.38l-.13.11-.3.27-.15.12-.34.26-.06,0-.06,0-.49.34,0,0,0,0-.42.27-.08,0-.09.06-.38.22-.17.1-.45.25-.12.06c-.18.1-.38.19-.57.28l-.16.08-.45.2-.21.09-.45.18-.1,0-.09,0c-.22.08-.43.16-.66.23-7.77,2.68-16.83.92-20.24-3.94-.1-.14-.19-.29-.28-.43a1.09,1.09,0,0,0-.08-.15,2.69,2.69,0,0,1-.16-.29,1.3,1.3,0,0,1-.08-.17,2.39,2.39,0,0,1-.13-.28l-.08-.17-.1-.28-.06-.17-.09-.3c0-.05,0-.1,0-.15s-.06-.25-.08-.38,0,0,0-.08c-.72-4.19,2.81-8.64,9.12-10.81,7.78-2.69,16.84-.92,20.24,3.94A7,7,0,0,1,40,92.69v.11C40,92.91,40,93,40,93.14Z"/><path class="cls-38" d="M40.21,94.84a3,3,0,0,0,0-.42L40,92.67v0a.41.41,0,0,1,0,.11c0,.11,0,.23,0,.34v.52a.22.22,0,0,0,0,.08l0,.39a.11.11,0,0,0,0,.05c0,.15,0,.3-.07.44a.29.29,0,0,0,0,.09v0c0,.11-.05.22-.08.32h0s0,.09,0,.14-.06.21-.1.32a.76.76,0,0,1,0,.11h0c0,.15-.11.29-.17.43l0,.06c-.05.13-.11.25-.17.37l0,0,0,.09c0,.1-.1.2-.16.3l-.08.14c-.06.11-.13.22-.2.33l0,0,0,0c-.09.14-.19.28-.29.41l0,0,0,0a3.24,3.24,0,0,1-.24.31l-.11.13-.24.28-.08.09,0,0-.34.36,0,0c-.13.13-.26.26-.4.38a.69.69,0,0,1-.13.11l-.3.27-.15.12-.34.26-.06,0-.06,0-.48.34-.06,0,0,0-.42.27-.08,0-.09.06-.38.22-.17.1-.45.25-.11.06-.58.28-.16.08-.45.2-.21.09-.45.18-.1,0-.09,0c-.22.08-.43.16-.66.23-7.77,2.69-16.83.92-20.24-3.94l-.28-.43a1.09,1.09,0,0,0-.08-.15l-.16-.29L10,98.07l-.12-.28c0-.05,0-.11-.08-.17l-.1-.28-.06-.17-.09-.3c0-.05,0-.1,0-.15s-.06-.25-.08-.38,0,0,0-.08l-.06-.43.18,1.76a7,7,0,0,0,1.26,3.27c3.41,4.87,12.47,6.63,20.24,4l.75-.27.18-.08.69-.28h0l.68-.32.17-.08.6-.32,0,0,.61-.36.15-.09.53-.35.06,0,.54-.4.13-.1.46-.36.05,0v0a.69.69,0,0,0,.13-.11l.22-.19.14-.13.2-.19.14-.14.18-.18.13-.15.17-.18.12-.15.16-.18.12-.15.14-.19a.91.91,0,0,0,.11-.16l.14-.19.1-.15,0-.07.07-.11.11-.18.1-.19a3160329207207.79,3160329207207.79,0,0,0,.2-.36l.09-.18c0-.06,0-.13.08-.19a1.42,1.42,0,0,0,.08-.18c0-.07.05-.13.07-.19a8091301570702.11,8091301570702.11,0,0,0,.14-.38l.06-.18a1.33,1.33,0,0,1,0-.19c0-.06,0-.13.05-.19s0-.13,0-.19,0-.12,0-.19a.13.13,0,0,1,0-.06s0-.07,0-.1a2.34,2.34,0,0,0,0-.26c0-.06,0-.11,0-.17s0-.17,0-.26v-.16a2.62,2.62,0,0,0,0-.28Z"/><path class="cls-39" d="M19.06,93.78a3,3,0,0,0-3.2-.62c-1.23.42-1.79,1.39-1.25,2.16l2.62,3.73a2.92,2.92,0,0,0,3.19.63c1.23-.43,1.79-1.39,1.25-2.16Z"/><path class="cls-40" d="M34.28,93.87a1.69,1.69,0,0,0-1.82-.37l1.09-.38c.7-.24,1.07-.78.8-1.23a1.68,1.68,0,0,0-1.87-.42L33,91.3c.74-.26,1.07-.85.71-1.31a1.82,1.82,0,0,0-1.88-.31L31,90c.69-.25,1-.8.69-1.24v0a1.68,1.68,0,0,0-1.85-.36l-3.47,1.2a2.24,2.24,0,0,0-.45-2,2.5,2.5,0,0,0-2-.8c-.25.09-.4.32-.36.76.13,1.28-1.54,3.33-1.78,3.63-1,.46-1.45,1.33-1,2l.17.23h0L22.13,95h0l1.14,1.63h0l.16.24a2.93,2.93,0,0,0,3.2.62l6.94-2.39c.71-.25,1-.81.72-1.25Z"/><g class="cls-29"><g class="cls-29"><g class="cls-41"><g class="cls-29"><path class="cls-31" d="M54.27,84.26l-.05,1.39c0,.09,0,.17,0,.26a3.64,3.64,0,0,1-.26,1L54,85.51a3.72,3.72,0,0,0,.25-1,2.45,2.45,0,0,0,0-.27"/><path class="cls-32" d="M54,85.51l-.06,1.38a5.46,5.46,0,0,1-2.07,2.41l.06-1.38A5.65,5.65,0,0,0,54,85.51"/><path class="cls-33" d="M51.93,87.92l-.06,1.38a15.46,15.46,0,0,1-9.51,2.16c-6-.38-10.57-3.34-10.44-6.68l0-1.39c-.13,3.35,4.45,6.31,10.44,6.69a15.47,15.47,0,0,0,9.52-2.16"/></g></g></g><path class="cls-34" d="M43.83,77.58c6.15.39,10.81,3.5,10.42,7s-5.69,5.93-11.84,5.55-10.81-3.5-10.42-7S37.69,77.19,43.83,77.58Z"/><g class="cls-29"><g class="cls-42"><path class="cls-36" d="M46.66,80.51a6.34,6.34,0,0,0-1.16,0,4.64,4.64,0,0,0-2.1.79,4.07,4.07,0,0,0-1.88-1,5,5,0,0,0-1.13-.18c-2.18-.14-4.08.92-4.25,2.36-.29,2.61,5.53,4.59,6.58,4.86,1.1-.14,7.29-1.36,7.59-4,.16-1.44-1.47-2.72-3.65-2.86"/></g></g></g></svg>