<svg id="Layer_1" data-name="Layer 1" xmlns="http://www.w3.org/2000/svg" viewBox="0 0 32 32"><defs><style>.cls-1{fill:#84dbff;}.cls-2{fill:#324a5e;}.cls-3{fill:#fff;}.cls-4{fill:#e6e9ee;}.cls-5{fill:#f1543f;}</style></defs><title>Time</title><circle class="cls-1" cx="16" cy="16" r="16"/><path class="cls-2" d="M24,6H8A2,2,0,0,0,6,8V24a2,2,0,0,0,2,2H24a2,2,0,0,0,2-2V8A2,2,0,0,0,24,6Z"/><path class="cls-3" d="M8,24.5A.54.54,0,0,1,7.5,24V8A.54.54,0,0,1,8,7.5H24a.55.55,0,0,1,.55.54V24a.55.55,0,0,1-.55.55H8Z"/><circle class="cls-4" cx="16" cy="16" r="2.91"/><rect class="cls-2" x="15.22" y="21.7" width="1.56" height="1.95"/><rect class="cls-2" x="15.22" y="8.36" width="1.56" height="1.95"/><rect class="cls-2" x="8.36" y="15.22" width="1.95" height="1.56"/><rect class="cls-2" x="21.7" y="15.22" width="1.95" height="1.56"/><polygon class="cls-5" points="19.1 16.63 15.37 16.63 15.37 11.46 16.63 11.46 16.63 15.37 19.1 15.37 19.1 16.63"/></svg>