<svg id="Layer_1" data-name="Layer 1" xmlns="http://www.w3.org/2000/svg" viewBox="0 0 32 32"><defs><style>.cls-1{fill:#ffd05b;}.cls-2{fill:#324a5e;}.cls-3{fill:#ff7058;}.cls-4{fill:#fff;}</style></defs><title>Phone</title><circle class="cls-1" cx="16" cy="16" r="16"/><path class="cls-2" d="M21,16.67h0a.52.52,0,0,1-.52-.49A5.12,5.12,0,0,0,19,13a5.23,5.23,0,0,0-3.16-1.49.52.52,0,0,1-.49-.52h0a.54.54,0,0,1,.58-.54,6.24,6.24,0,0,1,5.62,5.62A.55.55,0,0,1,21,16.67Z"/><path class="cls-2" d="M23.55,16.25h0a.54.54,0,0,1-.54-.49A7.26,7.26,0,0,0,16.24,9a.54.54,0,0,1-.49-.54h0a.54.54,0,0,1,.57-.53,8.2,8.2,0,0,1,5.33,2.43,8.3,8.3,0,0,1,2.43,5.33A.53.53,0,0,1,23.55,16.25Z"/><path class="cls-3" d="M23.28,24.55a.71.71,0,0,0-.07-.91L19.47,19.9a.7.7,0,0,0-1,0c-.42.47-.78.72-.64,1.34l4.15,4.16A1.8,1.8,0,0,0,23.28,24.55Z"/><path class="cls-4" d="M6.56,10.22c.08,1.6-5.06,2.37,3.81,11.41,9,8.87,9.81,3.73,11.4,3.81h.17l-4.15-4.16v0a1,1,0,0,1-.1.69,2.07,2.07,0,0,1-.8.89c-.25.1-1.12-.35-2.05-.92a14.31,14.31,0,0,1-4.8-4.8c-.57-.94-1-1.8-.92-2.05a2.07,2.07,0,0,1,.89-.8,1,1,0,0,1,.69-.1h0L6.56,10.06Z"/><path class="cls-3" d="M10.72,14.21c.62.14.87-.23,1.34-.64a.7.7,0,0,0,0-1L8.36,8.78a.74.74,0,0,0-.91-.07,1.85,1.85,0,0,0-.89,1.34Z"/></svg>