<svg id="Capa_1" data-name="Capa 1" xmlns="http://www.w3.org/2000/svg" xmlns:xlink="http://www.w3.org/1999/xlink" viewBox="0 0 52 55.48"><defs><style>.cls-1{fill:none;}.cls-2{fill:#f3e4b2;}.cls-3{clip-path:url(#clip-path);}.cls-4{fill:#ecc19c;}.cls-5{fill:#eb6d4a;}.cls-6{fill:#543e36;}.cls-7{fill:#c34628;}</style><clipPath id="clip-path"><circle class="cls-1" cx="26" cy="26" r="26"/></clipPath></defs><title>Personal Area</title><circle id="SVGID" class="cls-2" cx="26" cy="26" r="26"/><g class="cls-3"><path class="cls-4" d="M37.58,14.59v8.64c0,.12,0,.25,0,.37s0,.21,0,.31a2.45,2.45,0,0,1,0,.27,1.34,1.34,0,0,1,0,.2s0,.07,0,.11,0,.15,0,.22,0,.27,0,.41,0,.06,0,.1l0,.2h0c0,.1,0,.2,0,.3s-.05.27-.08.4v0s0,0,0,.06v0c0,.07,0,.14,0,.21s0,.06,0,.1,0,.1,0,.15a.29.29,0,0,1,0,.09.19.19,0,0,0,0,.07c-.06.23-.13.46-.2.69l-.11.32a0,0,0,0,1,0,0c0,.1-.07.2-.1.29l0,.09-.11.27c0,.12-.09.22-.13.33s-.08.19-.13.29,0,0,0,.05l-.14.3-.15.32c-.1.21-.22.41-.33.62l-.15.27A16.73,16.73,0,0,1,34,32.83c-.07.1-.15.19-.22.28l-.32.37-.3.32c-.27.29-.55.57-.83.83l-.18.17-.29.25-.24.2c-.2.17-.41.33-.61.48l-.27.19c-.14.1-.28.2-.43.29a1.58,1.58,0,0,1-.24.15,9.54,9.54,0,0,1-.87.49L29,37l-.22.1-.28.12-.11,0a2.3,2.3,0,0,1-.34.12,3.45,3.45,0,0,1-.42.14l-.29.07s0,0,0,0-.19,0-.29.06l-.08,0a1.81,1.81,0,0,1-.23,0,2.09,2.09,0,0,1-.35,0h-.76l-.24,0h-.06l-.32,0-.27-.05a8.21,8.21,0,0,1-1.49-.51,10.33,10.33,0,0,1-1.31-.69c-.22-.13-.44-.27-.65-.42L21,35.73c-.33-.25-.67-.52-1-.81l-.27-.25-.27-.25c-.22-.21-.44-.44-.65-.67l-.25-.27c-.22-.25-.44-.52-.66-.79l-.23-.31c-.29-.38-.56-.78-.82-1.19-.06-.11-.13-.22-.2-.33l-.23-.41a13,13,0,0,1-.77-1.59,2.44,2.44,0,0,1-.1-.24,2,2,0,0,1-.12-.31c-.06-.15-.11-.3-.16-.45s-.1-.31-.15-.46S15,27.1,15,27s-.09-.32-.13-.48a.07.07,0,0,0,0,0c-.05-.23-.1-.46-.14-.69s-.1-.62-.14-.94l0-.3a3,3,0,0,1,0-.31,5.49,5.49,0,0,1,0-.58c0-.12,0-.25,0-.37V14.59A11.57,11.57,0,0,1,26,3h0a12,12,0,0,1,2.56.28A11.3,11.3,0,0,1,30.74,4a11.44,11.44,0,0,1,2.59,1.6,11.85,11.85,0,0,1,1.79,1.82,11.52,11.52,0,0,1,2.46,7Z"/></g><g class="cls-3"><path class="cls-4" d="M41.08,55.48H10.94a15.12,15.12,0,0,1,.8-4.87c.1-.27.2-.55.31-.82h0c.11-.27.23-.53.35-.8a15.28,15.28,0,0,1,1.84-2.92c.18-.23.36-.45.55-.66l.3-.31a2.91,2.91,0,0,1,.3-.31A13.53,13.53,0,0,1,17,43.39a10.45,10.45,0,0,1,.87-.61c.3-.19.61-.37.92-.54h0a2.71,2.71,0,0,0,.37-.21,9.82,9.82,0,0,0,1-.71,9.62,9.62,0,0,0,3-4.24,9.51,9.51,0,0,0,.55-3.22H26l2.26,0a9.61,9.61,0,0,0,.54,3.18,9.49,9.49,0,0,0,3,4.25,5.73,5.73,0,0,0,.63.47l.07,0,.31.2.35.2.06,0,.73.43.35.23c.24.15.47.32.69.49h0c.28.21.56.44.83.67s.54.48.79.73A15,15,0,0,1,41.08,55.48Z"/></g><g class="cls-3"><path class="cls-5" d="M41.08,55.48H10.94a15.12,15.12,0,0,1,.8-4.87c.09-.28.2-.55.31-.82h0c.11-.27.22-.54.35-.8a14.68,14.68,0,0,1,1.84-2.92c.18-.23.36-.45.55-.66l.29-.31.31-.31A14.48,14.48,0,0,1,17,43.38c.29-.21.58-.41.88-.6l.47-.29.45-.26h0l.37-.21a8.83,8.83,0,0,0,1-.72h0A8.1,8.1,0,0,0,26,43.76h0a8.12,8.12,0,0,0,5.81-2.45h0a7.36,7.36,0,0,0,.63.47l.07,0a3.28,3.28,0,0,0,.31.2l.35.21.05,0,.41.23.33.21.35.23q.36.22.69.48h0l.83.68c.28.23.54.48.79.73A15,15,0,0,1,41.08,55.48Z"/></g><g class="cls-3"><path class="cls-6" d="M37.58,23.23c0,.12,0,.25,0,.37s0,.21,0,.31a2.45,2.45,0,0,1,0,.27,1.34,1.34,0,0,1,0,.2s0,.07,0,.11,0,.15,0,.22,0,.27,0,.41,0,.06,0,.1l0,.2c0,.1,0,.21,0,.31s0,.23-.07.35,0,.05,0,.07,0,0,0,.06v0a0,0,0,0,1,0,0,1.16,1.16,0,0,1,0,.18s0,.06,0,.1,0,.11,0,.16,0,.05,0,.08a.19.19,0,0,0,0,.07c-.06.23-.13.46-.2.69l-.11.32a0,0,0,0,1,0,0c0,.1-.07.2-.1.29l0,.09-.11.27c0,.12-.09.22-.13.33s-.08.19-.13.29,0,0,0,.05l-.14.3-.15.32c-.1.21-.22.41-.33.62l-.15.27A16.73,16.73,0,0,1,34,32.83c-.07.1-.15.19-.22.28l-.32.37-.3.32c-.27.29-.55.57-.83.83l-.18.17-.29.25-.24.2c-.2.17-.41.33-.61.48l-.27.19c-.14.1-.28.2-.43.29a1.58,1.58,0,0,1-.24.15,9.54,9.54,0,0,1-.87.49L29,37l-.22.1-.28.12-.11,0a2.3,2.3,0,0,1-.34.12,3.45,3.45,0,0,1-.42.14l-.29.07s0,0,0,0-.19,0-.29.06l-.08,0a1.81,1.81,0,0,1-.23,0,2.09,2.09,0,0,1-.35,0h-.76l-.24,0h-.06l-.32,0-.27-.05a8.21,8.21,0,0,1-1.49-.51,10.33,10.33,0,0,1-1.31-.69c-.22-.13-.43-.27-.65-.42L21,35.73c-.33-.25-.67-.52-1-.81l-.27-.25-.27-.25c-.22-.21-.44-.44-.65-.67l-.25-.27c-.22-.25-.44-.52-.66-.79l-.23-.31c-.29-.38-.56-.78-.82-1.19-.06-.11-.13-.22-.2-.33l-.23-.41a13,13,0,0,1-.77-1.59,2.44,2.44,0,0,1-.1-.24,2,2,0,0,1-.12-.31c-.06-.15-.11-.3-.16-.45s-.1-.31-.15-.46S15,27.1,15,27s-.09-.32-.13-.48a.07.07,0,0,0,0,0c-.05-.23-.1-.46-.14-.69s-.1-.62-.14-.94l0-.3a3,3,0,0,1,0-.31,5.49,5.49,0,0,1,0-.58c0-.12,0-.25,0-.37l1.85,3.63,3.17,1.38,3.75.34h0l2.78.25h0l2.6.24h0l5.81.52Z"/></g><g class="cls-3"><path class="cls-6" d="M26,25.05v2.8h0v4.31h0L14.82,26.47a.07.07,0,0,0,0,0c-.05-.23-.1-.46-.14-.69s-.1-.62-.14-.94l0-.3,0-.31c0-.19,0-.38,0-.58s0-.25,0-.37V20a12,12,0,0,0,.41,2.65,12.36,12.36,0,0,0,.72,1.95h0c.75,1.55,1.75,2.6,2.66,2.77l.18,0a9.79,9.79,0,0,0,1.11.06c1.45,0,2.73-1.16,3.54-1.63h0a1.25,1.25,0,0,0,.12-.08l0,0A5.8,5.8,0,0,1,26,25.05Z"/><path class="cls-6" d="M37.58,19.83v3.4a13.57,13.57,0,0,1-.23,2.49c-.06.33-.13.65-.21,1l-2.62,3.79L26,32.16h0V25.05h0a5.76,5.76,0,0,1,2.77.64l0,0,.12.08h0c.81.48,2.09,1.64,3.54,1.64a9.79,9.79,0,0,0,1.11-.06l.18,0c.92-.17,1.92-1.22,2.66-2.77h0a11.56,11.56,0,0,0,.72-2,11.06,11.06,0,0,0,.41-2.68Z"/></g><g class="cls-3"><ellipse class="cls-4" cx="26.01" cy="28.73" rx="2.83" ry="0.88"/></g><g class="cls-3"><path class="cls-6" d="M26,3h0A11.57,11.57,0,0,0,14.44,14.59v5.1s.48-3,1.77-4.52,1.05-4.05,4.2-4.05c2,0,2.15.75,5.59.75h0c3.44,0,3.56-.75,5.59-.75,3.15,0,2.79,2.44,4.2,4.05s1.77,4.52,1.77,4.52v-5.1A11.57,11.57,0,0,0,26,3Z"/></g><g class="cls-3"><path class="cls-7" d="M33.64,42.48l-.31.32a10.27,10.27,0,0,1-14.67,0l-.3-.31.45-.26h0l.36-.21a8.14,8.14,0,0,0,1-.72h0A8.14,8.14,0,0,0,26,43.76h0a8.12,8.12,0,0,0,5.81-2.45h0a7.36,7.36,0,0,0,.63.47l.07,0a3.28,3.28,0,0,0,.31.2l.35.21.05,0Z"/></g></svg>