<svg id="Layer_1" data-name="Layer 1" xmlns="http://www.w3.org/2000/svg" viewBox="0 0 32 32"><defs><style>.cls-1{fill:#84dbff;}.cls-2{fill:#324a5e;}.cls-3{fill:#e6e9ee;}.cls-4{fill:#fff;}.cls-5{fill:none;}.cls-6{fill:#ff7058;}</style></defs><title>Time</title><circle class="cls-1" cx="16" cy="16" r="16"/><polygon class="cls-2" points="20.59 4.07 11.41 4.07 9.84 8.58 22.16 8.58 20.59 4.07"/><polygon class="cls-2" points="11.41 27.93 20.59 27.93 22.16 23.42 9.84 23.42 11.41 27.93"/><circle class="cls-3" cx="16" cy="16" r="9.95"/><path class="cls-4" d="M16,23.82A7.82,7.82,0,1,1,23.82,16,7.82,7.82,0,0,1,16,23.82Z"/><path class="cls-2" d="M16,8.88a.24.24,0,0,0-.24.24v.72a.24.24,0,1,0,.48,0V9.12A.24.24,0,0,0,16,8.88Z"/><path class="cls-2" d="M16,21.93a.24.24,0,0,0-.24.24v.72a.24.24,0,0,0,.48,0v-.72A.24.24,0,0,0,16,21.93Z"/><path class="cls-2" d="M10.07,16a.24.24,0,0,0-.24-.24H9.11a.24.24,0,0,0,0,.48h.72A.24.24,0,0,0,10.07,16Z"/><path class="cls-2" d="M22.88,15.76h-.71a.24.24,0,1,0,0,.48h.71a.24.24,0,0,0,0-.48Z"/><path class="cls-2" d="M12.77,9.92a.25.25,0,0,0-.33-.09.24.24,0,0,0-.08.33l.24.43a.25.25,0,0,0,.21.12.24.24,0,0,0,.12,0,.22.22,0,0,0,.09-.32Z"/><path class="cls-2" d="M19.4,21.4a.24.24,0,1,0-.42.24l.25.43a.25.25,0,0,0,.21.12.27.27,0,0,0,.12,0,.24.24,0,0,0,.09-.33Z"/><path class="cls-2" d="M10.36,19l-.44.25a.25.25,0,0,0-.09.33.27.27,0,0,0,.21.12.33.33,0,0,0,.13,0l.43-.24a.25.25,0,0,0,.09-.33A.25.25,0,0,0,10.36,19Z"/><path class="cls-2" d="M21.52,13.05l.12,0,.44-.25a.25.25,0,0,0,.09-.33.24.24,0,0,0-.33-.08l-.43.24a.24.24,0,0,0,.11.45Z"/><path class="cls-2" d="M10.6,12.6l-.43-.24a.24.24,0,0,0-.33.08.25.25,0,0,0,.09.33l.43.25.12,0a.24.24,0,0,0,.21-.12A.25.25,0,0,0,10.6,12.6Z"/><path class="cls-2" d="M22.08,19.23,21.64,19a.24.24,0,0,0-.32.09.25.25,0,0,0,.09.33l.43.24a.28.28,0,0,0,.12,0,.24.24,0,0,0,.12-.45Z"/><path class="cls-2" d="M12.93,21.32a.25.25,0,0,0-.33.09l-.24.43a.24.24,0,0,0,.08.33.5.5,0,0,0,.13,0,.24.24,0,0,0,.2-.12l.25-.44A.23.23,0,0,0,12.93,21.32Z"/><path class="cls-2" d="M19.56,9.83a.24.24,0,0,0-.32.09l-.25.44a.24.24,0,0,0,.09.32l.12,0a.24.24,0,0,0,.21-.12l.25-.43A.26.26,0,0,0,19.56,9.83Z"/><line class="cls-5" x1="16" y1="16" x2="20.32" y2="16"/><polygon class="cls-6" points="16 15.9 20.32 16 16 16.09 16 15.9"/><line class="cls-5" x1="16" y1="16" x2="16" y2="10.83"/><polygon class="cls-6" points="15.94 16 16 10.83 16.06 16 15.94 16"/><line class="cls-5" x1="16" y1="16" x2="12.18" y2="19.82"/><polygon class="cls-6" points="16.04 16.04 12.18 19.82 15.96 15.96 16.04 16.04"/><circle class="cls-2" cx="16" cy="16" r="0.6"/></svg>