<svg id="Слой_1" data-name="Слой 1" xmlns="http://www.w3.org/2000/svg" viewBox="0 0 379.14 379.14"><defs><style>.cls-1{fill:#76b827;}.cls-2{fill:#dededf;}.cls-3{fill:#f1f3f7;}.cls-4{fill:#f0582f;}.cls-5{fill:#71d456;}.cls-6{fill:#4485c5;}.cls-7{fill:#646b79;}.cls-8{fill:#6eb1e1;}.cls-9{fill:#fbd303;}</style></defs><title>Traffic</title><path class="cls-1" d="M379.14,189.57c0,104.7-84.87,189.57-189.57,189.57S0,294.27,0,189.57,84.87,0,189.57,0,379.14,84.88,379.14,189.57Zm0,0" transform="translate(0 0)"/><path class="cls-2" d="M337.24,79.77H41.9a5.6,5.6,0,0,0-5.55,5.55V293.83a5.6,5.6,0,0,0,5.55,5.55H337.24a5.6,5.6,0,0,0,5.55-5.55V85.32a5.6,5.6,0,0,0-5.55-5.55Zm0,0" transform="translate(0 0)"/><rect class="cls-3" x="51.75" y="119.65" width="275.65" height="164.83"/><path class="cls-4" d="M66.39,102.23a7.32,7.32,0,1,1-7.32-7.32,7.33,7.33,0,0,1,7.32,7.32Zm0,0" transform="translate(0 0)"/><path class="cls-5" d="M89.36,102.23A7.32,7.32,0,1,1,82,94.91a7.33,7.33,0,0,1,7.32,7.32Zm0,0" transform="translate(0 0)"/><path class="cls-6" d="M112.33,102.23A7.32,7.32,0,1,1,105,94.91a7.33,7.33,0,0,1,7.32,7.32Zm0,0" transform="translate(0 0)"/><path class="cls-3" d="M320.08,94.91H131.77a7.33,7.33,0,0,0,0,14.65H320.08a7.33,7.33,0,0,0,0-14.65Zm0,0" transform="translate(0 0)"/><path class="cls-7" d="M93.14,253.44l-6-5.3,67.65-73.21,74,47.21L286,150.7l6.31,5.05-61.85,77L156,185.28Zm0,0" transform="translate(0 0)"/><path class="cls-8" d="M106.78,250.91a16.66,16.66,0,1,1-16.66-16.66,16.66,16.66,0,0,1,16.66,16.66Zm0,0" transform="translate(0 0)"/><path class="cls-9" d="M171.9,180.23a16.66,16.66,0,1,1-16.66-16.66,16.65,16.65,0,0,1,16.66,16.66Zm0,0" transform="translate(0 0)"/><path class="cls-5" d="M246.11,227.44a16.66,16.66,0,1,1-16.66-16.66,16.66,16.66,0,0,1,16.66,16.66Zm0,0" transform="translate(0 0)"/><path class="cls-4" d="M305.68,153.22A16.66,16.66,0,1,1,289,136.56a16.65,16.65,0,0,1,16.65,16.66Zm0,0" transform="translate(0 0)"/></svg>